M48
; DRILL file {KiCad 8.0.6+1} date 2024-11-11T16:29:32+0000
; FORMAT={-:-/ absolute / metric / decimal}
; #@! TF.CreationDate,2024-11-11T16:29:32+00:00
; #@! TF.GenerationSoftware,Kicad,Pcbnew,8.0.6+1
; #@! TF.FileFunction,NonPlated,1,2,NPTH
FMAT,2
METRIC
; #@! TA.AperFunction,NonPlated,NPTH,ComponentDrill
T1C0.750
; #@! TA.AperFunction,NonPlated,NPTH,ComponentDrill
T2C0.900
; #@! TA.AperFunction,NonPlated,NPTH,ComponentDrill
T3C1.900
; #@! TA.AperFunction,NonPlated,NPTH,ComponentDrill
T4C2.200
; #@! TA.AperFunction,NonPlated,NPTH,ComponentDrill
T5C3.000
; #@! TA.AperFunction,NonPlated,NPTH,ComponentDrill
T6C4.100
%
G90
G05
T1
X132.5Y-32.375
X132.5Y-35.125
T2
X90.275Y-70.0
X90.275Y-73.0
T3
X94.92Y-43.0
X94.92Y-62.0
X94.92Y-81.0
X94.92Y-100.0
X105.08Y-43.0
X105.08Y-62.0
X105.08Y-81.0
X105.08Y-100.0
X113.92Y-43.0
X113.92Y-62.0
X113.92Y-81.0
X113.92Y-100.0
X124.08Y-43.0
X124.08Y-62.0
X124.08Y-81.0
X124.08Y-100.0
X132.92Y-43.0
X132.92Y-62.0
X132.92Y-81.0
X132.92Y-100.0
X143.08Y-43.0
X143.08Y-62.0
X143.08Y-81.0
X143.08Y-100.0
X151.92Y-43.0
X151.92Y-62.0
X151.92Y-81.0
X151.92Y-100.0
X162.08Y-43.0
X162.08Y-62.0
X162.08Y-81.0
X162.08Y-100.0
X170.92Y-43.0
X170.92Y-62.0
X170.92Y-81.0
X170.92Y-100.0
X181.08Y-43.0
X181.08Y-62.0
X181.08Y-81.0
X181.08Y-100.0
X189.92Y-43.0
X189.92Y-62.0
X189.92Y-81.0
X189.92Y-100.0
X200.08Y-43.0
X200.08Y-62.0
X200.08Y-81.0
X200.08Y-100.0
T4
X109.5Y-90.5
X128.5Y-52.5
X147.5Y-71.5
X185.5Y-52.5
X185.5Y-90.5
T5
X96.19Y-40.46
X96.19Y-59.46
X96.19Y-78.46
X96.19Y-97.46
X102.54Y-37.92
X102.54Y-56.92
X102.54Y-75.92
X102.54Y-94.92
X115.19Y-40.46
X115.19Y-59.46
X115.19Y-78.46
X115.19Y-97.46
X121.54Y-37.92
X121.54Y-56.92
X121.54Y-75.92
X121.54Y-94.92
X134.19Y-40.46
X134.19Y-59.46
X134.19Y-78.46
X134.19Y-97.46
X140.54Y-37.92
X140.54Y-56.92
X140.54Y-75.92
X140.54Y-94.92
X153.19Y-40.46
X153.19Y-59.46
X153.19Y-78.46
X153.19Y-97.46
X159.54Y-37.92
X159.54Y-56.92
X159.54Y-75.92
X159.54Y-94.92
X172.19Y-40.46
X172.19Y-59.46
X172.19Y-78.46
X172.19Y-97.46
X178.54Y-37.92
X178.54Y-56.92
X178.54Y-75.92
X178.54Y-94.92
X191.19Y-40.46
X191.19Y-59.46
X191.19Y-78.46
X191.19Y-97.46
X197.54Y-37.92
X197.54Y-56.92
X197.54Y-75.92
X197.54Y-94.92
T6
X100.0Y-43.0
X100.0Y-62.0
X100.0Y-81.0
X100.0Y-100.0
X119.0Y-43.0
X119.0Y-62.0
X119.0Y-81.0
X119.0Y-100.0
X138.0Y-43.0
X138.0Y-62.0
X138.0Y-81.0
X138.0Y-100.0
X157.0Y-43.0
X157.0Y-62.0
X157.0Y-81.0
X157.0Y-100.0
X176.0Y-43.0
X176.0Y-62.0
X176.0Y-81.0
X176.0Y-100.0
X195.0Y-43.0
X195.0Y-62.0
X195.0Y-81.0
X195.0Y-100.0
M30
