M48
; DRILL file {KiCad 8.0.6+1} date 2024-11-11T16:02:19+0000
; FORMAT={-:-/ absolute / metric / decimal}
; #@! TF.CreationDate,2024-11-11T16:02:19+00:00
; #@! TF.GenerationSoftware,Kicad,Pcbnew,8.0.6+1
; #@! TF.FileFunction,Plated,1,2,PTH
FMAT,2
METRIC
; #@! TA.AperFunction,Plated,PTH,ComponentDrill
T1C0.750
; #@! TA.AperFunction,Plated,PTH,ComponentDrill
T2C1.000
%
G90
G05
T1
X109.5Y-69.5
X109.5Y-71.5
T2
X92.6Y-34.38
X92.6Y-49.62
X95.14Y-34.38
X95.14Y-49.62
X97.68Y-34.38
X97.68Y-49.62
X100.22Y-34.38
X100.22Y-49.62
X102.76Y-34.38
X102.76Y-49.62
X105.3Y-34.38
X105.3Y-49.62
X107.84Y-34.38
X107.84Y-49.62
X110.38Y-34.38
X110.38Y-49.62
X112.92Y-34.38
X112.92Y-49.62
X115.46Y-34.38
X115.46Y-49.62
X118.0Y-34.38
X118.0Y-49.62
X120.54Y-34.38
X120.54Y-49.62
M30
