G04 #@! TF.GenerationSoftware,KiCad,Pcbnew,8.0.6+1*
G04 #@! TF.CreationDate,2024-11-11T16:02:19+00:00*
G04 #@! TF.ProjectId,not_about_money,6e6f745f-6162-46f7-9574-5f6d6f6e6579,v1.0.0*
G04 #@! TF.SameCoordinates,Original*
G04 #@! TF.FileFunction,Soldermask,Bot*
G04 #@! TF.FilePolarity,Negative*
%FSLAX46Y46*%
G04 Gerber Fmt 4.6, Leading zero omitted, Abs format (unit mm)*
G04 Created by KiCad (PCBNEW 8.0.6+1) date 2024-11-11 16:02:19*
%MOMM*%
%LPD*%
G01*
G04 APERTURE LIST*
%ADD10C,2.300000*%
%ADD11C,4.200000*%
%ADD12C,2.000000*%
%ADD13C,3.100000*%
%ADD14C,1.800000*%
%ADD15C,1.000000*%
%ADD16C,0.850000*%
%ADD17O,1.850000X1.300000*%
G04 APERTURE END LIST*
D10*
X128500000Y-52500000D03*
X185500000Y-52500000D03*
X185500000Y-90500000D03*
X109500000Y-90500000D03*
X147500000Y-71500000D03*
D11*
X100000000Y-100000000D03*
D12*
X105080000Y-100000000D03*
X94920000Y-100000000D03*
D13*
X102540000Y-94920000D03*
X96190000Y-97460000D03*
G36*
G01*
X91590000Y-98710000D02*
X91590000Y-96210000D01*
G75*
G02*
X91640000Y-96160000I50000J0D01*
G01*
X94190000Y-96160000D01*
G75*
G02*
X94240000Y-96210000I0J-50000D01*
G01*
X94240000Y-98710000D01*
G75*
G02*
X94190000Y-98760000I-50000J0D01*
G01*
X91640000Y-98760000D01*
G75*
G02*
X91590000Y-98710000I0J50000D01*
G01*
G37*
G36*
X107152355Y-93634645D02*
G01*
X107167000Y-93670000D01*
X107167000Y-96170000D01*
X107152355Y-96205355D01*
X107117000Y-96220000D01*
X105067000Y-96220000D01*
X105031645Y-96205355D01*
X104531645Y-95705355D01*
X104517000Y-95670000D01*
X104517000Y-93670000D01*
X104531645Y-93634645D01*
X104567000Y-93620000D01*
X107117000Y-93620000D01*
X107152355Y-93634645D01*
G37*
D11*
X100000000Y-81000000D03*
D12*
X105080000Y-81000000D03*
X94920000Y-81000000D03*
D13*
X102540000Y-75920000D03*
X96190000Y-78460000D03*
G36*
G01*
X91590000Y-79710000D02*
X91590000Y-77210000D01*
G75*
G02*
X91640000Y-77160000I50000J0D01*
G01*
X94190000Y-77160000D01*
G75*
G02*
X94240000Y-77210000I0J-50000D01*
G01*
X94240000Y-79710000D01*
G75*
G02*
X94190000Y-79760000I-50000J0D01*
G01*
X91640000Y-79760000D01*
G75*
G02*
X91590000Y-79710000I0J50000D01*
G01*
G37*
G36*
X107152355Y-74634645D02*
G01*
X107167000Y-74670000D01*
X107167000Y-77170000D01*
X107152355Y-77205355D01*
X107117000Y-77220000D01*
X105067000Y-77220000D01*
X105031645Y-77205355D01*
X104531645Y-76705355D01*
X104517000Y-76670000D01*
X104517000Y-74670000D01*
X104531645Y-74634645D01*
X104567000Y-74620000D01*
X107117000Y-74620000D01*
X107152355Y-74634645D01*
G37*
D11*
X100000000Y-62000000D03*
D12*
X105080000Y-62000000D03*
X94920000Y-62000000D03*
D13*
X102540000Y-56920000D03*
X96190000Y-59460000D03*
G36*
G01*
X91590000Y-60710000D02*
X91590000Y-58210000D01*
G75*
G02*
X91640000Y-58160000I50000J0D01*
G01*
X94190000Y-58160000D01*
G75*
G02*
X94240000Y-58210000I0J-50000D01*
G01*
X94240000Y-60710000D01*
G75*
G02*
X94190000Y-60760000I-50000J0D01*
G01*
X91640000Y-60760000D01*
G75*
G02*
X91590000Y-60710000I0J50000D01*
G01*
G37*
G36*
X107152355Y-55634645D02*
G01*
X107167000Y-55670000D01*
X107167000Y-58170000D01*
X107152355Y-58205355D01*
X107117000Y-58220000D01*
X105067000Y-58220000D01*
X105031645Y-58205355D01*
X104531645Y-57705355D01*
X104517000Y-57670000D01*
X104517000Y-55670000D01*
X104531645Y-55634645D01*
X104567000Y-55620000D01*
X107117000Y-55620000D01*
X107152355Y-55634645D01*
G37*
D11*
X100000000Y-43000000D03*
D12*
X105080000Y-43000000D03*
X94920000Y-43000000D03*
D13*
X102540000Y-37920000D03*
X96190000Y-40460000D03*
G36*
G01*
X91590000Y-41710000D02*
X91590000Y-39210000D01*
G75*
G02*
X91640000Y-39160000I50000J0D01*
G01*
X94190000Y-39160000D01*
G75*
G02*
X94240000Y-39210000I0J-50000D01*
G01*
X94240000Y-41710000D01*
G75*
G02*
X94190000Y-41760000I-50000J0D01*
G01*
X91640000Y-41760000D01*
G75*
G02*
X91590000Y-41710000I0J50000D01*
G01*
G37*
G36*
X107152355Y-36634645D02*
G01*
X107167000Y-36670000D01*
X107167000Y-39170000D01*
X107152355Y-39205355D01*
X107117000Y-39220000D01*
X105067000Y-39220000D01*
X105031645Y-39205355D01*
X104531645Y-38705355D01*
X104517000Y-38670000D01*
X104517000Y-36670000D01*
X104531645Y-36634645D01*
X104567000Y-36620000D01*
X107117000Y-36620000D01*
X107152355Y-36634645D01*
G37*
D11*
X119000000Y-100000000D03*
D12*
X124080000Y-100000000D03*
X113920000Y-100000000D03*
D13*
X121540000Y-94920000D03*
X115190000Y-97460000D03*
G36*
G01*
X110590000Y-98710000D02*
X110590000Y-96210000D01*
G75*
G02*
X110640000Y-96160000I50000J0D01*
G01*
X113190000Y-96160000D01*
G75*
G02*
X113240000Y-96210000I0J-50000D01*
G01*
X113240000Y-98710000D01*
G75*
G02*
X113190000Y-98760000I-50000J0D01*
G01*
X110640000Y-98760000D01*
G75*
G02*
X110590000Y-98710000I0J50000D01*
G01*
G37*
G36*
X126152355Y-93634645D02*
G01*
X126167000Y-93670000D01*
X126167000Y-96170000D01*
X126152355Y-96205355D01*
X126117000Y-96220000D01*
X124067000Y-96220000D01*
X124031645Y-96205355D01*
X123531645Y-95705355D01*
X123517000Y-95670000D01*
X123517000Y-93670000D01*
X123531645Y-93634645D01*
X123567000Y-93620000D01*
X126117000Y-93620000D01*
X126152355Y-93634645D01*
G37*
D11*
X119000000Y-81000000D03*
D12*
X124080000Y-81000000D03*
X113920000Y-81000000D03*
D13*
X121540000Y-75920000D03*
X115190000Y-78460000D03*
G36*
G01*
X110590000Y-79710000D02*
X110590000Y-77210000D01*
G75*
G02*
X110640000Y-77160000I50000J0D01*
G01*
X113190000Y-77160000D01*
G75*
G02*
X113240000Y-77210000I0J-50000D01*
G01*
X113240000Y-79710000D01*
G75*
G02*
X113190000Y-79760000I-50000J0D01*
G01*
X110640000Y-79760000D01*
G75*
G02*
X110590000Y-79710000I0J50000D01*
G01*
G37*
G36*
X126152355Y-74634645D02*
G01*
X126167000Y-74670000D01*
X126167000Y-77170000D01*
X126152355Y-77205355D01*
X126117000Y-77220000D01*
X124067000Y-77220000D01*
X124031645Y-77205355D01*
X123531645Y-76705355D01*
X123517000Y-76670000D01*
X123517000Y-74670000D01*
X123531645Y-74634645D01*
X123567000Y-74620000D01*
X126117000Y-74620000D01*
X126152355Y-74634645D01*
G37*
D11*
X119000000Y-62000000D03*
D12*
X124080000Y-62000000D03*
X113920000Y-62000000D03*
D13*
X121540000Y-56920000D03*
X115190000Y-59460000D03*
G36*
G01*
X110590000Y-60710000D02*
X110590000Y-58210000D01*
G75*
G02*
X110640000Y-58160000I50000J0D01*
G01*
X113190000Y-58160000D01*
G75*
G02*
X113240000Y-58210000I0J-50000D01*
G01*
X113240000Y-60710000D01*
G75*
G02*
X113190000Y-60760000I-50000J0D01*
G01*
X110640000Y-60760000D01*
G75*
G02*
X110590000Y-60710000I0J50000D01*
G01*
G37*
G36*
X126152355Y-55634645D02*
G01*
X126167000Y-55670000D01*
X126167000Y-58170000D01*
X126152355Y-58205355D01*
X126117000Y-58220000D01*
X124067000Y-58220000D01*
X124031645Y-58205355D01*
X123531645Y-57705355D01*
X123517000Y-57670000D01*
X123517000Y-55670000D01*
X123531645Y-55634645D01*
X123567000Y-55620000D01*
X126117000Y-55620000D01*
X126152355Y-55634645D01*
G37*
D11*
X119000000Y-43000000D03*
D12*
X124080000Y-43000000D03*
X113920000Y-43000000D03*
D13*
X121540000Y-37920000D03*
X115190000Y-40460000D03*
G36*
G01*
X110590000Y-41710000D02*
X110590000Y-39210000D01*
G75*
G02*
X110640000Y-39160000I50000J0D01*
G01*
X113190000Y-39160000D01*
G75*
G02*
X113240000Y-39210000I0J-50000D01*
G01*
X113240000Y-41710000D01*
G75*
G02*
X113190000Y-41760000I-50000J0D01*
G01*
X110640000Y-41760000D01*
G75*
G02*
X110590000Y-41710000I0J50000D01*
G01*
G37*
G36*
X126152355Y-36634645D02*
G01*
X126167000Y-36670000D01*
X126167000Y-39170000D01*
X126152355Y-39205355D01*
X126117000Y-39220000D01*
X124067000Y-39220000D01*
X124031645Y-39205355D01*
X123531645Y-38705355D01*
X123517000Y-38670000D01*
X123517000Y-36670000D01*
X123531645Y-36634645D01*
X123567000Y-36620000D01*
X126117000Y-36620000D01*
X126152355Y-36634645D01*
G37*
D11*
X138000000Y-100000000D03*
D12*
X143080000Y-100000000D03*
X132920000Y-100000000D03*
D13*
X140540000Y-94920000D03*
X134190000Y-97460000D03*
G36*
G01*
X129590000Y-98710000D02*
X129590000Y-96210000D01*
G75*
G02*
X129640000Y-96160000I50000J0D01*
G01*
X132190000Y-96160000D01*
G75*
G02*
X132240000Y-96210000I0J-50000D01*
G01*
X132240000Y-98710000D01*
G75*
G02*
X132190000Y-98760000I-50000J0D01*
G01*
X129640000Y-98760000D01*
G75*
G02*
X129590000Y-98710000I0J50000D01*
G01*
G37*
G36*
X145152355Y-93634645D02*
G01*
X145167000Y-93670000D01*
X145167000Y-96170000D01*
X145152355Y-96205355D01*
X145117000Y-96220000D01*
X143067000Y-96220000D01*
X143031645Y-96205355D01*
X142531645Y-95705355D01*
X142517000Y-95670000D01*
X142517000Y-93670000D01*
X142531645Y-93634645D01*
X142567000Y-93620000D01*
X145117000Y-93620000D01*
X145152355Y-93634645D01*
G37*
D11*
X138000000Y-81000000D03*
D12*
X143080000Y-81000000D03*
X132920000Y-81000000D03*
D13*
X140540000Y-75920000D03*
X134190000Y-78460000D03*
G36*
G01*
X129590000Y-79710000D02*
X129590000Y-77210000D01*
G75*
G02*
X129640000Y-77160000I50000J0D01*
G01*
X132190000Y-77160000D01*
G75*
G02*
X132240000Y-77210000I0J-50000D01*
G01*
X132240000Y-79710000D01*
G75*
G02*
X132190000Y-79760000I-50000J0D01*
G01*
X129640000Y-79760000D01*
G75*
G02*
X129590000Y-79710000I0J50000D01*
G01*
G37*
G36*
X145152355Y-74634645D02*
G01*
X145167000Y-74670000D01*
X145167000Y-77170000D01*
X145152355Y-77205355D01*
X145117000Y-77220000D01*
X143067000Y-77220000D01*
X143031645Y-77205355D01*
X142531645Y-76705355D01*
X142517000Y-76670000D01*
X142517000Y-74670000D01*
X142531645Y-74634645D01*
X142567000Y-74620000D01*
X145117000Y-74620000D01*
X145152355Y-74634645D01*
G37*
D11*
X138000000Y-62000000D03*
D12*
X143080000Y-62000000D03*
X132920000Y-62000000D03*
D13*
X140540000Y-56920000D03*
X134190000Y-59460000D03*
G36*
G01*
X129590000Y-60710000D02*
X129590000Y-58210000D01*
G75*
G02*
X129640000Y-58160000I50000J0D01*
G01*
X132190000Y-58160000D01*
G75*
G02*
X132240000Y-58210000I0J-50000D01*
G01*
X132240000Y-60710000D01*
G75*
G02*
X132190000Y-60760000I-50000J0D01*
G01*
X129640000Y-60760000D01*
G75*
G02*
X129590000Y-60710000I0J50000D01*
G01*
G37*
G36*
X145152355Y-55634645D02*
G01*
X145167000Y-55670000D01*
X145167000Y-58170000D01*
X145152355Y-58205355D01*
X145117000Y-58220000D01*
X143067000Y-58220000D01*
X143031645Y-58205355D01*
X142531645Y-57705355D01*
X142517000Y-57670000D01*
X142517000Y-55670000D01*
X142531645Y-55634645D01*
X142567000Y-55620000D01*
X145117000Y-55620000D01*
X145152355Y-55634645D01*
G37*
D11*
X138000000Y-43000000D03*
D12*
X143080000Y-43000000D03*
X132920000Y-43000000D03*
D13*
X140540000Y-37920000D03*
X134190000Y-40460000D03*
G36*
G01*
X129590000Y-41710000D02*
X129590000Y-39210000D01*
G75*
G02*
X129640000Y-39160000I50000J0D01*
G01*
X132190000Y-39160000D01*
G75*
G02*
X132240000Y-39210000I0J-50000D01*
G01*
X132240000Y-41710000D01*
G75*
G02*
X132190000Y-41760000I-50000J0D01*
G01*
X129640000Y-41760000D01*
G75*
G02*
X129590000Y-41710000I0J50000D01*
G01*
G37*
G36*
X145152355Y-36634645D02*
G01*
X145167000Y-36670000D01*
X145167000Y-39170000D01*
X145152355Y-39205355D01*
X145117000Y-39220000D01*
X143067000Y-39220000D01*
X143031645Y-39205355D01*
X142531645Y-38705355D01*
X142517000Y-38670000D01*
X142517000Y-36670000D01*
X142531645Y-36634645D01*
X142567000Y-36620000D01*
X145117000Y-36620000D01*
X145152355Y-36634645D01*
G37*
D11*
X157000000Y-100000000D03*
D12*
X162080000Y-100000000D03*
X151920000Y-100000000D03*
D13*
X159540000Y-94920000D03*
X153190000Y-97460000D03*
G36*
G01*
X148590000Y-98710000D02*
X148590000Y-96210000D01*
G75*
G02*
X148640000Y-96160000I50000J0D01*
G01*
X151190000Y-96160000D01*
G75*
G02*
X151240000Y-96210000I0J-50000D01*
G01*
X151240000Y-98710000D01*
G75*
G02*
X151190000Y-98760000I-50000J0D01*
G01*
X148640000Y-98760000D01*
G75*
G02*
X148590000Y-98710000I0J50000D01*
G01*
G37*
G36*
X164152355Y-93634645D02*
G01*
X164167000Y-93670000D01*
X164167000Y-96170000D01*
X164152355Y-96205355D01*
X164117000Y-96220000D01*
X162067000Y-96220000D01*
X162031645Y-96205355D01*
X161531645Y-95705355D01*
X161517000Y-95670000D01*
X161517000Y-93670000D01*
X161531645Y-93634645D01*
X161567000Y-93620000D01*
X164117000Y-93620000D01*
X164152355Y-93634645D01*
G37*
D11*
X157000000Y-81000000D03*
D12*
X162080000Y-81000000D03*
X151920000Y-81000000D03*
D13*
X159540000Y-75920000D03*
X153190000Y-78460000D03*
G36*
G01*
X148590000Y-79710000D02*
X148590000Y-77210000D01*
G75*
G02*
X148640000Y-77160000I50000J0D01*
G01*
X151190000Y-77160000D01*
G75*
G02*
X151240000Y-77210000I0J-50000D01*
G01*
X151240000Y-79710000D01*
G75*
G02*
X151190000Y-79760000I-50000J0D01*
G01*
X148640000Y-79760000D01*
G75*
G02*
X148590000Y-79710000I0J50000D01*
G01*
G37*
G36*
X164152355Y-74634645D02*
G01*
X164167000Y-74670000D01*
X164167000Y-77170000D01*
X164152355Y-77205355D01*
X164117000Y-77220000D01*
X162067000Y-77220000D01*
X162031645Y-77205355D01*
X161531645Y-76705355D01*
X161517000Y-76670000D01*
X161517000Y-74670000D01*
X161531645Y-74634645D01*
X161567000Y-74620000D01*
X164117000Y-74620000D01*
X164152355Y-74634645D01*
G37*
D11*
X157000000Y-62000000D03*
D12*
X162080000Y-62000000D03*
X151920000Y-62000000D03*
D13*
X159540000Y-56920000D03*
X153190000Y-59460000D03*
G36*
G01*
X148590000Y-60710000D02*
X148590000Y-58210000D01*
G75*
G02*
X148640000Y-58160000I50000J0D01*
G01*
X151190000Y-58160000D01*
G75*
G02*
X151240000Y-58210000I0J-50000D01*
G01*
X151240000Y-60710000D01*
G75*
G02*
X151190000Y-60760000I-50000J0D01*
G01*
X148640000Y-60760000D01*
G75*
G02*
X148590000Y-60710000I0J50000D01*
G01*
G37*
G36*
X164152355Y-55634645D02*
G01*
X164167000Y-55670000D01*
X164167000Y-58170000D01*
X164152355Y-58205355D01*
X164117000Y-58220000D01*
X162067000Y-58220000D01*
X162031645Y-58205355D01*
X161531645Y-57705355D01*
X161517000Y-57670000D01*
X161517000Y-55670000D01*
X161531645Y-55634645D01*
X161567000Y-55620000D01*
X164117000Y-55620000D01*
X164152355Y-55634645D01*
G37*
D11*
X157000000Y-43000000D03*
D12*
X162080000Y-43000000D03*
X151920000Y-43000000D03*
D13*
X159540000Y-37920000D03*
X153190000Y-40460000D03*
G36*
G01*
X148590000Y-41710000D02*
X148590000Y-39210000D01*
G75*
G02*
X148640000Y-39160000I50000J0D01*
G01*
X151190000Y-39160000D01*
G75*
G02*
X151240000Y-39210000I0J-50000D01*
G01*
X151240000Y-41710000D01*
G75*
G02*
X151190000Y-41760000I-50000J0D01*
G01*
X148640000Y-41760000D01*
G75*
G02*
X148590000Y-41710000I0J50000D01*
G01*
G37*
G36*
X164152355Y-36634645D02*
G01*
X164167000Y-36670000D01*
X164167000Y-39170000D01*
X164152355Y-39205355D01*
X164117000Y-39220000D01*
X162067000Y-39220000D01*
X162031645Y-39205355D01*
X161531645Y-38705355D01*
X161517000Y-38670000D01*
X161517000Y-36670000D01*
X161531645Y-36634645D01*
X161567000Y-36620000D01*
X164117000Y-36620000D01*
X164152355Y-36634645D01*
G37*
D11*
X176000000Y-100000000D03*
D12*
X181080000Y-100000000D03*
X170920000Y-100000000D03*
D13*
X178540000Y-94920000D03*
X172190000Y-97460000D03*
G36*
G01*
X167590000Y-98710000D02*
X167590000Y-96210000D01*
G75*
G02*
X167640000Y-96160000I50000J0D01*
G01*
X170190000Y-96160000D01*
G75*
G02*
X170240000Y-96210000I0J-50000D01*
G01*
X170240000Y-98710000D01*
G75*
G02*
X170190000Y-98760000I-50000J0D01*
G01*
X167640000Y-98760000D01*
G75*
G02*
X167590000Y-98710000I0J50000D01*
G01*
G37*
G36*
X183152355Y-93634645D02*
G01*
X183167000Y-93670000D01*
X183167000Y-96170000D01*
X183152355Y-96205355D01*
X183117000Y-96220000D01*
X181067000Y-96220000D01*
X181031645Y-96205355D01*
X180531645Y-95705355D01*
X180517000Y-95670000D01*
X180517000Y-93670000D01*
X180531645Y-93634645D01*
X180567000Y-93620000D01*
X183117000Y-93620000D01*
X183152355Y-93634645D01*
G37*
D11*
X176000000Y-81000000D03*
D12*
X181080000Y-81000000D03*
X170920000Y-81000000D03*
D13*
X178540000Y-75920000D03*
X172190000Y-78460000D03*
G36*
G01*
X167590000Y-79710000D02*
X167590000Y-77210000D01*
G75*
G02*
X167640000Y-77160000I50000J0D01*
G01*
X170190000Y-77160000D01*
G75*
G02*
X170240000Y-77210000I0J-50000D01*
G01*
X170240000Y-79710000D01*
G75*
G02*
X170190000Y-79760000I-50000J0D01*
G01*
X167640000Y-79760000D01*
G75*
G02*
X167590000Y-79710000I0J50000D01*
G01*
G37*
G36*
X183152355Y-74634645D02*
G01*
X183167000Y-74670000D01*
X183167000Y-77170000D01*
X183152355Y-77205355D01*
X183117000Y-77220000D01*
X181067000Y-77220000D01*
X181031645Y-77205355D01*
X180531645Y-76705355D01*
X180517000Y-76670000D01*
X180517000Y-74670000D01*
X180531645Y-74634645D01*
X180567000Y-74620000D01*
X183117000Y-74620000D01*
X183152355Y-74634645D01*
G37*
D11*
X176000000Y-62000000D03*
D12*
X181080000Y-62000000D03*
X170920000Y-62000000D03*
D13*
X178540000Y-56920000D03*
X172190000Y-59460000D03*
G36*
G01*
X167590000Y-60710000D02*
X167590000Y-58210000D01*
G75*
G02*
X167640000Y-58160000I50000J0D01*
G01*
X170190000Y-58160000D01*
G75*
G02*
X170240000Y-58210000I0J-50000D01*
G01*
X170240000Y-60710000D01*
G75*
G02*
X170190000Y-60760000I-50000J0D01*
G01*
X167640000Y-60760000D01*
G75*
G02*
X167590000Y-60710000I0J50000D01*
G01*
G37*
G36*
X183152355Y-55634645D02*
G01*
X183167000Y-55670000D01*
X183167000Y-58170000D01*
X183152355Y-58205355D01*
X183117000Y-58220000D01*
X181067000Y-58220000D01*
X181031645Y-58205355D01*
X180531645Y-57705355D01*
X180517000Y-57670000D01*
X180517000Y-55670000D01*
X180531645Y-55634645D01*
X180567000Y-55620000D01*
X183117000Y-55620000D01*
X183152355Y-55634645D01*
G37*
D11*
X176000000Y-43000000D03*
D12*
X181080000Y-43000000D03*
X170920000Y-43000000D03*
D13*
X178540000Y-37920000D03*
X172190000Y-40460000D03*
G36*
G01*
X167590000Y-41710000D02*
X167590000Y-39210000D01*
G75*
G02*
X167640000Y-39160000I50000J0D01*
G01*
X170190000Y-39160000D01*
G75*
G02*
X170240000Y-39210000I0J-50000D01*
G01*
X170240000Y-41710000D01*
G75*
G02*
X170190000Y-41760000I-50000J0D01*
G01*
X167640000Y-41760000D01*
G75*
G02*
X167590000Y-41710000I0J50000D01*
G01*
G37*
G36*
X183152355Y-36634645D02*
G01*
X183167000Y-36670000D01*
X183167000Y-39170000D01*
X183152355Y-39205355D01*
X183117000Y-39220000D01*
X181067000Y-39220000D01*
X181031645Y-39205355D01*
X180531645Y-38705355D01*
X180517000Y-38670000D01*
X180517000Y-36670000D01*
X180531645Y-36634645D01*
X180567000Y-36620000D01*
X183117000Y-36620000D01*
X183152355Y-36634645D01*
G37*
D11*
X195000000Y-100000000D03*
D12*
X200080000Y-100000000D03*
X189920000Y-100000000D03*
D13*
X197540000Y-94920000D03*
X191190000Y-97460000D03*
G36*
G01*
X186590000Y-98710000D02*
X186590000Y-96210000D01*
G75*
G02*
X186640000Y-96160000I50000J0D01*
G01*
X189190000Y-96160000D01*
G75*
G02*
X189240000Y-96210000I0J-50000D01*
G01*
X189240000Y-98710000D01*
G75*
G02*
X189190000Y-98760000I-50000J0D01*
G01*
X186640000Y-98760000D01*
G75*
G02*
X186590000Y-98710000I0J50000D01*
G01*
G37*
G36*
X202152355Y-93634645D02*
G01*
X202167000Y-93670000D01*
X202167000Y-96170000D01*
X202152355Y-96205355D01*
X202117000Y-96220000D01*
X200067000Y-96220000D01*
X200031645Y-96205355D01*
X199531645Y-95705355D01*
X199517000Y-95670000D01*
X199517000Y-93670000D01*
X199531645Y-93634645D01*
X199567000Y-93620000D01*
X202117000Y-93620000D01*
X202152355Y-93634645D01*
G37*
D11*
X195000000Y-81000000D03*
D12*
X200080000Y-81000000D03*
X189920000Y-81000000D03*
D13*
X197540000Y-75920000D03*
X191190000Y-78460000D03*
G36*
G01*
X186590000Y-79710000D02*
X186590000Y-77210000D01*
G75*
G02*
X186640000Y-77160000I50000J0D01*
G01*
X189190000Y-77160000D01*
G75*
G02*
X189240000Y-77210000I0J-50000D01*
G01*
X189240000Y-79710000D01*
G75*
G02*
X189190000Y-79760000I-50000J0D01*
G01*
X186640000Y-79760000D01*
G75*
G02*
X186590000Y-79710000I0J50000D01*
G01*
G37*
G36*
X202152355Y-74634645D02*
G01*
X202167000Y-74670000D01*
X202167000Y-77170000D01*
X202152355Y-77205355D01*
X202117000Y-77220000D01*
X200067000Y-77220000D01*
X200031645Y-77205355D01*
X199531645Y-76705355D01*
X199517000Y-76670000D01*
X199517000Y-74670000D01*
X199531645Y-74634645D01*
X199567000Y-74620000D01*
X202117000Y-74620000D01*
X202152355Y-74634645D01*
G37*
D11*
X195000000Y-62000000D03*
D12*
X200080000Y-62000000D03*
X189920000Y-62000000D03*
D13*
X197540000Y-56920000D03*
X191190000Y-59460000D03*
G36*
G01*
X186590000Y-60710000D02*
X186590000Y-58210000D01*
G75*
G02*
X186640000Y-58160000I50000J0D01*
G01*
X189190000Y-58160000D01*
G75*
G02*
X189240000Y-58210000I0J-50000D01*
G01*
X189240000Y-60710000D01*
G75*
G02*
X189190000Y-60760000I-50000J0D01*
G01*
X186640000Y-60760000D01*
G75*
G02*
X186590000Y-60710000I0J50000D01*
G01*
G37*
G36*
X202152355Y-55634645D02*
G01*
X202167000Y-55670000D01*
X202167000Y-58170000D01*
X202152355Y-58205355D01*
X202117000Y-58220000D01*
X200067000Y-58220000D01*
X200031645Y-58205355D01*
X199531645Y-57705355D01*
X199517000Y-57670000D01*
X199517000Y-55670000D01*
X199531645Y-55634645D01*
X199567000Y-55620000D01*
X202117000Y-55620000D01*
X202152355Y-55634645D01*
G37*
D11*
X195000000Y-43000000D03*
D12*
X200080000Y-43000000D03*
X189920000Y-43000000D03*
D13*
X197540000Y-37920000D03*
X191190000Y-40460000D03*
G36*
G01*
X186590000Y-41710000D02*
X186590000Y-39210000D01*
G75*
G02*
X186640000Y-39160000I50000J0D01*
G01*
X189190000Y-39160000D01*
G75*
G02*
X189240000Y-39210000I0J-50000D01*
G01*
X189240000Y-41710000D01*
G75*
G02*
X189190000Y-41760000I-50000J0D01*
G01*
X186640000Y-41760000D01*
G75*
G02*
X186590000Y-41710000I0J50000D01*
G01*
G37*
G36*
X202152355Y-36634645D02*
G01*
X202167000Y-36670000D01*
X202167000Y-39170000D01*
X202152355Y-39205355D01*
X202117000Y-39220000D01*
X200067000Y-39220000D01*
X200031645Y-39205355D01*
X199531645Y-38705355D01*
X199517000Y-38670000D01*
X199517000Y-36670000D01*
X199531645Y-36634645D01*
X199567000Y-36620000D01*
X202117000Y-36620000D01*
X202152355Y-36634645D01*
G37*
G36*
G01*
X107700000Y-97600000D02*
X106500000Y-97600000D01*
G75*
G02*
X106450000Y-97550000I0J50000D01*
G01*
X106450000Y-96650000D01*
G75*
G02*
X106500000Y-96600000I50000J0D01*
G01*
X107700000Y-96600000D01*
G75*
G02*
X107750000Y-96650000I0J-50000D01*
G01*
X107750000Y-97550000D01*
G75*
G02*
X107700000Y-97600000I-50000J0D01*
G01*
G37*
G36*
G01*
X107700000Y-100900000D02*
X106500000Y-100900000D01*
G75*
G02*
X106450000Y-100850000I0J50000D01*
G01*
X106450000Y-99950000D01*
G75*
G02*
X106500000Y-99900000I50000J0D01*
G01*
X107700000Y-99900000D01*
G75*
G02*
X107750000Y-99950000I0J-50000D01*
G01*
X107750000Y-100850000D01*
G75*
G02*
X107700000Y-100900000I-50000J0D01*
G01*
G37*
G36*
G01*
X107700000Y-78600000D02*
X106500000Y-78600000D01*
G75*
G02*
X106450000Y-78550000I0J50000D01*
G01*
X106450000Y-77650000D01*
G75*
G02*
X106500000Y-77600000I50000J0D01*
G01*
X107700000Y-77600000D01*
G75*
G02*
X107750000Y-77650000I0J-50000D01*
G01*
X107750000Y-78550000D01*
G75*
G02*
X107700000Y-78600000I-50000J0D01*
G01*
G37*
G36*
G01*
X107700000Y-81900000D02*
X106500000Y-81900000D01*
G75*
G02*
X106450000Y-81850000I0J50000D01*
G01*
X106450000Y-80950000D01*
G75*
G02*
X106500000Y-80900000I50000J0D01*
G01*
X107700000Y-80900000D01*
G75*
G02*
X107750000Y-80950000I0J-50000D01*
G01*
X107750000Y-81850000D01*
G75*
G02*
X107700000Y-81900000I-50000J0D01*
G01*
G37*
G36*
G01*
X107700000Y-59600000D02*
X106500000Y-59600000D01*
G75*
G02*
X106450000Y-59550000I0J50000D01*
G01*
X106450000Y-58650000D01*
G75*
G02*
X106500000Y-58600000I50000J0D01*
G01*
X107700000Y-58600000D01*
G75*
G02*
X107750000Y-58650000I0J-50000D01*
G01*
X107750000Y-59550000D01*
G75*
G02*
X107700000Y-59600000I-50000J0D01*
G01*
G37*
G36*
G01*
X107700000Y-62900000D02*
X106500000Y-62900000D01*
G75*
G02*
X106450000Y-62850000I0J50000D01*
G01*
X106450000Y-61950000D01*
G75*
G02*
X106500000Y-61900000I50000J0D01*
G01*
X107700000Y-61900000D01*
G75*
G02*
X107750000Y-61950000I0J-50000D01*
G01*
X107750000Y-62850000D01*
G75*
G02*
X107700000Y-62900000I-50000J0D01*
G01*
G37*
G36*
G01*
X107700000Y-40600000D02*
X106500000Y-40600000D01*
G75*
G02*
X106450000Y-40550000I0J50000D01*
G01*
X106450000Y-39650000D01*
G75*
G02*
X106500000Y-39600000I50000J0D01*
G01*
X107700000Y-39600000D01*
G75*
G02*
X107750000Y-39650000I0J-50000D01*
G01*
X107750000Y-40550000D01*
G75*
G02*
X107700000Y-40600000I-50000J0D01*
G01*
G37*
G36*
G01*
X107700000Y-43900000D02*
X106500000Y-43900000D01*
G75*
G02*
X106450000Y-43850000I0J50000D01*
G01*
X106450000Y-42950000D01*
G75*
G02*
X106500000Y-42900000I50000J0D01*
G01*
X107700000Y-42900000D01*
G75*
G02*
X107750000Y-42950000I0J-50000D01*
G01*
X107750000Y-43850000D01*
G75*
G02*
X107700000Y-43900000I-50000J0D01*
G01*
G37*
G36*
G01*
X126700000Y-97600000D02*
X125500000Y-97600000D01*
G75*
G02*
X125450000Y-97550000I0J50000D01*
G01*
X125450000Y-96650000D01*
G75*
G02*
X125500000Y-96600000I50000J0D01*
G01*
X126700000Y-96600000D01*
G75*
G02*
X126750000Y-96650000I0J-50000D01*
G01*
X126750000Y-97550000D01*
G75*
G02*
X126700000Y-97600000I-50000J0D01*
G01*
G37*
G36*
G01*
X126700000Y-100900000D02*
X125500000Y-100900000D01*
G75*
G02*
X125450000Y-100850000I0J50000D01*
G01*
X125450000Y-99950000D01*
G75*
G02*
X125500000Y-99900000I50000J0D01*
G01*
X126700000Y-99900000D01*
G75*
G02*
X126750000Y-99950000I0J-50000D01*
G01*
X126750000Y-100850000D01*
G75*
G02*
X126700000Y-100900000I-50000J0D01*
G01*
G37*
G36*
G01*
X126700000Y-78600000D02*
X125500000Y-78600000D01*
G75*
G02*
X125450000Y-78550000I0J50000D01*
G01*
X125450000Y-77650000D01*
G75*
G02*
X125500000Y-77600000I50000J0D01*
G01*
X126700000Y-77600000D01*
G75*
G02*
X126750000Y-77650000I0J-50000D01*
G01*
X126750000Y-78550000D01*
G75*
G02*
X126700000Y-78600000I-50000J0D01*
G01*
G37*
G36*
G01*
X126700000Y-81900000D02*
X125500000Y-81900000D01*
G75*
G02*
X125450000Y-81850000I0J50000D01*
G01*
X125450000Y-80950000D01*
G75*
G02*
X125500000Y-80900000I50000J0D01*
G01*
X126700000Y-80900000D01*
G75*
G02*
X126750000Y-80950000I0J-50000D01*
G01*
X126750000Y-81850000D01*
G75*
G02*
X126700000Y-81900000I-50000J0D01*
G01*
G37*
G36*
G01*
X126700000Y-59600000D02*
X125500000Y-59600000D01*
G75*
G02*
X125450000Y-59550000I0J50000D01*
G01*
X125450000Y-58650000D01*
G75*
G02*
X125500000Y-58600000I50000J0D01*
G01*
X126700000Y-58600000D01*
G75*
G02*
X126750000Y-58650000I0J-50000D01*
G01*
X126750000Y-59550000D01*
G75*
G02*
X126700000Y-59600000I-50000J0D01*
G01*
G37*
G36*
G01*
X126700000Y-62900000D02*
X125500000Y-62900000D01*
G75*
G02*
X125450000Y-62850000I0J50000D01*
G01*
X125450000Y-61950000D01*
G75*
G02*
X125500000Y-61900000I50000J0D01*
G01*
X126700000Y-61900000D01*
G75*
G02*
X126750000Y-61950000I0J-50000D01*
G01*
X126750000Y-62850000D01*
G75*
G02*
X126700000Y-62900000I-50000J0D01*
G01*
G37*
G36*
G01*
X126700000Y-40600000D02*
X125500000Y-40600000D01*
G75*
G02*
X125450000Y-40550000I0J50000D01*
G01*
X125450000Y-39650000D01*
G75*
G02*
X125500000Y-39600000I50000J0D01*
G01*
X126700000Y-39600000D01*
G75*
G02*
X126750000Y-39650000I0J-50000D01*
G01*
X126750000Y-40550000D01*
G75*
G02*
X126700000Y-40600000I-50000J0D01*
G01*
G37*
G36*
G01*
X126700000Y-43900000D02*
X125500000Y-43900000D01*
G75*
G02*
X125450000Y-43850000I0J50000D01*
G01*
X125450000Y-42950000D01*
G75*
G02*
X125500000Y-42900000I50000J0D01*
G01*
X126700000Y-42900000D01*
G75*
G02*
X126750000Y-42950000I0J-50000D01*
G01*
X126750000Y-43850000D01*
G75*
G02*
X126700000Y-43900000I-50000J0D01*
G01*
G37*
G36*
G01*
X145700000Y-97600000D02*
X144500000Y-97600000D01*
G75*
G02*
X144450000Y-97550000I0J50000D01*
G01*
X144450000Y-96650000D01*
G75*
G02*
X144500000Y-96600000I50000J0D01*
G01*
X145700000Y-96600000D01*
G75*
G02*
X145750000Y-96650000I0J-50000D01*
G01*
X145750000Y-97550000D01*
G75*
G02*
X145700000Y-97600000I-50000J0D01*
G01*
G37*
G36*
G01*
X145700000Y-100900000D02*
X144500000Y-100900000D01*
G75*
G02*
X144450000Y-100850000I0J50000D01*
G01*
X144450000Y-99950000D01*
G75*
G02*
X144500000Y-99900000I50000J0D01*
G01*
X145700000Y-99900000D01*
G75*
G02*
X145750000Y-99950000I0J-50000D01*
G01*
X145750000Y-100850000D01*
G75*
G02*
X145700000Y-100900000I-50000J0D01*
G01*
G37*
G36*
G01*
X145700000Y-78600000D02*
X144500000Y-78600000D01*
G75*
G02*
X144450000Y-78550000I0J50000D01*
G01*
X144450000Y-77650000D01*
G75*
G02*
X144500000Y-77600000I50000J0D01*
G01*
X145700000Y-77600000D01*
G75*
G02*
X145750000Y-77650000I0J-50000D01*
G01*
X145750000Y-78550000D01*
G75*
G02*
X145700000Y-78600000I-50000J0D01*
G01*
G37*
G36*
G01*
X145700000Y-81900000D02*
X144500000Y-81900000D01*
G75*
G02*
X144450000Y-81850000I0J50000D01*
G01*
X144450000Y-80950000D01*
G75*
G02*
X144500000Y-80900000I50000J0D01*
G01*
X145700000Y-80900000D01*
G75*
G02*
X145750000Y-80950000I0J-50000D01*
G01*
X145750000Y-81850000D01*
G75*
G02*
X145700000Y-81900000I-50000J0D01*
G01*
G37*
G36*
G01*
X145700000Y-59600000D02*
X144500000Y-59600000D01*
G75*
G02*
X144450000Y-59550000I0J50000D01*
G01*
X144450000Y-58650000D01*
G75*
G02*
X144500000Y-58600000I50000J0D01*
G01*
X145700000Y-58600000D01*
G75*
G02*
X145750000Y-58650000I0J-50000D01*
G01*
X145750000Y-59550000D01*
G75*
G02*
X145700000Y-59600000I-50000J0D01*
G01*
G37*
G36*
G01*
X145700000Y-62900000D02*
X144500000Y-62900000D01*
G75*
G02*
X144450000Y-62850000I0J50000D01*
G01*
X144450000Y-61950000D01*
G75*
G02*
X144500000Y-61900000I50000J0D01*
G01*
X145700000Y-61900000D01*
G75*
G02*
X145750000Y-61950000I0J-50000D01*
G01*
X145750000Y-62850000D01*
G75*
G02*
X145700000Y-62900000I-50000J0D01*
G01*
G37*
G36*
G01*
X145700000Y-40600000D02*
X144500000Y-40600000D01*
G75*
G02*
X144450000Y-40550000I0J50000D01*
G01*
X144450000Y-39650000D01*
G75*
G02*
X144500000Y-39600000I50000J0D01*
G01*
X145700000Y-39600000D01*
G75*
G02*
X145750000Y-39650000I0J-50000D01*
G01*
X145750000Y-40550000D01*
G75*
G02*
X145700000Y-40600000I-50000J0D01*
G01*
G37*
G36*
G01*
X145700000Y-43900000D02*
X144500000Y-43900000D01*
G75*
G02*
X144450000Y-43850000I0J50000D01*
G01*
X144450000Y-42950000D01*
G75*
G02*
X144500000Y-42900000I50000J0D01*
G01*
X145700000Y-42900000D01*
G75*
G02*
X145750000Y-42950000I0J-50000D01*
G01*
X145750000Y-43850000D01*
G75*
G02*
X145700000Y-43900000I-50000J0D01*
G01*
G37*
G36*
G01*
X164700000Y-97600000D02*
X163500000Y-97600000D01*
G75*
G02*
X163450000Y-97550000I0J50000D01*
G01*
X163450000Y-96650000D01*
G75*
G02*
X163500000Y-96600000I50000J0D01*
G01*
X164700000Y-96600000D01*
G75*
G02*
X164750000Y-96650000I0J-50000D01*
G01*
X164750000Y-97550000D01*
G75*
G02*
X164700000Y-97600000I-50000J0D01*
G01*
G37*
G36*
G01*
X164700000Y-100900000D02*
X163500000Y-100900000D01*
G75*
G02*
X163450000Y-100850000I0J50000D01*
G01*
X163450000Y-99950000D01*
G75*
G02*
X163500000Y-99900000I50000J0D01*
G01*
X164700000Y-99900000D01*
G75*
G02*
X164750000Y-99950000I0J-50000D01*
G01*
X164750000Y-100850000D01*
G75*
G02*
X164700000Y-100900000I-50000J0D01*
G01*
G37*
G36*
G01*
X164700000Y-78600000D02*
X163500000Y-78600000D01*
G75*
G02*
X163450000Y-78550000I0J50000D01*
G01*
X163450000Y-77650000D01*
G75*
G02*
X163500000Y-77600000I50000J0D01*
G01*
X164700000Y-77600000D01*
G75*
G02*
X164750000Y-77650000I0J-50000D01*
G01*
X164750000Y-78550000D01*
G75*
G02*
X164700000Y-78600000I-50000J0D01*
G01*
G37*
G36*
G01*
X164700000Y-81900000D02*
X163500000Y-81900000D01*
G75*
G02*
X163450000Y-81850000I0J50000D01*
G01*
X163450000Y-80950000D01*
G75*
G02*
X163500000Y-80900000I50000J0D01*
G01*
X164700000Y-80900000D01*
G75*
G02*
X164750000Y-80950000I0J-50000D01*
G01*
X164750000Y-81850000D01*
G75*
G02*
X164700000Y-81900000I-50000J0D01*
G01*
G37*
G36*
G01*
X164700000Y-59600000D02*
X163500000Y-59600000D01*
G75*
G02*
X163450000Y-59550000I0J50000D01*
G01*
X163450000Y-58650000D01*
G75*
G02*
X163500000Y-58600000I50000J0D01*
G01*
X164700000Y-58600000D01*
G75*
G02*
X164750000Y-58650000I0J-50000D01*
G01*
X164750000Y-59550000D01*
G75*
G02*
X164700000Y-59600000I-50000J0D01*
G01*
G37*
G36*
G01*
X164700000Y-62900000D02*
X163500000Y-62900000D01*
G75*
G02*
X163450000Y-62850000I0J50000D01*
G01*
X163450000Y-61950000D01*
G75*
G02*
X163500000Y-61900000I50000J0D01*
G01*
X164700000Y-61900000D01*
G75*
G02*
X164750000Y-61950000I0J-50000D01*
G01*
X164750000Y-62850000D01*
G75*
G02*
X164700000Y-62900000I-50000J0D01*
G01*
G37*
G36*
G01*
X164700000Y-40600000D02*
X163500000Y-40600000D01*
G75*
G02*
X163450000Y-40550000I0J50000D01*
G01*
X163450000Y-39650000D01*
G75*
G02*
X163500000Y-39600000I50000J0D01*
G01*
X164700000Y-39600000D01*
G75*
G02*
X164750000Y-39650000I0J-50000D01*
G01*
X164750000Y-40550000D01*
G75*
G02*
X164700000Y-40600000I-50000J0D01*
G01*
G37*
G36*
G01*
X164700000Y-43900000D02*
X163500000Y-43900000D01*
G75*
G02*
X163450000Y-43850000I0J50000D01*
G01*
X163450000Y-42950000D01*
G75*
G02*
X163500000Y-42900000I50000J0D01*
G01*
X164700000Y-42900000D01*
G75*
G02*
X164750000Y-42950000I0J-50000D01*
G01*
X164750000Y-43850000D01*
G75*
G02*
X164700000Y-43900000I-50000J0D01*
G01*
G37*
G36*
G01*
X183700000Y-97600000D02*
X182500000Y-97600000D01*
G75*
G02*
X182450000Y-97550000I0J50000D01*
G01*
X182450000Y-96650000D01*
G75*
G02*
X182500000Y-96600000I50000J0D01*
G01*
X183700000Y-96600000D01*
G75*
G02*
X183750000Y-96650000I0J-50000D01*
G01*
X183750000Y-97550000D01*
G75*
G02*
X183700000Y-97600000I-50000J0D01*
G01*
G37*
G36*
G01*
X183700000Y-100900000D02*
X182500000Y-100900000D01*
G75*
G02*
X182450000Y-100850000I0J50000D01*
G01*
X182450000Y-99950000D01*
G75*
G02*
X182500000Y-99900000I50000J0D01*
G01*
X183700000Y-99900000D01*
G75*
G02*
X183750000Y-99950000I0J-50000D01*
G01*
X183750000Y-100850000D01*
G75*
G02*
X183700000Y-100900000I-50000J0D01*
G01*
G37*
G36*
G01*
X183700000Y-78600000D02*
X182500000Y-78600000D01*
G75*
G02*
X182450000Y-78550000I0J50000D01*
G01*
X182450000Y-77650000D01*
G75*
G02*
X182500000Y-77600000I50000J0D01*
G01*
X183700000Y-77600000D01*
G75*
G02*
X183750000Y-77650000I0J-50000D01*
G01*
X183750000Y-78550000D01*
G75*
G02*
X183700000Y-78600000I-50000J0D01*
G01*
G37*
G36*
G01*
X183700000Y-81900000D02*
X182500000Y-81900000D01*
G75*
G02*
X182450000Y-81850000I0J50000D01*
G01*
X182450000Y-80950000D01*
G75*
G02*
X182500000Y-80900000I50000J0D01*
G01*
X183700000Y-80900000D01*
G75*
G02*
X183750000Y-80950000I0J-50000D01*
G01*
X183750000Y-81850000D01*
G75*
G02*
X183700000Y-81900000I-50000J0D01*
G01*
G37*
G36*
G01*
X183700000Y-59600000D02*
X182500000Y-59600000D01*
G75*
G02*
X182450000Y-59550000I0J50000D01*
G01*
X182450000Y-58650000D01*
G75*
G02*
X182500000Y-58600000I50000J0D01*
G01*
X183700000Y-58600000D01*
G75*
G02*
X183750000Y-58650000I0J-50000D01*
G01*
X183750000Y-59550000D01*
G75*
G02*
X183700000Y-59600000I-50000J0D01*
G01*
G37*
G36*
G01*
X183700000Y-62900000D02*
X182500000Y-62900000D01*
G75*
G02*
X182450000Y-62850000I0J50000D01*
G01*
X182450000Y-61950000D01*
G75*
G02*
X182500000Y-61900000I50000J0D01*
G01*
X183700000Y-61900000D01*
G75*
G02*
X183750000Y-61950000I0J-50000D01*
G01*
X183750000Y-62850000D01*
G75*
G02*
X183700000Y-62900000I-50000J0D01*
G01*
G37*
G36*
G01*
X183700000Y-40600000D02*
X182500000Y-40600000D01*
G75*
G02*
X182450000Y-40550000I0J50000D01*
G01*
X182450000Y-39650000D01*
G75*
G02*
X182500000Y-39600000I50000J0D01*
G01*
X183700000Y-39600000D01*
G75*
G02*
X183750000Y-39650000I0J-50000D01*
G01*
X183750000Y-40550000D01*
G75*
G02*
X183700000Y-40600000I-50000J0D01*
G01*
G37*
G36*
G01*
X183700000Y-43900000D02*
X182500000Y-43900000D01*
G75*
G02*
X182450000Y-43850000I0J50000D01*
G01*
X182450000Y-42950000D01*
G75*
G02*
X182500000Y-42900000I50000J0D01*
G01*
X183700000Y-42900000D01*
G75*
G02*
X183750000Y-42950000I0J-50000D01*
G01*
X183750000Y-43850000D01*
G75*
G02*
X183700000Y-43900000I-50000J0D01*
G01*
G37*
G36*
G01*
X202700000Y-97600000D02*
X201500000Y-97600000D01*
G75*
G02*
X201450000Y-97550000I0J50000D01*
G01*
X201450000Y-96650000D01*
G75*
G02*
X201500000Y-96600000I50000J0D01*
G01*
X202700000Y-96600000D01*
G75*
G02*
X202750000Y-96650000I0J-50000D01*
G01*
X202750000Y-97550000D01*
G75*
G02*
X202700000Y-97600000I-50000J0D01*
G01*
G37*
G36*
G01*
X202700000Y-100900000D02*
X201500000Y-100900000D01*
G75*
G02*
X201450000Y-100850000I0J50000D01*
G01*
X201450000Y-99950000D01*
G75*
G02*
X201500000Y-99900000I50000J0D01*
G01*
X202700000Y-99900000D01*
G75*
G02*
X202750000Y-99950000I0J-50000D01*
G01*
X202750000Y-100850000D01*
G75*
G02*
X202700000Y-100900000I-50000J0D01*
G01*
G37*
G36*
G01*
X202700000Y-78600000D02*
X201500000Y-78600000D01*
G75*
G02*
X201450000Y-78550000I0J50000D01*
G01*
X201450000Y-77650000D01*
G75*
G02*
X201500000Y-77600000I50000J0D01*
G01*
X202700000Y-77600000D01*
G75*
G02*
X202750000Y-77650000I0J-50000D01*
G01*
X202750000Y-78550000D01*
G75*
G02*
X202700000Y-78600000I-50000J0D01*
G01*
G37*
G36*
G01*
X202700000Y-81900000D02*
X201500000Y-81900000D01*
G75*
G02*
X201450000Y-81850000I0J50000D01*
G01*
X201450000Y-80950000D01*
G75*
G02*
X201500000Y-80900000I50000J0D01*
G01*
X202700000Y-80900000D01*
G75*
G02*
X202750000Y-80950000I0J-50000D01*
G01*
X202750000Y-81850000D01*
G75*
G02*
X202700000Y-81900000I-50000J0D01*
G01*
G37*
G36*
G01*
X202700000Y-59600000D02*
X201500000Y-59600000D01*
G75*
G02*
X201450000Y-59550000I0J50000D01*
G01*
X201450000Y-58650000D01*
G75*
G02*
X201500000Y-58600000I50000J0D01*
G01*
X202700000Y-58600000D01*
G75*
G02*
X202750000Y-58650000I0J-50000D01*
G01*
X202750000Y-59550000D01*
G75*
G02*
X202700000Y-59600000I-50000J0D01*
G01*
G37*
G36*
G01*
X202700000Y-62900000D02*
X201500000Y-62900000D01*
G75*
G02*
X201450000Y-62850000I0J50000D01*
G01*
X201450000Y-61950000D01*
G75*
G02*
X201500000Y-61900000I50000J0D01*
G01*
X202700000Y-61900000D01*
G75*
G02*
X202750000Y-61950000I0J-50000D01*
G01*
X202750000Y-62850000D01*
G75*
G02*
X202700000Y-62900000I-50000J0D01*
G01*
G37*
G36*
G01*
X202700000Y-40600000D02*
X201500000Y-40600000D01*
G75*
G02*
X201450000Y-40550000I0J50000D01*
G01*
X201450000Y-39650000D01*
G75*
G02*
X201500000Y-39600000I50000J0D01*
G01*
X202700000Y-39600000D01*
G75*
G02*
X202750000Y-39650000I0J-50000D01*
G01*
X202750000Y-40550000D01*
G75*
G02*
X202700000Y-40600000I-50000J0D01*
G01*
G37*
G36*
G01*
X202700000Y-43900000D02*
X201500000Y-43900000D01*
G75*
G02*
X201450000Y-43850000I0J50000D01*
G01*
X201450000Y-42950000D01*
G75*
G02*
X201500000Y-42900000I50000J0D01*
G01*
X202700000Y-42900000D01*
G75*
G02*
X202750000Y-42950000I0J-50000D01*
G01*
X202750000Y-43850000D01*
G75*
G02*
X202700000Y-43900000I-50000J0D01*
G01*
G37*
D14*
X92600000Y-49620000D03*
X92600000Y-34380000D03*
X95140000Y-49620000D03*
X95140000Y-34380000D03*
X97680000Y-49620000D03*
X97680000Y-34380000D03*
X100220000Y-49620000D03*
X100220000Y-34380000D03*
X102760000Y-49620000D03*
X102760000Y-34380000D03*
X105300000Y-49620000D03*
X105300000Y-34380000D03*
X107840000Y-49620000D03*
X107840000Y-34380000D03*
X110380000Y-49620000D03*
X110380000Y-34380000D03*
X112920000Y-49620000D03*
X112920000Y-34380000D03*
X115460000Y-49620000D03*
X115460000Y-34380000D03*
X118000000Y-49620000D03*
X118000000Y-34380000D03*
X120540000Y-49620000D03*
X120540000Y-34380000D03*
G36*
G01*
X91785000Y-75700000D02*
X90985000Y-75700000D01*
G75*
G02*
X90935000Y-75650000I0J50000D01*
G01*
X90935000Y-74650000D01*
G75*
G02*
X90985000Y-74600000I50000J0D01*
G01*
X91785000Y-74600000D01*
G75*
G02*
X91835000Y-74650000I0J-50000D01*
G01*
X91835000Y-75650000D01*
G75*
G02*
X91785000Y-75700000I-50000J0D01*
G01*
G37*
G36*
G01*
X89575000Y-75700000D02*
X88775000Y-75700000D01*
G75*
G02*
X88725000Y-75650000I0J50000D01*
G01*
X88725000Y-74650000D01*
G75*
G02*
X88775000Y-74600000I50000J0D01*
G01*
X89575000Y-74600000D01*
G75*
G02*
X89625000Y-74650000I0J-50000D01*
G01*
X89625000Y-75650000D01*
G75*
G02*
X89575000Y-75700000I-50000J0D01*
G01*
G37*
G36*
G01*
X91785000Y-68400000D02*
X90985000Y-68400000D01*
G75*
G02*
X90935000Y-68350000I0J50000D01*
G01*
X90935000Y-67350000D01*
G75*
G02*
X90985000Y-67300000I50000J0D01*
G01*
X91785000Y-67300000D01*
G75*
G02*
X91835000Y-67350000I0J-50000D01*
G01*
X91835000Y-68350000D01*
G75*
G02*
X91785000Y-68400000I-50000J0D01*
G01*
G37*
G36*
G01*
X89575000Y-68400000D02*
X88775000Y-68400000D01*
G75*
G02*
X88725000Y-68350000I0J50000D01*
G01*
X88725000Y-67350000D01*
G75*
G02*
X88775000Y-67300000I50000J0D01*
G01*
X89575000Y-67300000D01*
G75*
G02*
X89625000Y-67350000I0J-50000D01*
G01*
X89625000Y-68350000D01*
G75*
G02*
X89575000Y-68400000I-50000J0D01*
G01*
G37*
G36*
G01*
X92785000Y-74150000D02*
X91285000Y-74150000D01*
G75*
G02*
X91235000Y-74100000I0J50000D01*
G01*
X91235000Y-73400000D01*
G75*
G02*
X91285000Y-73350000I50000J0D01*
G01*
X92785000Y-73350000D01*
G75*
G02*
X92835000Y-73400000I0J-50000D01*
G01*
X92835000Y-74100000D01*
G75*
G02*
X92785000Y-74150000I-50000J0D01*
G01*
G37*
G36*
G01*
X92785000Y-71150000D02*
X91285000Y-71150000D01*
G75*
G02*
X91235000Y-71100000I0J50000D01*
G01*
X91235000Y-70400000D01*
G75*
G02*
X91285000Y-70350000I50000J0D01*
G01*
X92785000Y-70350000D01*
G75*
G02*
X92835000Y-70400000I0J-50000D01*
G01*
X92835000Y-71100000D01*
G75*
G02*
X92785000Y-71150000I-50000J0D01*
G01*
G37*
G36*
G01*
X92785000Y-69650000D02*
X91285000Y-69650000D01*
G75*
G02*
X91235000Y-69600000I0J50000D01*
G01*
X91235000Y-68900000D01*
G75*
G02*
X91285000Y-68850000I50000J0D01*
G01*
X92785000Y-68850000D01*
G75*
G02*
X92835000Y-68900000I0J-50000D01*
G01*
X92835000Y-69600000D01*
G75*
G02*
X92785000Y-69650000I-50000J0D01*
G01*
G37*
D15*
X90275000Y-73000000D03*
X90275000Y-70000000D03*
D16*
X128500000Y-32375000D03*
X128500000Y-35125000D03*
G36*
G01*
X126700000Y-32400000D02*
X126700000Y-33400000D01*
G75*
G02*
X126650000Y-33450000I-50000J0D01*
G01*
X125100000Y-33450000D01*
G75*
G02*
X125050000Y-33400000I0J50000D01*
G01*
X125050000Y-32400000D01*
G75*
G02*
X125100000Y-32350000I50000J0D01*
G01*
X126650000Y-32350000D01*
G75*
G02*
X126700000Y-32400000I0J-50000D01*
G01*
G37*
G36*
G01*
X126700000Y-34100000D02*
X126700000Y-35100000D01*
G75*
G02*
X126650000Y-35150000I-50000J0D01*
G01*
X125100000Y-35150000D01*
G75*
G02*
X125050000Y-35100000I0J50000D01*
G01*
X125050000Y-34100000D01*
G75*
G02*
X125100000Y-34050000I50000J0D01*
G01*
X126650000Y-34050000D01*
G75*
G02*
X126700000Y-34100000I0J-50000D01*
G01*
G37*
G36*
G01*
X131950000Y-32400000D02*
X131950000Y-33400000D01*
G75*
G02*
X131900000Y-33450000I-50000J0D01*
G01*
X130350000Y-33450000D01*
G75*
G02*
X130300000Y-33400000I0J50000D01*
G01*
X130300000Y-32400000D01*
G75*
G02*
X130350000Y-32350000I50000J0D01*
G01*
X131900000Y-32350000D01*
G75*
G02*
X131950000Y-32400000I0J-50000D01*
G01*
G37*
G36*
G01*
X131950000Y-34100000D02*
X131950000Y-35100000D01*
G75*
G02*
X131900000Y-35150000I-50000J0D01*
G01*
X130350000Y-35150000D01*
G75*
G02*
X130300000Y-35100000I0J50000D01*
G01*
X130300000Y-34100000D01*
G75*
G02*
X130350000Y-34050000I50000J0D01*
G01*
X131900000Y-34050000D01*
G75*
G02*
X131950000Y-34100000I0J-50000D01*
G01*
G37*
G36*
G01*
X110165000Y-70150000D02*
X108835000Y-70150000D01*
G75*
G02*
X108575000Y-69890000I0J260000D01*
G01*
X108575000Y-69110000D01*
G75*
G02*
X108835000Y-68850000I260000J0D01*
G01*
X110165000Y-68850000D01*
G75*
G02*
X110425000Y-69110000I0J-260000D01*
G01*
X110425000Y-69890000D01*
G75*
G02*
X110165000Y-70150000I-260000J0D01*
G01*
G37*
D17*
X109500000Y-71500000D03*
M02*
