<svg width="120.9mm" height="82.9mm" viewBox="0 0 120.9 82.9" xmlns="http://www.w3.org/2000/svg"><g id="svgGroup" stroke-linecap="round" fill-rule="evenodd" font-size="9pt" stroke="#000" stroke-width="0.25mm" fill="none" style="stroke:#000;stroke-width:0.25mm;fill:none"><path d="M 1.2 79.45 L 1.2 3.45 A 2.25 2.25 0 0 1 3.45 1.2 L 117.45 1.2 A 2.25 2.25 0 0 1 119.7 3.45 L 119.7 79.45 A 2.25 2.25 0 0 1 117.45 81.7 L 3.45 81.7 A 2.25 2.25 0 0 1 1.2 79.45 Z M 1.45 79.45 L 1.45 3.45 A 2 2 0 0 1 3.45 1.45 L 117.45 1.45 A 2 2 0 0 1 119.45 3.45 L 119.45 79.45 A 2 2 0 0 1 117.45 81.45 L 3.45 81.45 A 2 2 0 0 1 1.45 79.45 Z M 4.95 78.95 L 20.95 78.95 A 1 1 0 0 0 21.95 77.95 L 21.95 61.95 A 1 1 0 0 0 20.95 60.95 L 4.95 60.95 A 1 1 0 0 0 3.95 61.95 L 3.95 77.95 A 1 1 0 0 0 4.95 78.95 Z M 4.95 59.95 L 20.95 59.95 A 1 1 0 0 0 21.95 58.95 L 21.95 42.95 A 1 1 0 0 0 20.95 41.95 L 4.95 41.95 A 1 1 0 0 0 3.95 42.95 L 3.95 58.95 A 1 1 0 0 0 4.95 59.95 Z M 4.95 40.95 L 20.95 40.95 A 1 1 0 0 0 21.95 39.95 L 21.95 23.95 A 1 1 0 0 0 20.95 22.95 L 4.95 22.95 A 1 1 0 0 0 3.95 23.95 L 3.95 39.95 A 1 1 0 0 0 4.95 40.95 Z M 4.95 21.95 L 20.95 21.95 A 1 1 0 0 0 21.95 20.95 L 21.95 4.95 A 1 1 0 0 0 20.95 3.95 L 4.95 3.95 A 1 1 0 0 0 3.95 4.95 L 3.95 20.95 A 1 1 0 0 0 4.95 21.95 Z M 23.95 78.95 L 39.95 78.95 A 1 1 0 0 0 40.95 77.95 L 40.95 61.95 A 1 1 0 0 0 39.95 60.95 L 23.95 60.95 A 1 1 0 0 0 22.95 61.95 L 22.95 77.95 A 1 1 0 0 0 23.95 78.95 Z M 23.95 59.95 L 39.95 59.95 A 1 1 0 0 0 40.95 58.95 L 40.95 42.95 A 1 1 0 0 0 39.95 41.95 L 23.95 41.95 A 1 1 0 0 0 22.95 42.95 L 22.95 58.95 A 1 1 0 0 0 23.95 59.95 Z M 23.95 40.95 L 39.95 40.95 A 1 1 0 0 0 40.95 39.95 L 40.95 23.95 A 1 1 0 0 0 39.95 22.95 L 23.95 22.95 A 1 1 0 0 0 22.95 23.95 L 22.95 39.95 A 1 1 0 0 0 23.95 40.95 Z M 23.95 21.95 L 39.95 21.95 A 1 1 0 0 0 40.95 20.95 L 40.95 4.95 A 1 1 0 0 0 39.95 3.95 L 23.95 3.95 A 1 1 0 0 0 22.95 4.95 L 22.95 20.95 A 1 1 0 0 0 23.95 21.95 Z M 42.95 78.95 L 58.95 78.95 A 1 1 0 0 0 59.95 77.95 L 59.95 61.95 A 1 1 0 0 0 58.95 60.95 L 42.95 60.95 A 1 1 0 0 0 41.95 61.95 L 41.95 77.95 A 1 1 0 0 0 42.95 78.95 Z M 42.95 59.95 L 58.95 59.95 A 1 1 0 0 0 59.95 58.95 L 59.95 42.95 A 1 1 0 0 0 58.95 41.95 L 42.95 41.95 A 1 1 0 0 0 41.95 42.95 L 41.95 58.95 A 1 1 0 0 0 42.95 59.95 Z M 42.95 40.95 L 58.95 40.95 A 1 1 0 0 0 59.95 39.95 L 59.95 23.95 A 1 1 0 0 0 58.95 22.95 L 42.95 22.95 A 1 1 0 0 0 41.95 23.95 L 41.95 39.95 A 1 1 0 0 0 42.95 40.95 Z M 42.95 21.95 L 58.95 21.95 A 1 1 0 0 0 59.95 20.95 L 59.95 4.95 A 1 1 0 0 0 58.95 3.95 L 42.95 3.95 A 1 1 0 0 0 41.95 4.95 L 41.95 20.95 A 1 1 0 0 0 42.95 21.95 Z M 61.95 78.95 L 77.95 78.95 A 1 1 0 0 0 78.95 77.95 L 78.95 61.95 A 1 1 0 0 0 77.95 60.95 L 61.95 60.95 A 1 1 0 0 0 60.95 61.95 L 60.95 77.95 A 1 1 0 0 0 61.95 78.95 Z M 61.95 59.95 L 77.95 59.95 A 1 1 0 0 0 78.95 58.95 L 78.95 42.95 A 1 1 0 0 0 77.95 41.95 L 61.95 41.95 A 1 1 0 0 0 60.95 42.95 L 60.95 58.95 A 1 1 0 0 0 61.95 59.95 Z M 61.95 40.95 L 77.95 40.95 A 1 1 0 0 0 78.95 39.95 L 78.95 23.95 A 1 1 0 0 0 77.95 22.95 L 61.95 22.95 A 1 1 0 0 0 60.95 23.95 L 60.95 39.95 A 1 1 0 0 0 61.95 40.95 Z M 61.95 21.95 L 77.95 21.95 A 1 1 0 0 0 78.95 20.95 L 78.95 4.95 A 1 1 0 0 0 77.95 3.95 L 61.95 3.95 A 1 1 0 0 0 60.95 4.95 L 60.95 20.95 A 1 1 0 0 0 61.95 21.95 Z M 80.95 78.95 L 96.95 78.95 A 1 1 0 0 0 97.95 77.95 L 97.95 61.95 A 1 1 0 0 0 96.95 60.95 L 80.95 60.95 A 1 1 0 0 0 79.95 61.95 L 79.95 77.95 A 1 1 0 0 0 80.95 78.95 Z M 80.95 59.95 L 96.95 59.95 A 1 1 0 0 0 97.95 58.95 L 97.95 42.95 A 1 1 0 0 0 96.95 41.95 L 80.95 41.95 A 1 1 0 0 0 79.95 42.95 L 79.95 58.95 A 1 1 0 0 0 80.95 59.95 Z M 80.95 40.95 L 96.95 40.95 A 1 1 0 0 0 97.95 39.95 L 97.95 23.95 A 1 1 0 0 0 96.95 22.95 L 80.95 22.95 A 1 1 0 0 0 79.95 23.95 L 79.95 39.95 A 1 1 0 0 0 80.95 40.95 Z M 80.95 21.95 L 96.95 21.95 A 1 1 0 0 0 97.95 20.95 L 97.95 4.95 A 1 1 0 0 0 96.95 3.95 L 80.95 3.95 A 1 1 0 0 0 79.95 4.95 L 79.95 20.95 A 1 1 0 0 0 80.95 21.95 Z M 99.95 78.95 L 115.95 78.95 A 1 1 0 0 0 116.95 77.95 L 116.95 61.95 A 1 1 0 0 0 115.95 60.95 L 99.95 60.95 A 1 1 0 0 0 98.95 61.95 L 98.95 77.95 A 1 1 0 0 0 99.95 78.95 Z M 99.95 59.95 L 115.95 59.95 A 1 1 0 0 0 116.95 58.95 L 116.95 42.95 A 1 1 0 0 0 115.95 41.95 L 99.95 41.95 A 1 1 0 0 0 98.95 42.95 L 98.95 58.95 A 1 1 0 0 0 99.95 59.95 Z M 99.95 40.95 L 115.95 40.95 A 1 1 0 0 0 116.95 39.95 L 116.95 23.95 A 1 1 0 0 0 115.95 22.95 L 99.95 22.95 A 1 1 0 0 0 98.95 23.95 L 98.95 39.95 A 1 1 0 0 0 99.95 40.95 Z M 99.95 21.95 L 115.95 21.95 A 1 1 0 0 0 116.95 20.95 L 116.95 4.95 A 1 1 0 0 0 115.95 3.95 L 99.95 3.95 A 1 1 0 0 0 98.95 4.95 L 98.95 20.95 A 1 1 0 0 0 99.95 21.95 Z M 5.95 76.95 L 19.95 76.95 L 19.95 62.95 L 5.95 62.95 L 5.95 76.95 Z M 5.95 57.95 L 19.95 57.95 L 19.95 43.95 L 5.95 43.95 L 5.95 57.95 Z M 5.95 38.95 L 19.95 38.95 L 19.95 24.95 L 5.95 24.95 L 5.95 38.95 Z M 5.95 19.95 L 19.95 19.95 L 19.95 5.95 L 5.95 5.95 L 5.95 19.95 Z M 24.95 76.95 L 38.95 76.95 L 38.95 62.95 L 24.95 62.95 L 24.95 76.95 Z M 24.95 57.95 L 38.95 57.95 L 38.95 43.95 L 24.95 43.95 L 24.95 57.95 Z M 24.95 38.95 L 38.95 38.95 L 38.95 24.95 L 24.95 24.95 L 24.95 38.95 Z M 24.95 19.95 L 38.95 19.95 L 38.95 5.95 L 24.95 5.95 L 24.95 19.95 Z M 43.95 76.95 L 57.95 76.95 L 57.95 62.95 L 43.95 62.95 L 43.95 76.95 Z M 43.95 57.95 L 57.95 57.95 L 57.95 43.95 L 43.95 43.95 L 43.95 57.95 Z M 43.95 38.95 L 57.95 38.95 L 57.95 24.95 L 43.95 24.95 L 43.95 38.95 Z M 43.95 19.95 L 57.95 19.95 L 57.95 5.95 L 43.95 5.95 L 43.95 19.95 Z M 62.95 76.95 L 76.95 76.95 L 76.95 62.95 L 62.95 62.95 L 62.95 76.95 Z M 62.95 57.95 L 76.95 57.95 L 76.95 43.95 L 62.95 43.95 L 62.95 57.95 Z M 62.95 38.95 L 76.95 38.95 L 76.95 24.95 L 62.95 24.95 L 62.95 38.95 Z M 62.95 19.95 L 76.95 19.95 L 76.95 5.95 L 62.95 5.95 L 62.95 19.95 Z M 81.95 76.95 L 95.95 76.95 L 95.95 62.95 L 81.95 62.95 L 81.95 76.95 Z M 81.95 57.95 L 95.95 57.95 L 95.95 43.95 L 81.95 43.95 L 81.95 57.95 Z M 81.95 38.95 L 95.95 38.95 L 95.95 24.95 L 81.95 24.95 L 81.95 38.95 Z M 81.95 19.95 L 95.95 19.95 L 95.95 5.95 L 81.95 5.95 L 81.95 19.95 Z M 100.95 76.95 L 114.95 76.95 L 114.95 62.95 L 100.95 62.95 L 100.95 76.95 Z M 100.95 57.95 L 114.95 57.95 L 114.95 43.95 L 100.95 43.95 L 100.95 57.95 Z M 100.95 38.95 L 114.95 38.95 L 114.95 24.95 L 100.95 24.95 L 100.95 38.95 Z M 100.95 19.95 L 114.95 19.95 L 114.95 5.95 L 100.95 5.95 L 100.95 19.95 Z M 3.45 3.45 m -3.45 0 a 3.45 3.45 0 0 0 6.9 0 a 3.45 3.45 0 0 0 -6.9 0 z M 117.45 3.45 m -3.45 0 a 3.45 3.45 0 0 0 6.9 0 a 3.45 3.45 0 0 0 -6.9 0 z M 117.45 79.45 m -3.45 0 a 3.45 3.45 0 0 0 6.9 0 a 3.45 3.45 0 0 0 -6.9 0 z M 3.45 79.45 m -3.45 0 a 3.45 3.45 0 0 0 6.9 0 a 3.45 3.45 0 0 0 -6.9 0 z M 41.45 22.45 m -2.05 0 a 2.05 2.05 0 0 1 4.1 0 a 2.05 2.05 0 0 1 -4.1 0 z M 98.45 22.45 m -2.05 0 a 2.05 2.05 0 0 1 4.1 0 a 2.05 2.05 0 0 1 -4.1 0 z M 98.45 60.45 m -2.05 0 a 2.05 2.05 0 0 1 4.1 0 a 2.05 2.05 0 0 1 -4.1 0 z M 22.45 60.45 m -2.05 0 a 2.05 2.05 0 0 1 4.1 0 a 2.05 2.05 0 0 1 -4.1 0 z M 60.45 41.45 m -2.05 0 a 2.05 2.05 0 0 1 4.1 0 a 2.05 2.05 0 0 1 -4.1 0 z M 41.45 22.45 m -1.1 0 a 1.1 1.1 0 0 1 2.2 0 a 1.1 1.1 0 0 1 -2.2 0 z M 98.45 22.45 m -1.1 0 a 1.1 1.1 0 0 1 2.2 0 a 1.1 1.1 0 0 1 -2.2 0 z M 98.45 60.45 m -1.1 0 a 1.1 1.1 0 0 1 2.2 0 a 1.1 1.1 0 0 1 -2.2 0 z M 22.45 60.45 m -1.1 0 a 1.1 1.1 0 0 1 2.2 0 a 1.1 1.1 0 0 1 -2.2 0 z M 60.45 41.45 m -1.1 0 a 1.1 1.1 0 0 1 2.2 0 a 1.1 1.1 0 0 1 -2.2 0 z M 0 79.45 0 3.45 M 3.45 0 117.45 0 M 120.9 79.45 120.9 3.45 M 3.45 82.9 117.45 82.9" vector-effect="non-scaling-stroke"/></g></svg>