0
SECTION
2
HEADER
9
$INSUNITS
70
4
0
ENDSEC
0
SECTION
2
TABLES
0
TABLE
2
LTYPE
0
LTYPE
72
65
70
64
2
CONTINUOUS
3
______
73
0
40
0
0
ENDTAB
0
TABLE
2
LAYER
0
ENDTAB
0
ENDSEC
0
SECTION
2
ENTITIES
0
LINE
8
0
10
88.5
20
-109.5
11
88.5
21
-33.5
0
ARC
8
0
10
90.5
20
-33.5
40
2
50
90
51
180
0
LINE
8
0
10
90.5
20
-31.5
11
204.5
21
-31.5
0
ARC
8
0
10
204.5
20
-33.5
40
2
50
360
51
90
0
LINE
8
0
10
206.5
20
-33.5
11
206.5
21
-109.5
0
ARC
8
0
10
204.5
20
-109.5
40
2
50
270
51
0
0
LINE
8
0
10
204.5
20
-111.5
11
90.5
21
-111.5
0
ARC
8
0
10
90.5
20
-109.5
40
2
50
180
51
270
0
LINE
8
0
10
92
20
-109
11
108
21
-109
0
LINE
8
0
10
109
20
-108
11
109
21
-92
0
LINE
8
0
10
108
20
-91
11
92
21
-91
0
LINE
8
0
10
91
20
-92
11
91
21
-108
0
LINE
8
0
10
92
20
-90
11
108
21
-90
0
LINE
8
0
10
109
20
-89
11
109
21
-73
0
LINE
8
0
10
108
20
-72
11
92
21
-72
0
LINE
8
0
10
91
20
-73
11
91
21
-89
0
LINE
8
0
10
92
20
-71
11
108
21
-71
0
LINE
8
0
10
109
20
-70
11
109
21
-54
0
LINE
8
0
10
108
20
-53
11
92
21
-53
0
LINE
8
0
10
91
20
-54
11
91
21
-70
0
LINE
8
0
10
92
20
-52
11
108
21
-52
0
LINE
8
0
10
109
20
-51
11
109
21
-35
0
LINE
8
0
10
108
20
-34
11
92
21
-34
0
LINE
8
0
10
91
20
-35
11
91
21
-51
0
LINE
8
0
10
111
20
-109
11
127
21
-109
0
LINE
8
0
10
128
20
-108
11
128
21
-92
0
LINE
8
0
10
127
20
-91
11
111
21
-91
0
LINE
8
0
10
110
20
-92
11
110
21
-108
0
LINE
8
0
10
111
20
-90
11
127
21
-90
0
LINE
8
0
10
128
20
-89
11
128
21
-73
0
LINE
8
0
10
127
20
-72
11
111
21
-72
0
LINE
8
0
10
110
20
-73
11
110
21
-89
0
LINE
8
0
10
111
20
-71
11
127
21
-71
0
LINE
8
0
10
128
20
-70
11
128
21
-54
0
LINE
8
0
10
127
20
-53
11
111
21
-53
0
LINE
8
0
10
110
20
-54
11
110
21
-70
0
LINE
8
0
10
111
20
-52
11
127
21
-52
0
LINE
8
0
10
128
20
-51
11
128
21
-35
0
LINE
8
0
10
127
20
-34
11
111
21
-34
0
LINE
8
0
10
110
20
-35
11
110
21
-51
0
LINE
8
0
10
130
20
-109
11
146
21
-109
0
LINE
8
0
10
147
20
-108
11
147
21
-92
0
LINE
8
0
10
146
20
-91
11
130
21
-91
0
LINE
8
0
10
129
20
-92
11
129
21
-108
0
LINE
8
0
10
130
20
-90
11
146
21
-90
0
LINE
8
0
10
147
20
-89
11
147
21
-73
0
LINE
8
0
10
146
20
-72
11
130
21
-72
0
LINE
8
0
10
129
20
-73
11
129
21
-89
0
LINE
8
0
10
130
20
-71
11
146
21
-71
0
LINE
8
0
10
147
20
-70
11
147
21
-54
0
LINE
8
0
10
146
20
-53
11
130
21
-53
0
LINE
8
0
10
129
20
-54
11
129
21
-70
0
LINE
8
0
10
130
20
-52
11
146
21
-52
0
LINE
8
0
10
147
20
-51
11
147
21
-35
0
LINE
8
0
10
146
20
-34
11
130
21
-34
0
LINE
8
0
10
129
20
-35
11
129
21
-51
0
LINE
8
0
10
149
20
-109
11
165
21
-109
0
LINE
8
0
10
166
20
-108
11
166
21
-92
0
LINE
8
0
10
165
20
-91
11
149
21
-91
0
LINE
8
0
10
148
20
-92
11
148
21
-108
0
LINE
8
0
10
149
20
-90
11
165
21
-90
0
LINE
8
0
10
166
20
-89
11
166
21
-73
0
LINE
8
0
10
165
20
-72
11
149
21
-72
0
LINE
8
0
10
148
20
-73
11
148
21
-89
0
LINE
8
0
10
149
20
-71
11
165
21
-71
0
LINE
8
0
10
166
20
-70
11
166
21
-54
0
LINE
8
0
10
165
20
-53
11
149
21
-53
0
LINE
8
0
10
148
20
-54
11
148
21
-70
0
LINE
8
0
10
149
20
-52
11
165
21
-52
0
LINE
8
0
10
166
20
-51
11
166
21
-35
0
LINE
8
0
10
165
20
-34
11
149
21
-34
0
LINE
8
0
10
148
20
-35
11
148
21
-51
0
LINE
8
0
10
168
20
-109
11
184
21
-109
0
LINE
8
0
10
185
20
-108
11
185
21
-92
0
LINE
8
0
10
184
20
-91
11
168
21
-91
0
LINE
8
0
10
167
20
-92
11
167
21
-108
0
LINE
8
0
10
168
20
-90
11
184
21
-90
0
LINE
8
0
10
185
20
-89
11
185
21
-73
0
LINE
8
0
10
184
20
-72
11
168
21
-72
0
LINE
8
0
10
167
20
-73
11
167
21
-89
0
LINE
8
0
10
168
20
-71
11
184
21
-71
0
LINE
8
0
10
185
20
-70
11
185
21
-54
0
LINE
8
0
10
184
20
-53
11
168
21
-53
0
LINE
8
0
10
167
20
-54
11
167
21
-70
0
LINE
8
0
10
168
20
-52
11
184
21
-52
0
LINE
8
0
10
185
20
-51
11
185
21
-35
0
LINE
8
0
10
184
20
-34
11
168
21
-34
0
LINE
8
0
10
167
20
-35
11
167
21
-51
0
LINE
8
0
10
187
20
-109
11
203
21
-109
0
LINE
8
0
10
204
20
-108
11
204
21
-92
0
LINE
8
0
10
203
20
-91
11
187
21
-91
0
LINE
8
0
10
186
20
-92
11
186
21
-108
0
LINE
8
0
10
187
20
-90
11
203
21
-90
0
LINE
8
0
10
204
20
-89
11
204
21
-73
0
LINE
8
0
10
203
20
-72
11
187
21
-72
0
LINE
8
0
10
186
20
-73
11
186
21
-89
0
LINE
8
0
10
187
20
-71
11
203
21
-71
0
LINE
8
0
10
204
20
-70
11
204
21
-54
0
LINE
8
0
10
203
20
-53
11
187
21
-53
0
LINE
8
0
10
186
20
-54
11
186
21
-70
0
LINE
8
0
10
187
20
-52
11
203
21
-52
0
LINE
8
0
10
204
20
-51
11
204
21
-35
0
LINE
8
0
10
203
20
-34
11
187
21
-34
0
LINE
8
0
10
186
20
-35
11
186
21
-51
0
ARC
8
0
10
108
20
-108
40
1
50
270
51
0
0
ARC
8
0
10
108
20
-92
40
1
50
0
51
90
0
ARC
8
0
10
92
20
-92
40
1
50
90
51
180
0
ARC
8
0
10
92
20
-108
40
1
50
180
51
270
0
ARC
8
0
10
108
20
-89
40
1
50
270
51
0
0
ARC
8
0
10
108
20
-73
40
1
50
0
51
90
0
ARC
8
0
10
92
20
-73
40
1
50
90
51
180
0
ARC
8
0
10
92
20
-89
40
1
50
180
51
270
0
ARC
8
0
10
108
20
-70
40
1
50
270
51
0
0
ARC
8
0
10
108
20
-54
40
1
50
0
51
90
0
ARC
8
0
10
92
20
-54
40
1
50
90
51
180
0
ARC
8
0
10
92
20
-70
40
1
50
180
51
270
0
ARC
8
0
10
108
20
-51
40
1
50
270
51
0
0
ARC
8
0
10
108
20
-35
40
1
50
0
51
90
0
ARC
8
0
10
92
20
-35
40
1
50
90
51
180
0
ARC
8
0
10
92
20
-51
40
1
50
180
51
270
0
ARC
8
0
10
127
20
-108
40
1
50
270
51
0
0
ARC
8
0
10
127
20
-92
40
1
50
0
51
90
0
ARC
8
0
10
111
20
-92
40
1
50
90
51
180
0
ARC
8
0
10
111
20
-108
40
1
50
180
51
270
0
ARC
8
0
10
127
20
-89
40
1
50
270
51
0
0
ARC
8
0
10
127
20
-73
40
1
50
0
51
90
0
ARC
8
0
10
111
20
-73
40
1
50
90
51
180
0
ARC
8
0
10
111
20
-89
40
1
50
180
51
270
0
ARC
8
0
10
127
20
-70
40
1
50
270
51
0
0
ARC
8
0
10
127
20
-54
40
1
50
0
51
90
0
ARC
8
0
10
111
20
-54
40
1
50
90
51
180
0
ARC
8
0
10
111
20
-70
40
1
50
180
51
270
0
ARC
8
0
10
127
20
-51
40
1
50
270
51
0
0
ARC
8
0
10
127
20
-35
40
1
50
0
51
90
0
ARC
8
0
10
111
20
-35
40
1
50
90
51
180
0
ARC
8
0
10
111
20
-51
40
1
50
180
51
270
0
ARC
8
0
10
146
20
-108
40
1
50
270
51
0
0
ARC
8
0
10
146
20
-92
40
1
50
0
51
90
0
ARC
8
0
10
130
20
-92
40
1
50
90
51
180
0
ARC
8
0
10
130
20
-108
40
1
50
180
51
270
0
ARC
8
0
10
146
20
-89
40
1
50
270
51
0
0
ARC
8
0
10
146
20
-73
40
1
50
0
51
90
0
ARC
8
0
10
130
20
-73
40
1
50
90
51
180
0
ARC
8
0
10
130
20
-89
40
1
50
180
51
270
0
ARC
8
0
10
146
20
-70
40
1
50
270
51
0
0
ARC
8
0
10
146
20
-54
40
1
50
0
51
90
0
ARC
8
0
10
130
20
-54
40
1
50
90
51
180
0
ARC
8
0
10
130
20
-70
40
1
50
180
51
270
0
ARC
8
0
10
146
20
-51
40
1
50
270
51
0
0
ARC
8
0
10
146
20
-35
40
1
50
0
51
90
0
ARC
8
0
10
130
20
-35
40
1
50
90
51
180
0
ARC
8
0
10
130
20
-51
40
1
50
180
51
270
0
ARC
8
0
10
165
20
-108
40
1
50
270
51
0
0
ARC
8
0
10
165
20
-92
40
1
50
0
51
90
0
ARC
8
0
10
149
20
-92
40
1
50
90
51
180
0
ARC
8
0
10
149
20
-108
40
1
50
180
51
270
0
ARC
8
0
10
165
20
-89
40
1
50
270
51
0
0
ARC
8
0
10
165
20
-73
40
1
50
0
51
90
0
ARC
8
0
10
149
20
-73
40
1
50
90
51
180
0
ARC
8
0
10
149
20
-89
40
1
50
180
51
270
0
ARC
8
0
10
165
20
-70
40
1
50
270
51
0
0
ARC
8
0
10
165
20
-54
40
1
50
0
51
90
0
ARC
8
0
10
149
20
-54
40
1
50
90
51
180
0
ARC
8
0
10
149
20
-70
40
1
50
180
51
270
0
ARC
8
0
10
165
20
-51
40
1
50
270
51
0
0
ARC
8
0
10
165
20
-35
40
1
50
0
51
90
0
ARC
8
0
10
149
20
-35
40
1
50
90
51
180
0
ARC
8
0
10
149
20
-51
40
1
50
180
51
270
0
ARC
8
0
10
184
20
-108
40
1
50
270
51
0
0
ARC
8
0
10
184
20
-92
40
1
50
0
51
90
0
ARC
8
0
10
168
20
-92
40
1
50
90
51
180
0
ARC
8
0
10
168
20
-108
40
1
50
180
51
270
0
ARC
8
0
10
184
20
-89
40
1
50
270
51
0
0
ARC
8
0
10
184
20
-73
40
1
50
0
51
90
0
ARC
8
0
10
168
20
-73
40
1
50
90
51
180
0
ARC
8
0
10
168
20
-89
40
1
50
180
51
270
0
ARC
8
0
10
184
20
-70
40
1
50
270
51
0
0
ARC
8
0
10
184
20
-54
40
1
50
0
51
90
0
ARC
8
0
10
168
20
-54
40
1
50
90
51
180
0
ARC
8
0
10
168
20
-70
40
1
50
180
51
270
0
ARC
8
0
10
184
20
-51
40
1
50
270
51
0
0
ARC
8
0
10
184
20
-35
40
1
50
0
51
90
0
ARC
8
0
10
168
20
-35
40
1
50
90
51
180
0
ARC
8
0
10
168
20
-51
40
1
50
180
51
270
0
ARC
8
0
10
203
20
-108
40
1
50
270
51
0
0
ARC
8
0
10
203
20
-92
40
1
50
0
51
90
0
ARC
8
0
10
187
20
-92
40
1
50
90
51
180
0
ARC
8
0
10
187
20
-108
40
1
50
180
51
270
0
ARC
8
0
10
203
20
-89
40
1
50
270
51
0
0
ARC
8
0
10
203
20
-73
40
1
50
0
51
90
0
ARC
8
0
10
187
20
-73
40
1
50
90
51
180
0
ARC
8
0
10
187
20
-89
40
1
50
180
51
270
0
ARC
8
0
10
203
20
-70
40
1
50
270
51
0
0
ARC
8
0
10
203
20
-54
40
1
50
0
51
90
0
ARC
8
0
10
187
20
-54
40
1
50
90
51
180
0
ARC
8
0
10
187
20
-70
40
1
50
180
51
270
0
ARC
8
0
10
203
20
-51
40
1
50
270
51
0
0
ARC
8
0
10
203
20
-35
40
1
50
0
51
90
0
ARC
8
0
10
187
20
-35
40
1
50
90
51
180
0
ARC
8
0
10
187
20
-51
40
1
50
180
51
270
0
CIRCLE
8
0
10
128.5
20
-52.5
40
1.1
0
CIRCLE
8
0
10
185.5
20
-52.5
40
1.1
0
CIRCLE
8
0
10
185.5
20
-90.5
40
1.1
0
CIRCLE
8
0
10
109.5
20
-90.5
40
1.1
0
CIRCLE
8
0
10
147.5
20
-71.5
40
1.1
0
LINE
8
0
10
93
20
-107
11
107
21
-107
0
LINE
8
0
10
107
20
-107
11
107
21
-93
0
LINE
8
0
10
107
20
-93
11
93
21
-93
0
LINE
8
0
10
93
20
-93
11
93
21
-107
0
LINE
8
0
10
93
20
-88
11
107
21
-88
0
LINE
8
0
10
107
20
-88
11
107
21
-74
0
LINE
8
0
10
107
20
-74
11
93
21
-74
0
LINE
8
0
10
93
20
-74
11
93
21
-88
0
LINE
8
0
10
93
20
-69
11
107
21
-69
0
LINE
8
0
10
107
20
-69
11
107
21
-55
0
LINE
8
0
10
107
20
-55
11
93
21
-55
0
LINE
8
0
10
93
20
-55
11
93
21
-69
0
LINE
8
0
10
93
20
-50
11
107
21
-50
0
LINE
8
0
10
107
20
-50
11
107
21
-36
0
LINE
8
0
10
107
20
-36
11
93
21
-36
0
LINE
8
0
10
93
20
-36
11
93
21
-50
0
LINE
8
0
10
112
20
-107
11
126
21
-107
0
LINE
8
0
10
126
20
-107
11
126
21
-93
0
LINE
8
0
10
126
20
-93
11
112
21
-93
0
LINE
8
0
10
112
20
-93
11
112
21
-107
0
LINE
8
0
10
112
20
-88
11
126
21
-88
0
LINE
8
0
10
126
20
-88
11
126
21
-74
0
LINE
8
0
10
126
20
-74
11
112
21
-74
0
LINE
8
0
10
112
20
-74
11
112
21
-88
0
LINE
8
0
10
112
20
-69
11
126
21
-69
0
LINE
8
0
10
126
20
-69
11
126
21
-55
0
LINE
8
0
10
126
20
-55
11
112
21
-55
0
LINE
8
0
10
112
20
-55
11
112
21
-69
0
LINE
8
0
10
112
20
-50
11
126
21
-50
0
LINE
8
0
10
126
20
-50
11
126
21
-36
0
LINE
8
0
10
126
20
-36
11
112
21
-36
0
LINE
8
0
10
112
20
-36
11
112
21
-50
0
LINE
8
0
10
131
20
-107
11
145
21
-107
0
LINE
8
0
10
145
20
-107
11
145
21
-93
0
LINE
8
0
10
145
20
-93
11
131
21
-93
0
LINE
8
0
10
131
20
-93
11
131
21
-107
0
LINE
8
0
10
131
20
-88
11
145
21
-88
0
LINE
8
0
10
145
20
-88
11
145
21
-74
0
LINE
8
0
10
145
20
-74
11
131
21
-74
0
LINE
8
0
10
131
20
-74
11
131
21
-88
0
LINE
8
0
10
131
20
-69
11
145
21
-69
0
LINE
8
0
10
145
20
-69
11
145
21
-55
0
LINE
8
0
10
145
20
-55
11
131
21
-55
0
LINE
8
0
10
131
20
-55
11
131
21
-69
0
LINE
8
0
10
131
20
-50
11
145
21
-50
0
LINE
8
0
10
145
20
-50
11
145
21
-36
0
LINE
8
0
10
145
20
-36
11
131
21
-36
0
LINE
8
0
10
131
20
-36
11
131
21
-50
0
LINE
8
0
10
150
20
-107
11
164
21
-107
0
LINE
8
0
10
164
20
-107
11
164
21
-93
0
LINE
8
0
10
164
20
-93
11
150
21
-93
0
LINE
8
0
10
150
20
-93
11
150
21
-107
0
LINE
8
0
10
150
20
-88
11
164
21
-88
0
LINE
8
0
10
164
20
-88
11
164
21
-74
0
LINE
8
0
10
164
20
-74
11
150
21
-74
0
LINE
8
0
10
150
20
-74
11
150
21
-88
0
LINE
8
0
10
150
20
-69
11
164
21
-69
0
LINE
8
0
10
164
20
-69
11
164
21
-55
0
LINE
8
0
10
164
20
-55
11
150
21
-55
0
LINE
8
0
10
150
20
-55
11
150
21
-69
0
LINE
8
0
10
150
20
-50
11
164
21
-50
0
LINE
8
0
10
164
20
-50
11
164
21
-36
0
LINE
8
0
10
164
20
-36
11
150
21
-36
0
LINE
8
0
10
150
20
-36
11
150
21
-50
0
LINE
8
0
10
169
20
-107
11
183
21
-107
0
LINE
8
0
10
183
20
-107
11
183
21
-93
0
LINE
8
0
10
183
20
-93
11
169
21
-93
0
LINE
8
0
10
169
20
-93
11
169
21
-107
0
LINE
8
0
10
169
20
-88
11
183
21
-88
0
LINE
8
0
10
183
20
-88
11
183
21
-74
0
LINE
8
0
10
183
20
-74
11
169
21
-74
0
LINE
8
0
10
169
20
-74
11
169
21
-88
0
LINE
8
0
10
169
20
-69
11
183
21
-69
0
LINE
8
0
10
183
20
-69
11
183
21
-55
0
LINE
8
0
10
183
20
-55
11
169
21
-55
0
LINE
8
0
10
169
20
-55
11
169
21
-69
0
LINE
8
0
10
169
20
-50
11
183
21
-50
0
LINE
8
0
10
183
20
-50
11
183
21
-36
0
LINE
8
0
10
183
20
-36
11
169
21
-36
0
LINE
8
0
10
169
20
-36
11
169
21
-50
0
LINE
8
0
10
188
20
-107
11
202
21
-107
0
LINE
8
0
10
202
20
-107
11
202
21
-93
0
LINE
8
0
10
202
20
-93
11
188
21
-93
0
LINE
8
0
10
188
20
-93
11
188
21
-107
0
LINE
8
0
10
188
20
-88
11
202
21
-88
0
LINE
8
0
10
202
20
-88
11
202
21
-74
0
LINE
8
0
10
202
20
-74
11
188
21
-74
0
LINE
8
0
10
188
20
-74
11
188
21
-88
0
LINE
8
0
10
188
20
-69
11
202
21
-69
0
LINE
8
0
10
202
20
-69
11
202
21
-55
0
LINE
8
0
10
202
20
-55
11
188
21
-55
0
LINE
8
0
10
188
20
-55
11
188
21
-69
0
LINE
8
0
10
188
20
-50
11
202
21
-50
0
LINE
8
0
10
202
20
-50
11
202
21
-36
0
LINE
8
0
10
202
20
-36
11
188
21
-36
0
LINE
8
0
10
188
20
-36
11
188
21
-50
0
CIRCLE
8
0
10
128.5
20
-52.5
40
2.05
0
CIRCLE
8
0
10
185.5
20
-52.5
40
2.05
0
CIRCLE
8
0
10
185.5
20
-90.5
40
2.05
0
CIRCLE
8
0
10
109.5
20
-90.5
40
2.05
0
CIRCLE
8
0
10
147.5
20
-71.5
40
2.05
0
LINE
8
0
10
87.05
20
-109.5
11
87.05
21
-33.5
0
ARC
8
0
10
90.5
20
-33.5
40
3.45
50
90
51
450
0
LINE
8
0
10
90.5
20
-30.05
11
204.5
21
-30.05
0
ARC
8
0
10
204.5
20
-33.5
40
3.45
50
0
51
360
0
LINE
8
0
10
207.95
20
-109.5
11
207.95
21
-33.5
0
ARC
8
0
10
204.5
20
-109.5
40
3.45
50
270
51
630
0
LINE
8
0
10
90.5
20
-112.95
11
204.5
21
-112.95
0
ARC
8
0
10
90.5
20
-109.5
40
3.45
50
180
51
540
0
LINE
8
0
10
88.25
20
-109.5
11
88.25
21
-33.5
0
ARC
8
0
10
90.5
20
-33.5
40
2.25
50
90
51
180
0
LINE
8
0
10
90.5
20
-31.25
11
204.5
21
-31.25
0
ARC
8
0
10
204.5
20
-33.5
40
2.25
50
0
51
90
0
LINE
8
0
10
206.75
20
-33.5
11
206.75
21
-109.5
0
ARC
8
0
10
204.5
20
-109.5
40
2.25
50
270
51
360
0
LINE
8
0
10
204.5
20
-111.75
11
90.5
21
-111.75
0
ARC
8
0
10
90.5
20
-109.5
40
2.25
50
180
51
270
0
ENDSEC
0
EOF