<svg width="118.5mm" height="80.5mm" viewBox="0 0 118.5 80.5" xmlns="http://www.w3.org/2000/svg"><g id="svgGroup" stroke-linecap="round" fill-rule="evenodd" font-size="9pt" stroke="#000" stroke-width="0.25mm" fill="none" style="stroke:#000;stroke-width:0.25mm;fill:none"><path d="M 0 78.25 L 0 2.25 A 2.25 2.25 0 0 1 2.25 0 L 116.25 0 A 2.25 2.25 0 0 1 118.5 2.25 L 118.5 78.25 A 2.25 2.25 0 0 1 116.25 80.5 L 2.25 80.5 A 2.25 2.25 0 0 1 0 78.25 Z M 4.75 75.75 L 18.75 75.75 L 18.75 61.75 L 4.75 61.75 L 4.75 75.75 Z M 4.75 56.75 L 18.75 56.75 L 18.75 42.75 L 4.75 42.75 L 4.75 56.75 Z M 4.75 37.75 L 18.75 37.75 L 18.75 23.75 L 4.75 23.75 L 4.75 37.75 Z M 4.75 18.75 L 18.75 18.75 L 18.75 4.75 L 4.75 4.75 L 4.75 18.75 Z M 23.75 75.75 L 37.75 75.75 L 37.75 61.75 L 23.75 61.75 L 23.75 75.75 Z M 23.75 56.75 L 37.75 56.75 L 37.75 42.75 L 23.75 42.75 L 23.75 56.75 Z M 23.75 37.75 L 37.75 37.75 L 37.75 23.75 L 23.75 23.75 L 23.75 37.75 Z M 23.75 18.75 L 37.75 18.75 L 37.75 4.75 L 23.75 4.75 L 23.75 18.75 Z M 42.75 75.75 L 56.75 75.75 L 56.75 61.75 L 42.75 61.75 L 42.75 75.75 Z M 42.75 56.75 L 56.75 56.75 L 56.75 42.75 L 42.75 42.75 L 42.75 56.75 Z M 42.75 37.75 L 56.75 37.75 L 56.75 23.75 L 42.75 23.75 L 42.75 37.75 Z M 42.75 18.75 L 56.75 18.75 L 56.75 4.75 L 42.75 4.75 L 42.75 18.75 Z M 61.75 75.75 L 75.75 75.75 L 75.75 61.75 L 61.75 61.75 L 61.75 75.75 Z M 61.75 56.75 L 75.75 56.75 L 75.75 42.75 L 61.75 42.75 L 61.75 56.75 Z M 61.75 37.75 L 75.75 37.75 L 75.75 23.75 L 61.75 23.75 L 61.75 37.75 Z M 61.75 18.75 L 75.75 18.75 L 75.75 4.75 L 61.75 4.75 L 61.75 18.75 Z M 80.75 75.75 L 94.75 75.75 L 94.75 61.75 L 80.75 61.75 L 80.75 75.75 Z M 80.75 56.75 L 94.75 56.75 L 94.75 42.75 L 80.75 42.75 L 80.75 56.75 Z M 80.75 37.75 L 94.75 37.75 L 94.75 23.75 L 80.75 23.75 L 80.75 37.75 Z M 80.75 18.75 L 94.75 18.75 L 94.75 4.75 L 80.75 4.75 L 80.75 18.75 Z M 99.75 75.75 L 113.75 75.75 L 113.75 61.75 L 99.75 61.75 L 99.75 75.75 Z M 99.75 56.75 L 113.75 56.75 L 113.75 42.75 L 99.75 42.75 L 99.75 56.75 Z M 99.75 37.75 L 113.75 37.75 L 113.75 23.75 L 99.75 23.75 L 99.75 37.75 Z M 99.75 18.75 L 113.75 18.75 L 113.75 4.75 L 99.75 4.75 L 99.75 18.75 Z" vector-effect="non-scaling-stroke"/></g></svg>