0
SECTION
2
HEADER
9
$INSUNITS
70
4
0
ENDSEC
0
SECTION
2
TABLES
0
TABLE
2
LTYPE
0
LTYPE
72
65
70
64
2
CONTINUOUS
3
______
73
0
40
0
0
ENDTAB
0
TABLE
2
LAYER
0
ENDTAB
0
ENDSEC
0
SECTION
2
ENTITIES
0
LINE
8
0
10
88.25
20
-109.5
11
88.25
21
-33.5
0
ARC
8
0
10
90.5
20
-33.5
40
2.25
50
90
51
180
0
LINE
8
0
10
90.5
20
-31.25
11
204.5
21
-31.25
0
ARC
8
0
10
204.5
20
-33.5
40
2.25
50
0
51
90
0
LINE
8
0
10
206.75
20
-33.5
11
206.75
21
-109.5
0
ARC
8
0
10
204.5
20
-109.5
40
2.25
50
270
51
360
0
LINE
8
0
10
204.5
20
-111.75
11
90.5
21
-111.75
0
ARC
8
0
10
90.5
20
-109.5
40
2.25
50
180
51
270
0
LINE
8
0
10
93
20
-107
11
107
21
-107
0
LINE
8
0
10
107
20
-107
11
107
21
-93
0
LINE
8
0
10
107
20
-93
11
93
21
-93
0
LINE
8
0
10
93
20
-93
11
93
21
-107
0
LINE
8
0
10
93
20
-88
11
107
21
-88
0
LINE
8
0
10
107
20
-88
11
107
21
-74
0
LINE
8
0
10
107
20
-74
11
93
21
-74
0
LINE
8
0
10
93
20
-74
11
93
21
-88
0
LINE
8
0
10
93
20
-69
11
107
21
-69
0
LINE
8
0
10
107
20
-69
11
107
21
-55
0
LINE
8
0
10
107
20
-55
11
93
21
-55
0
LINE
8
0
10
93
20
-55
11
93
21
-69
0
LINE
8
0
10
93
20
-50
11
107
21
-50
0
LINE
8
0
10
107
20
-50
11
107
21
-36
0
LINE
8
0
10
107
20
-36
11
93
21
-36
0
LINE
8
0
10
93
20
-36
11
93
21
-50
0
LINE
8
0
10
112
20
-107
11
126
21
-107
0
LINE
8
0
10
126
20
-107
11
126
21
-93
0
LINE
8
0
10
126
20
-93
11
112
21
-93
0
LINE
8
0
10
112
20
-93
11
112
21
-107
0
LINE
8
0
10
112
20
-88
11
126
21
-88
0
LINE
8
0
10
126
20
-88
11
126
21
-74
0
LINE
8
0
10
126
20
-74
11
112
21
-74
0
LINE
8
0
10
112
20
-74
11
112
21
-88
0
LINE
8
0
10
112
20
-69
11
126
21
-69
0
LINE
8
0
10
126
20
-69
11
126
21
-55
0
LINE
8
0
10
126
20
-55
11
112
21
-55
0
LINE
8
0
10
112
20
-55
11
112
21
-69
0
LINE
8
0
10
112
20
-50
11
126
21
-50
0
LINE
8
0
10
126
20
-50
11
126
21
-36
0
LINE
8
0
10
126
20
-36
11
112
21
-36
0
LINE
8
0
10
112
20
-36
11
112
21
-50
0
LINE
8
0
10
131
20
-107
11
145
21
-107
0
LINE
8
0
10
145
20
-107
11
145
21
-93
0
LINE
8
0
10
145
20
-93
11
131
21
-93
0
LINE
8
0
10
131
20
-93
11
131
21
-107
0
LINE
8
0
10
131
20
-88
11
145
21
-88
0
LINE
8
0
10
145
20
-88
11
145
21
-74
0
LINE
8
0
10
145
20
-74
11
131
21
-74
0
LINE
8
0
10
131
20
-74
11
131
21
-88
0
LINE
8
0
10
131
20
-69
11
145
21
-69
0
LINE
8
0
10
145
20
-69
11
145
21
-55
0
LINE
8
0
10
145
20
-55
11
131
21
-55
0
LINE
8
0
10
131
20
-55
11
131
21
-69
0
LINE
8
0
10
131
20
-50
11
145
21
-50
0
LINE
8
0
10
145
20
-50
11
145
21
-36
0
LINE
8
0
10
145
20
-36
11
131
21
-36
0
LINE
8
0
10
131
20
-36
11
131
21
-50
0
LINE
8
0
10
150
20
-107
11
164
21
-107
0
LINE
8
0
10
164
20
-107
11
164
21
-93
0
LINE
8
0
10
164
20
-93
11
150
21
-93
0
LINE
8
0
10
150
20
-93
11
150
21
-107
0
LINE
8
0
10
150
20
-88
11
164
21
-88
0
LINE
8
0
10
164
20
-88
11
164
21
-74
0
LINE
8
0
10
164
20
-74
11
150
21
-74
0
LINE
8
0
10
150
20
-74
11
150
21
-88
0
LINE
8
0
10
150
20
-69
11
164
21
-69
0
LINE
8
0
10
164
20
-69
11
164
21
-55
0
LINE
8
0
10
164
20
-55
11
150
21
-55
0
LINE
8
0
10
150
20
-55
11
150
21
-69
0
LINE
8
0
10
150
20
-50
11
164
21
-50
0
LINE
8
0
10
164
20
-50
11
164
21
-36
0
LINE
8
0
10
164
20
-36
11
150
21
-36
0
LINE
8
0
10
150
20
-36
11
150
21
-50
0
LINE
8
0
10
169
20
-107
11
183
21
-107
0
LINE
8
0
10
183
20
-107
11
183
21
-93
0
LINE
8
0
10
183
20
-93
11
169
21
-93
0
LINE
8
0
10
169
20
-93
11
169
21
-107
0
LINE
8
0
10
169
20
-88
11
183
21
-88
0
LINE
8
0
10
183
20
-88
11
183
21
-74
0
LINE
8
0
10
183
20
-74
11
169
21
-74
0
LINE
8
0
10
169
20
-74
11
169
21
-88
0
LINE
8
0
10
169
20
-69
11
183
21
-69
0
LINE
8
0
10
183
20
-69
11
183
21
-55
0
LINE
8
0
10
183
20
-55
11
169
21
-55
0
LINE
8
0
10
169
20
-55
11
169
21
-69
0
LINE
8
0
10
169
20
-50
11
183
21
-50
0
LINE
8
0
10
183
20
-50
11
183
21
-36
0
LINE
8
0
10
183
20
-36
11
169
21
-36
0
LINE
8
0
10
169
20
-36
11
169
21
-50
0
LINE
8
0
10
188
20
-107
11
202
21
-107
0
LINE
8
0
10
202
20
-107
11
202
21
-93
0
LINE
8
0
10
202
20
-93
11
188
21
-93
0
LINE
8
0
10
188
20
-93
11
188
21
-107
0
LINE
8
0
10
188
20
-88
11
202
21
-88
0
LINE
8
0
10
202
20
-88
11
202
21
-74
0
LINE
8
0
10
202
20
-74
11
188
21
-74
0
LINE
8
0
10
188
20
-74
11
188
21
-88
0
LINE
8
0
10
188
20
-69
11
202
21
-69
0
LINE
8
0
10
202
20
-69
11
202
21
-55
0
LINE
8
0
10
202
20
-55
11
188
21
-55
0
LINE
8
0
10
188
20
-55
11
188
21
-69
0
LINE
8
0
10
188
20
-50
11
202
21
-50
0
LINE
8
0
10
202
20
-50
11
202
21
-36
0
LINE
8
0
10
202
20
-36
11
188
21
-36
0
LINE
8
0
10
188
20
-36
11
188
21
-50
0
ENDSEC
0
EOF