%TF.GenerationSoftware,KiCad,Pcbnew,8.0.6+1*%
%TF.CreationDate,2024-11-11T16:29:40+00:00*%
%TF.ProjectId,not_about_money_autorouted,6e6f745f-6162-46f7-9574-5f6d6f6e6579,v1.0.0*%
%TF.SameCoordinates,Original*%
%TF.FileFunction,Drillmap*%
%TF.FilePolarity,Positive*%
%FSLAX45Y45*%
G04 Gerber Fmt 4.5, Leading zero omitted, Abs format (unit mm)*
G04 Created by KiCad (PCBNEW 8.0.6+1) date 2024-11-11 16:29:40*
%MOMM*%
%LPD*%
G01*
G04 APERTURE LIST*
%ADD10C,0.150000*%
%ADD11C,0.200000*%
%ADD12C,0.100000*%
G04 APERTURE END LIST*
D10*
X8850000Y-3350000D02*
G75*
G02*
X9050000Y-3150000I200000J0D01*
G01*
X20650000Y-3350000D02*
X20650000Y-10950000D01*
X20450000Y-3150000D02*
G75*
G02*
X20650000Y-3350000I0J-200000D01*
G01*
X8850000Y-10950000D02*
X8850000Y-3350000D01*
X20450000Y-11150000D02*
X9050000Y-11150000D01*
X20650000Y-10950000D02*
G75*
G02*
X20450000Y-11150000I-200000J0D01*
G01*
X9050000Y-11150000D02*
G75*
G02*
X8850000Y-10950000I0J200000D01*
G01*
X9050000Y-3150000D02*
X20450000Y-3150000D01*
D11*
D12*
X9864780Y-5099060D02*
X9894780Y-5129060D01*
X9894780Y-5099060D02*
X9864780Y-5129060D01*
X10501940Y-5201010D02*
X10531940Y-5231010D01*
X10531940Y-5201010D02*
X10501940Y-5231010D01*
X11055600Y-8348720D02*
X11085600Y-8378720D01*
X11085600Y-8348720D02*
X11055600Y-8378720D01*
X11176500Y-5210290D02*
X11206500Y-5240290D01*
X11206500Y-5210290D02*
X11176500Y-5240290D01*
X11616630Y-4510810D02*
X11646630Y-4540810D01*
X11646630Y-4510810D02*
X11616630Y-4540810D01*
X12346750Y-8348720D02*
X12376750Y-8378720D01*
X12376750Y-8348720D02*
X12346750Y-8378720D01*
X12814250Y-5649760D02*
X12844250Y-5679760D01*
X12844250Y-5649760D02*
X12814250Y-5679760D01*
X13448640Y-4481200D02*
X13478640Y-4511200D01*
X13478640Y-4481200D02*
X13448640Y-4511200D01*
X14587250Y-6060140D02*
X14617250Y-6090140D01*
X14617250Y-6060140D02*
X14587250Y-6090140D01*
X14976500Y-4693890D02*
X15006500Y-4723890D01*
X15006500Y-4693890D02*
X14976500Y-4723890D01*
X16249670Y-4787660D02*
X16279670Y-4817660D01*
X16279670Y-4787660D02*
X16249670Y-4817660D01*
X16406620Y-8345020D02*
X16436620Y-8375020D01*
X16436620Y-8345020D02*
X16406620Y-8375020D01*
X16508340Y-6243840D02*
X16538340Y-6273840D01*
X16538340Y-6243840D02*
X16508340Y-6273840D01*
X16938520Y-6312730D02*
X16968520Y-6342730D01*
X16968520Y-6312730D02*
X16938520Y-6342730D01*
X17968000Y-8345020D02*
X17998000Y-8375020D01*
X17998000Y-8345020D02*
X17968000Y-8375020D01*
X18299140Y-4888250D02*
X18329140Y-4918250D01*
X18329140Y-4888250D02*
X18299140Y-4918250D01*
X20099770Y-6445020D02*
X20129770Y-6475020D01*
X20129770Y-6445020D02*
X20099770Y-6475020D01*
X10987500Y-6950000D02*
G75*
G02*
X10912500Y-6950000I-37500J0D01*
G01*
X10912500Y-6950000D02*
G75*
G02*
X10987500Y-6950000I37500J0D01*
G01*
X10987500Y-7150000D02*
G75*
G02*
X10912500Y-7150000I-37500J0D01*
G01*
X10912500Y-7150000D02*
G75*
G02*
X10987500Y-7150000I37500J0D01*
G01*
X9260000Y-3388000D02*
X9260000Y-3488000D01*
X9210000Y-3438000D02*
X9310000Y-3438000D01*
X9260000Y-4912000D02*
X9260000Y-5012000D01*
X9210000Y-4962000D02*
X9310000Y-4962000D01*
X9514000Y-3388000D02*
X9514000Y-3488000D01*
X9464000Y-3438000D02*
X9564000Y-3438000D01*
X9514000Y-4912000D02*
X9514000Y-5012000D01*
X9464000Y-4962000D02*
X9564000Y-4962000D01*
X9768000Y-3388000D02*
X9768000Y-3488000D01*
X9718000Y-3438000D02*
X9818000Y-3438000D01*
X9768000Y-4912000D02*
X9768000Y-5012000D01*
X9718000Y-4962000D02*
X9818000Y-4962000D01*
X10022000Y-3388000D02*
X10022000Y-3488000D01*
X9972000Y-3438000D02*
X10072000Y-3438000D01*
X10022000Y-4912000D02*
X10022000Y-5012000D01*
X9972000Y-4962000D02*
X10072000Y-4962000D01*
X10276000Y-3388000D02*
X10276000Y-3488000D01*
X10226000Y-3438000D02*
X10326000Y-3438000D01*
X10276000Y-4912000D02*
X10276000Y-5012000D01*
X10226000Y-4962000D02*
X10326000Y-4962000D01*
X10530000Y-3388000D02*
X10530000Y-3488000D01*
X10480000Y-3438000D02*
X10580000Y-3438000D01*
X10530000Y-4912000D02*
X10530000Y-5012000D01*
X10480000Y-4962000D02*
X10580000Y-4962000D01*
X10784000Y-3388000D02*
X10784000Y-3488000D01*
X10734000Y-3438000D02*
X10834000Y-3438000D01*
X10784000Y-4912000D02*
X10784000Y-5012000D01*
X10734000Y-4962000D02*
X10834000Y-4962000D01*
X11038000Y-3388000D02*
X11038000Y-3488000D01*
X10988000Y-3438000D02*
X11088000Y-3438000D01*
X11038000Y-4912000D02*
X11038000Y-5012000D01*
X10988000Y-4962000D02*
X11088000Y-4962000D01*
X11292000Y-3388000D02*
X11292000Y-3488000D01*
X11242000Y-3438000D02*
X11342000Y-3438000D01*
X11292000Y-4912000D02*
X11292000Y-5012000D01*
X11242000Y-4962000D02*
X11342000Y-4962000D01*
X11546000Y-3388000D02*
X11546000Y-3488000D01*
X11496000Y-3438000D02*
X11596000Y-3438000D01*
X11546000Y-4912000D02*
X11546000Y-5012000D01*
X11496000Y-4962000D02*
X11596000Y-4962000D01*
X11800000Y-3388000D02*
X11800000Y-3488000D01*
X11750000Y-3438000D02*
X11850000Y-3438000D01*
X11800000Y-4912000D02*
X11800000Y-5012000D01*
X11750000Y-4962000D02*
X11850000Y-4962000D01*
X12054000Y-3388000D02*
X12054000Y-3488000D01*
X12004000Y-3438000D02*
X12104000Y-3438000D01*
X12054000Y-4912000D02*
X12054000Y-5012000D01*
X12004000Y-4962000D02*
X12104000Y-4962000D01*
D11*
X9103277Y-11468984D02*
X9103277Y-11268984D01*
X9103277Y-11268984D02*
X9150896Y-11268984D01*
X9150896Y-11268984D02*
X9179467Y-11278508D01*
X9179467Y-11278508D02*
X9198515Y-11297555D01*
X9198515Y-11297555D02*
X9208039Y-11316603D01*
X9208039Y-11316603D02*
X9217563Y-11354698D01*
X9217563Y-11354698D02*
X9217563Y-11383269D01*
X9217563Y-11383269D02*
X9208039Y-11421365D01*
X9208039Y-11421365D02*
X9198515Y-11440412D01*
X9198515Y-11440412D02*
X9179467Y-11459460D01*
X9179467Y-11459460D02*
X9150896Y-11468984D01*
X9150896Y-11468984D02*
X9103277Y-11468984D01*
X9303277Y-11468984D02*
X9303277Y-11335650D01*
X9303277Y-11373746D02*
X9312801Y-11354698D01*
X9312801Y-11354698D02*
X9322324Y-11345174D01*
X9322324Y-11345174D02*
X9341372Y-11335650D01*
X9341372Y-11335650D02*
X9360420Y-11335650D01*
X9427086Y-11468984D02*
X9427086Y-11335650D01*
X9427086Y-11268984D02*
X9417563Y-11278508D01*
X9417563Y-11278508D02*
X9427086Y-11288031D01*
X9427086Y-11288031D02*
X9436610Y-11278508D01*
X9436610Y-11278508D02*
X9427086Y-11268984D01*
X9427086Y-11268984D02*
X9427086Y-11288031D01*
X9550896Y-11468984D02*
X9531848Y-11459460D01*
X9531848Y-11459460D02*
X9522324Y-11440412D01*
X9522324Y-11440412D02*
X9522324Y-11268984D01*
X9655658Y-11468984D02*
X9636610Y-11459460D01*
X9636610Y-11459460D02*
X9627086Y-11440412D01*
X9627086Y-11440412D02*
X9627086Y-11268984D01*
X9884229Y-11468984D02*
X9884229Y-11268984D01*
X9884229Y-11268984D02*
X9950896Y-11411841D01*
X9950896Y-11411841D02*
X10017563Y-11268984D01*
X10017563Y-11268984D02*
X10017563Y-11468984D01*
X10198515Y-11468984D02*
X10198515Y-11364222D01*
X10198515Y-11364222D02*
X10188991Y-11345174D01*
X10188991Y-11345174D02*
X10169944Y-11335650D01*
X10169944Y-11335650D02*
X10131848Y-11335650D01*
X10131848Y-11335650D02*
X10112801Y-11345174D01*
X10198515Y-11459460D02*
X10179467Y-11468984D01*
X10179467Y-11468984D02*
X10131848Y-11468984D01*
X10131848Y-11468984D02*
X10112801Y-11459460D01*
X10112801Y-11459460D02*
X10103277Y-11440412D01*
X10103277Y-11440412D02*
X10103277Y-11421365D01*
X10103277Y-11421365D02*
X10112801Y-11402317D01*
X10112801Y-11402317D02*
X10131848Y-11392793D01*
X10131848Y-11392793D02*
X10179467Y-11392793D01*
X10179467Y-11392793D02*
X10198515Y-11383269D01*
X10293753Y-11335650D02*
X10293753Y-11535650D01*
X10293753Y-11345174D02*
X10312801Y-11335650D01*
X10312801Y-11335650D02*
X10350896Y-11335650D01*
X10350896Y-11335650D02*
X10369944Y-11345174D01*
X10369944Y-11345174D02*
X10379467Y-11354698D01*
X10379467Y-11354698D02*
X10388991Y-11373746D01*
X10388991Y-11373746D02*
X10388991Y-11430888D01*
X10388991Y-11430888D02*
X10379467Y-11449936D01*
X10379467Y-11449936D02*
X10369944Y-11459460D01*
X10369944Y-11459460D02*
X10350896Y-11468984D01*
X10350896Y-11468984D02*
X10312801Y-11468984D01*
X10312801Y-11468984D02*
X10293753Y-11459460D01*
X10474705Y-11449936D02*
X10484229Y-11459460D01*
X10484229Y-11459460D02*
X10474705Y-11468984D01*
X10474705Y-11468984D02*
X10465182Y-11459460D01*
X10465182Y-11459460D02*
X10474705Y-11449936D01*
X10474705Y-11449936D02*
X10474705Y-11468984D01*
X10474705Y-11345174D02*
X10484229Y-11354698D01*
X10484229Y-11354698D02*
X10474705Y-11364222D01*
X10474705Y-11364222D02*
X10465182Y-11354698D01*
X10465182Y-11354698D02*
X10474705Y-11345174D01*
X10474705Y-11345174D02*
X10474705Y-11364222D01*
D12*
X8812500Y-11782500D02*
X8842500Y-11812500D01*
X8842500Y-11782500D02*
X8812500Y-11812500D01*
D11*
X9141372Y-11688984D02*
X9160420Y-11688984D01*
X9160420Y-11688984D02*
X9179467Y-11698508D01*
X9179467Y-11698508D02*
X9188991Y-11708031D01*
X9188991Y-11708031D02*
X9198515Y-11727079D01*
X9198515Y-11727079D02*
X9208039Y-11765174D01*
X9208039Y-11765174D02*
X9208039Y-11812793D01*
X9208039Y-11812793D02*
X9198515Y-11850888D01*
X9198515Y-11850888D02*
X9188991Y-11869936D01*
X9188991Y-11869936D02*
X9179467Y-11879460D01*
X9179467Y-11879460D02*
X9160420Y-11888984D01*
X9160420Y-11888984D02*
X9141372Y-11888984D01*
X9141372Y-11888984D02*
X9122324Y-11879460D01*
X9122324Y-11879460D02*
X9112801Y-11869936D01*
X9112801Y-11869936D02*
X9103277Y-11850888D01*
X9103277Y-11850888D02*
X9093753Y-11812793D01*
X9093753Y-11812793D02*
X9093753Y-11765174D01*
X9093753Y-11765174D02*
X9103277Y-11727079D01*
X9103277Y-11727079D02*
X9112801Y-11708031D01*
X9112801Y-11708031D02*
X9122324Y-11698508D01*
X9122324Y-11698508D02*
X9141372Y-11688984D01*
X9293753Y-11869936D02*
X9303277Y-11879460D01*
X9303277Y-11879460D02*
X9293753Y-11888984D01*
X9293753Y-11888984D02*
X9284229Y-11879460D01*
X9284229Y-11879460D02*
X9293753Y-11869936D01*
X9293753Y-11869936D02*
X9293753Y-11888984D01*
X9369944Y-11688984D02*
X9493753Y-11688984D01*
X9493753Y-11688984D02*
X9427086Y-11765174D01*
X9427086Y-11765174D02*
X9455658Y-11765174D01*
X9455658Y-11765174D02*
X9474705Y-11774698D01*
X9474705Y-11774698D02*
X9484229Y-11784222D01*
X9484229Y-11784222D02*
X9493753Y-11803269D01*
X9493753Y-11803269D02*
X9493753Y-11850888D01*
X9493753Y-11850888D02*
X9484229Y-11869936D01*
X9484229Y-11869936D02*
X9474705Y-11879460D01*
X9474705Y-11879460D02*
X9455658Y-11888984D01*
X9455658Y-11888984D02*
X9398515Y-11888984D01*
X9398515Y-11888984D02*
X9379467Y-11879460D01*
X9379467Y-11879460D02*
X9369944Y-11869936D01*
X9617563Y-11688984D02*
X9636610Y-11688984D01*
X9636610Y-11688984D02*
X9655658Y-11698508D01*
X9655658Y-11698508D02*
X9665182Y-11708031D01*
X9665182Y-11708031D02*
X9674705Y-11727079D01*
X9674705Y-11727079D02*
X9684229Y-11765174D01*
X9684229Y-11765174D02*
X9684229Y-11812793D01*
X9684229Y-11812793D02*
X9674705Y-11850888D01*
X9674705Y-11850888D02*
X9665182Y-11869936D01*
X9665182Y-11869936D02*
X9655658Y-11879460D01*
X9655658Y-11879460D02*
X9636610Y-11888984D01*
X9636610Y-11888984D02*
X9617563Y-11888984D01*
X9617563Y-11888984D02*
X9598515Y-11879460D01*
X9598515Y-11879460D02*
X9588991Y-11869936D01*
X9588991Y-11869936D02*
X9579467Y-11850888D01*
X9579467Y-11850888D02*
X9569944Y-11812793D01*
X9569944Y-11812793D02*
X9569944Y-11765174D01*
X9569944Y-11765174D02*
X9579467Y-11727079D01*
X9579467Y-11727079D02*
X9588991Y-11708031D01*
X9588991Y-11708031D02*
X9598515Y-11698508D01*
X9598515Y-11698508D02*
X9617563Y-11688984D01*
X9808039Y-11688984D02*
X9827086Y-11688984D01*
X9827086Y-11688984D02*
X9846134Y-11698508D01*
X9846134Y-11698508D02*
X9855658Y-11708031D01*
X9855658Y-11708031D02*
X9865182Y-11727079D01*
X9865182Y-11727079D02*
X9874705Y-11765174D01*
X9874705Y-11765174D02*
X9874705Y-11812793D01*
X9874705Y-11812793D02*
X9865182Y-11850888D01*
X9865182Y-11850888D02*
X9855658Y-11869936D01*
X9855658Y-11869936D02*
X9846134Y-11879460D01*
X9846134Y-11879460D02*
X9827086Y-11888984D01*
X9827086Y-11888984D02*
X9808039Y-11888984D01*
X9808039Y-11888984D02*
X9788991Y-11879460D01*
X9788991Y-11879460D02*
X9779467Y-11869936D01*
X9779467Y-11869936D02*
X9769944Y-11850888D01*
X9769944Y-11850888D02*
X9760420Y-11812793D01*
X9760420Y-11812793D02*
X9760420Y-11765174D01*
X9760420Y-11765174D02*
X9769944Y-11727079D01*
X9769944Y-11727079D02*
X9779467Y-11708031D01*
X9779467Y-11708031D02*
X9788991Y-11698508D01*
X9788991Y-11698508D02*
X9808039Y-11688984D01*
X9960420Y-11888984D02*
X9960420Y-11755650D01*
X9960420Y-11774698D02*
X9969944Y-11765174D01*
X9969944Y-11765174D02*
X9988991Y-11755650D01*
X9988991Y-11755650D02*
X10017563Y-11755650D01*
X10017563Y-11755650D02*
X10036610Y-11765174D01*
X10036610Y-11765174D02*
X10046134Y-11784222D01*
X10046134Y-11784222D02*
X10046134Y-11888984D01*
X10046134Y-11784222D02*
X10055658Y-11765174D01*
X10055658Y-11765174D02*
X10074705Y-11755650D01*
X10074705Y-11755650D02*
X10103277Y-11755650D01*
X10103277Y-11755650D02*
X10122325Y-11765174D01*
X10122325Y-11765174D02*
X10131848Y-11784222D01*
X10131848Y-11784222D02*
X10131848Y-11888984D01*
X10227086Y-11888984D02*
X10227086Y-11755650D01*
X10227086Y-11774698D02*
X10236610Y-11765174D01*
X10236610Y-11765174D02*
X10255658Y-11755650D01*
X10255658Y-11755650D02*
X10284229Y-11755650D01*
X10284229Y-11755650D02*
X10303277Y-11765174D01*
X10303277Y-11765174D02*
X10312801Y-11784222D01*
X10312801Y-11784222D02*
X10312801Y-11888984D01*
X10312801Y-11784222D02*
X10322325Y-11765174D01*
X10322325Y-11765174D02*
X10341372Y-11755650D01*
X10341372Y-11755650D02*
X10369944Y-11755650D01*
X10369944Y-11755650D02*
X10388991Y-11765174D01*
X10388991Y-11765174D02*
X10398515Y-11784222D01*
X10398515Y-11784222D02*
X10398515Y-11888984D01*
X10788991Y-11679460D02*
X10617563Y-11936603D01*
X11046134Y-11688984D02*
X11065182Y-11688984D01*
X11065182Y-11688984D02*
X11084229Y-11698508D01*
X11084229Y-11698508D02*
X11093753Y-11708031D01*
X11093753Y-11708031D02*
X11103277Y-11727079D01*
X11103277Y-11727079D02*
X11112801Y-11765174D01*
X11112801Y-11765174D02*
X11112801Y-11812793D01*
X11112801Y-11812793D02*
X11103277Y-11850888D01*
X11103277Y-11850888D02*
X11093753Y-11869936D01*
X11093753Y-11869936D02*
X11084229Y-11879460D01*
X11084229Y-11879460D02*
X11065182Y-11888984D01*
X11065182Y-11888984D02*
X11046134Y-11888984D01*
X11046134Y-11888984D02*
X11027087Y-11879460D01*
X11027087Y-11879460D02*
X11017563Y-11869936D01*
X11017563Y-11869936D02*
X11008039Y-11850888D01*
X11008039Y-11850888D02*
X10998515Y-11812793D01*
X10998515Y-11812793D02*
X10998515Y-11765174D01*
X10998515Y-11765174D02*
X11008039Y-11727079D01*
X11008039Y-11727079D02*
X11017563Y-11708031D01*
X11017563Y-11708031D02*
X11027087Y-11698508D01*
X11027087Y-11698508D02*
X11046134Y-11688984D01*
X11198515Y-11869936D02*
X11208039Y-11879460D01*
X11208039Y-11879460D02*
X11198515Y-11888984D01*
X11198515Y-11888984D02*
X11188991Y-11879460D01*
X11188991Y-11879460D02*
X11198515Y-11869936D01*
X11198515Y-11869936D02*
X11198515Y-11888984D01*
X11331848Y-11688984D02*
X11350896Y-11688984D01*
X11350896Y-11688984D02*
X11369944Y-11698508D01*
X11369944Y-11698508D02*
X11379467Y-11708031D01*
X11379467Y-11708031D02*
X11388991Y-11727079D01*
X11388991Y-11727079D02*
X11398515Y-11765174D01*
X11398515Y-11765174D02*
X11398515Y-11812793D01*
X11398515Y-11812793D02*
X11388991Y-11850888D01*
X11388991Y-11850888D02*
X11379467Y-11869936D01*
X11379467Y-11869936D02*
X11369944Y-11879460D01*
X11369944Y-11879460D02*
X11350896Y-11888984D01*
X11350896Y-11888984D02*
X11331848Y-11888984D01*
X11331848Y-11888984D02*
X11312801Y-11879460D01*
X11312801Y-11879460D02*
X11303277Y-11869936D01*
X11303277Y-11869936D02*
X11293753Y-11850888D01*
X11293753Y-11850888D02*
X11284229Y-11812793D01*
X11284229Y-11812793D02*
X11284229Y-11765174D01*
X11284229Y-11765174D02*
X11293753Y-11727079D01*
X11293753Y-11727079D02*
X11303277Y-11708031D01*
X11303277Y-11708031D02*
X11312801Y-11698508D01*
X11312801Y-11698508D02*
X11331848Y-11688984D01*
X11588991Y-11888984D02*
X11474706Y-11888984D01*
X11531848Y-11888984D02*
X11531848Y-11688984D01*
X11531848Y-11688984D02*
X11512801Y-11717555D01*
X11512801Y-11717555D02*
X11493753Y-11736603D01*
X11493753Y-11736603D02*
X11474706Y-11746127D01*
X11779467Y-11888984D02*
X11665182Y-11888984D01*
X11722325Y-11888984D02*
X11722325Y-11688984D01*
X11722325Y-11688984D02*
X11703277Y-11717555D01*
X11703277Y-11717555D02*
X11684229Y-11736603D01*
X11684229Y-11736603D02*
X11665182Y-11746127D01*
X11893753Y-11774698D02*
X11874706Y-11765174D01*
X11874706Y-11765174D02*
X11865182Y-11755650D01*
X11865182Y-11755650D02*
X11855658Y-11736603D01*
X11855658Y-11736603D02*
X11855658Y-11727079D01*
X11855658Y-11727079D02*
X11865182Y-11708031D01*
X11865182Y-11708031D02*
X11874706Y-11698508D01*
X11874706Y-11698508D02*
X11893753Y-11688984D01*
X11893753Y-11688984D02*
X11931848Y-11688984D01*
X11931848Y-11688984D02*
X11950896Y-11698508D01*
X11950896Y-11698508D02*
X11960420Y-11708031D01*
X11960420Y-11708031D02*
X11969944Y-11727079D01*
X11969944Y-11727079D02*
X11969944Y-11736603D01*
X11969944Y-11736603D02*
X11960420Y-11755650D01*
X11960420Y-11755650D02*
X11950896Y-11765174D01*
X11950896Y-11765174D02*
X11931848Y-11774698D01*
X11931848Y-11774698D02*
X11893753Y-11774698D01*
X11893753Y-11774698D02*
X11874706Y-11784222D01*
X11874706Y-11784222D02*
X11865182Y-11793746D01*
X11865182Y-11793746D02*
X11855658Y-11812793D01*
X11855658Y-11812793D02*
X11855658Y-11850888D01*
X11855658Y-11850888D02*
X11865182Y-11869936D01*
X11865182Y-11869936D02*
X11874706Y-11879460D01*
X11874706Y-11879460D02*
X11893753Y-11888984D01*
X11893753Y-11888984D02*
X11931848Y-11888984D01*
X11931848Y-11888984D02*
X11950896Y-11879460D01*
X11950896Y-11879460D02*
X11960420Y-11869936D01*
X11960420Y-11869936D02*
X11969944Y-11850888D01*
X11969944Y-11850888D02*
X11969944Y-11812793D01*
X11969944Y-11812793D02*
X11960420Y-11793746D01*
X11960420Y-11793746D02*
X11950896Y-11784222D01*
X11950896Y-11784222D02*
X11931848Y-11774698D01*
X12046134Y-11688984D02*
X12046134Y-11727079D01*
X12122325Y-11688984D02*
X12122325Y-11727079D01*
X12417563Y-11965174D02*
X12408039Y-11955650D01*
X12408039Y-11955650D02*
X12388991Y-11927079D01*
X12388991Y-11927079D02*
X12379468Y-11908031D01*
X12379468Y-11908031D02*
X12369944Y-11879460D01*
X12369944Y-11879460D02*
X12360420Y-11831841D01*
X12360420Y-11831841D02*
X12360420Y-11793746D01*
X12360420Y-11793746D02*
X12369944Y-11746127D01*
X12369944Y-11746127D02*
X12379468Y-11717555D01*
X12379468Y-11717555D02*
X12388991Y-11698508D01*
X12388991Y-11698508D02*
X12408039Y-11669936D01*
X12408039Y-11669936D02*
X12417563Y-11660412D01*
X12598515Y-11888984D02*
X12484229Y-11888984D01*
X12541372Y-11888984D02*
X12541372Y-11688984D01*
X12541372Y-11688984D02*
X12522325Y-11717555D01*
X12522325Y-11717555D02*
X12503277Y-11736603D01*
X12503277Y-11736603D02*
X12484229Y-11746127D01*
X12665182Y-11688984D02*
X12798515Y-11688984D01*
X12798515Y-11688984D02*
X12712801Y-11888984D01*
X13027087Y-11888984D02*
X13027087Y-11688984D01*
X13112801Y-11888984D02*
X13112801Y-11784222D01*
X13112801Y-11784222D02*
X13103277Y-11765174D01*
X13103277Y-11765174D02*
X13084230Y-11755650D01*
X13084230Y-11755650D02*
X13055658Y-11755650D01*
X13055658Y-11755650D02*
X13036610Y-11765174D01*
X13036610Y-11765174D02*
X13027087Y-11774698D01*
X13236610Y-11888984D02*
X13217563Y-11879460D01*
X13217563Y-11879460D02*
X13208039Y-11869936D01*
X13208039Y-11869936D02*
X13198515Y-11850888D01*
X13198515Y-11850888D02*
X13198515Y-11793746D01*
X13198515Y-11793746D02*
X13208039Y-11774698D01*
X13208039Y-11774698D02*
X13217563Y-11765174D01*
X13217563Y-11765174D02*
X13236610Y-11755650D01*
X13236610Y-11755650D02*
X13265182Y-11755650D01*
X13265182Y-11755650D02*
X13284230Y-11765174D01*
X13284230Y-11765174D02*
X13293753Y-11774698D01*
X13293753Y-11774698D02*
X13303277Y-11793746D01*
X13303277Y-11793746D02*
X13303277Y-11850888D01*
X13303277Y-11850888D02*
X13293753Y-11869936D01*
X13293753Y-11869936D02*
X13284230Y-11879460D01*
X13284230Y-11879460D02*
X13265182Y-11888984D01*
X13265182Y-11888984D02*
X13236610Y-11888984D01*
X13417563Y-11888984D02*
X13398515Y-11879460D01*
X13398515Y-11879460D02*
X13388991Y-11860412D01*
X13388991Y-11860412D02*
X13388991Y-11688984D01*
X13569944Y-11879460D02*
X13550896Y-11888984D01*
X13550896Y-11888984D02*
X13512801Y-11888984D01*
X13512801Y-11888984D02*
X13493753Y-11879460D01*
X13493753Y-11879460D02*
X13484230Y-11860412D01*
X13484230Y-11860412D02*
X13484230Y-11784222D01*
X13484230Y-11784222D02*
X13493753Y-11765174D01*
X13493753Y-11765174D02*
X13512801Y-11755650D01*
X13512801Y-11755650D02*
X13550896Y-11755650D01*
X13550896Y-11755650D02*
X13569944Y-11765174D01*
X13569944Y-11765174D02*
X13579468Y-11784222D01*
X13579468Y-11784222D02*
X13579468Y-11803269D01*
X13579468Y-11803269D02*
X13484230Y-11822317D01*
X13655658Y-11879460D02*
X13674706Y-11888984D01*
X13674706Y-11888984D02*
X13712801Y-11888984D01*
X13712801Y-11888984D02*
X13731849Y-11879460D01*
X13731849Y-11879460D02*
X13741372Y-11860412D01*
X13741372Y-11860412D02*
X13741372Y-11850888D01*
X13741372Y-11850888D02*
X13731849Y-11831841D01*
X13731849Y-11831841D02*
X13712801Y-11822317D01*
X13712801Y-11822317D02*
X13684230Y-11822317D01*
X13684230Y-11822317D02*
X13665182Y-11812793D01*
X13665182Y-11812793D02*
X13655658Y-11793746D01*
X13655658Y-11793746D02*
X13655658Y-11784222D01*
X13655658Y-11784222D02*
X13665182Y-11765174D01*
X13665182Y-11765174D02*
X13684230Y-11755650D01*
X13684230Y-11755650D02*
X13712801Y-11755650D01*
X13712801Y-11755650D02*
X13731849Y-11765174D01*
X13808039Y-11965174D02*
X13817563Y-11955650D01*
X13817563Y-11955650D02*
X13836611Y-11927079D01*
X13836611Y-11927079D02*
X13846134Y-11908031D01*
X13846134Y-11908031D02*
X13855658Y-11879460D01*
X13855658Y-11879460D02*
X13865182Y-11831841D01*
X13865182Y-11831841D02*
X13865182Y-11793746D01*
X13865182Y-11793746D02*
X13855658Y-11746127D01*
X13855658Y-11746127D02*
X13846134Y-11717555D01*
X13846134Y-11717555D02*
X13836611Y-11698508D01*
X13836611Y-11698508D02*
X13817563Y-11669936D01*
X13817563Y-11669936D02*
X13808039Y-11660412D01*
D12*
X8842500Y-12061500D02*
G75*
G02*
X8767500Y-12061500I-37500J0D01*
G01*
X8767500Y-12061500D02*
G75*
G02*
X8842500Y-12061500I37500J0D01*
G01*
D11*
X9141372Y-11952984D02*
X9160420Y-11952984D01*
X9160420Y-11952984D02*
X9179467Y-11962508D01*
X9179467Y-11962508D02*
X9188991Y-11972031D01*
X9188991Y-11972031D02*
X9198515Y-11991079D01*
X9198515Y-11991079D02*
X9208039Y-12029174D01*
X9208039Y-12029174D02*
X9208039Y-12076793D01*
X9208039Y-12076793D02*
X9198515Y-12114888D01*
X9198515Y-12114888D02*
X9188991Y-12133936D01*
X9188991Y-12133936D02*
X9179467Y-12143460D01*
X9179467Y-12143460D02*
X9160420Y-12152984D01*
X9160420Y-12152984D02*
X9141372Y-12152984D01*
X9141372Y-12152984D02*
X9122324Y-12143460D01*
X9122324Y-12143460D02*
X9112801Y-12133936D01*
X9112801Y-12133936D02*
X9103277Y-12114888D01*
X9103277Y-12114888D02*
X9093753Y-12076793D01*
X9093753Y-12076793D02*
X9093753Y-12029174D01*
X9093753Y-12029174D02*
X9103277Y-11991079D01*
X9103277Y-11991079D02*
X9112801Y-11972031D01*
X9112801Y-11972031D02*
X9122324Y-11962508D01*
X9122324Y-11962508D02*
X9141372Y-11952984D01*
X9293753Y-12133936D02*
X9303277Y-12143460D01*
X9303277Y-12143460D02*
X9293753Y-12152984D01*
X9293753Y-12152984D02*
X9284229Y-12143460D01*
X9284229Y-12143460D02*
X9293753Y-12133936D01*
X9293753Y-12133936D02*
X9293753Y-12152984D01*
X9369944Y-11952984D02*
X9503277Y-11952984D01*
X9503277Y-11952984D02*
X9417563Y-12152984D01*
X9674705Y-11952984D02*
X9579467Y-11952984D01*
X9579467Y-11952984D02*
X9569944Y-12048222D01*
X9569944Y-12048222D02*
X9579467Y-12038698D01*
X9579467Y-12038698D02*
X9598515Y-12029174D01*
X9598515Y-12029174D02*
X9646134Y-12029174D01*
X9646134Y-12029174D02*
X9665182Y-12038698D01*
X9665182Y-12038698D02*
X9674705Y-12048222D01*
X9674705Y-12048222D02*
X9684229Y-12067269D01*
X9684229Y-12067269D02*
X9684229Y-12114888D01*
X9684229Y-12114888D02*
X9674705Y-12133936D01*
X9674705Y-12133936D02*
X9665182Y-12143460D01*
X9665182Y-12143460D02*
X9646134Y-12152984D01*
X9646134Y-12152984D02*
X9598515Y-12152984D01*
X9598515Y-12152984D02*
X9579467Y-12143460D01*
X9579467Y-12143460D02*
X9569944Y-12133936D01*
X9808039Y-11952984D02*
X9827086Y-11952984D01*
X9827086Y-11952984D02*
X9846134Y-11962508D01*
X9846134Y-11962508D02*
X9855658Y-11972031D01*
X9855658Y-11972031D02*
X9865182Y-11991079D01*
X9865182Y-11991079D02*
X9874705Y-12029174D01*
X9874705Y-12029174D02*
X9874705Y-12076793D01*
X9874705Y-12076793D02*
X9865182Y-12114888D01*
X9865182Y-12114888D02*
X9855658Y-12133936D01*
X9855658Y-12133936D02*
X9846134Y-12143460D01*
X9846134Y-12143460D02*
X9827086Y-12152984D01*
X9827086Y-12152984D02*
X9808039Y-12152984D01*
X9808039Y-12152984D02*
X9788991Y-12143460D01*
X9788991Y-12143460D02*
X9779467Y-12133936D01*
X9779467Y-12133936D02*
X9769944Y-12114888D01*
X9769944Y-12114888D02*
X9760420Y-12076793D01*
X9760420Y-12076793D02*
X9760420Y-12029174D01*
X9760420Y-12029174D02*
X9769944Y-11991079D01*
X9769944Y-11991079D02*
X9779467Y-11972031D01*
X9779467Y-11972031D02*
X9788991Y-11962508D01*
X9788991Y-11962508D02*
X9808039Y-11952984D01*
X9960420Y-12152984D02*
X9960420Y-12019650D01*
X9960420Y-12038698D02*
X9969944Y-12029174D01*
X9969944Y-12029174D02*
X9988991Y-12019650D01*
X9988991Y-12019650D02*
X10017563Y-12019650D01*
X10017563Y-12019650D02*
X10036610Y-12029174D01*
X10036610Y-12029174D02*
X10046134Y-12048222D01*
X10046134Y-12048222D02*
X10046134Y-12152984D01*
X10046134Y-12048222D02*
X10055658Y-12029174D01*
X10055658Y-12029174D02*
X10074705Y-12019650D01*
X10074705Y-12019650D02*
X10103277Y-12019650D01*
X10103277Y-12019650D02*
X10122325Y-12029174D01*
X10122325Y-12029174D02*
X10131848Y-12048222D01*
X10131848Y-12048222D02*
X10131848Y-12152984D01*
X10227086Y-12152984D02*
X10227086Y-12019650D01*
X10227086Y-12038698D02*
X10236610Y-12029174D01*
X10236610Y-12029174D02*
X10255658Y-12019650D01*
X10255658Y-12019650D02*
X10284229Y-12019650D01*
X10284229Y-12019650D02*
X10303277Y-12029174D01*
X10303277Y-12029174D02*
X10312801Y-12048222D01*
X10312801Y-12048222D02*
X10312801Y-12152984D01*
X10312801Y-12048222D02*
X10322325Y-12029174D01*
X10322325Y-12029174D02*
X10341372Y-12019650D01*
X10341372Y-12019650D02*
X10369944Y-12019650D01*
X10369944Y-12019650D02*
X10388991Y-12029174D01*
X10388991Y-12029174D02*
X10398515Y-12048222D01*
X10398515Y-12048222D02*
X10398515Y-12152984D01*
X10788991Y-11943460D02*
X10617563Y-12200603D01*
X11046134Y-11952984D02*
X11065182Y-11952984D01*
X11065182Y-11952984D02*
X11084229Y-11962508D01*
X11084229Y-11962508D02*
X11093753Y-11972031D01*
X11093753Y-11972031D02*
X11103277Y-11991079D01*
X11103277Y-11991079D02*
X11112801Y-12029174D01*
X11112801Y-12029174D02*
X11112801Y-12076793D01*
X11112801Y-12076793D02*
X11103277Y-12114888D01*
X11103277Y-12114888D02*
X11093753Y-12133936D01*
X11093753Y-12133936D02*
X11084229Y-12143460D01*
X11084229Y-12143460D02*
X11065182Y-12152984D01*
X11065182Y-12152984D02*
X11046134Y-12152984D01*
X11046134Y-12152984D02*
X11027087Y-12143460D01*
X11027087Y-12143460D02*
X11017563Y-12133936D01*
X11017563Y-12133936D02*
X11008039Y-12114888D01*
X11008039Y-12114888D02*
X10998515Y-12076793D01*
X10998515Y-12076793D02*
X10998515Y-12029174D01*
X10998515Y-12029174D02*
X11008039Y-11991079D01*
X11008039Y-11991079D02*
X11017563Y-11972031D01*
X11017563Y-11972031D02*
X11027087Y-11962508D01*
X11027087Y-11962508D02*
X11046134Y-11952984D01*
X11198515Y-12133936D02*
X11208039Y-12143460D01*
X11208039Y-12143460D02*
X11198515Y-12152984D01*
X11198515Y-12152984D02*
X11188991Y-12143460D01*
X11188991Y-12143460D02*
X11198515Y-12133936D01*
X11198515Y-12133936D02*
X11198515Y-12152984D01*
X11331848Y-11952984D02*
X11350896Y-11952984D01*
X11350896Y-11952984D02*
X11369944Y-11962508D01*
X11369944Y-11962508D02*
X11379467Y-11972031D01*
X11379467Y-11972031D02*
X11388991Y-11991079D01*
X11388991Y-11991079D02*
X11398515Y-12029174D01*
X11398515Y-12029174D02*
X11398515Y-12076793D01*
X11398515Y-12076793D02*
X11388991Y-12114888D01*
X11388991Y-12114888D02*
X11379467Y-12133936D01*
X11379467Y-12133936D02*
X11369944Y-12143460D01*
X11369944Y-12143460D02*
X11350896Y-12152984D01*
X11350896Y-12152984D02*
X11331848Y-12152984D01*
X11331848Y-12152984D02*
X11312801Y-12143460D01*
X11312801Y-12143460D02*
X11303277Y-12133936D01*
X11303277Y-12133936D02*
X11293753Y-12114888D01*
X11293753Y-12114888D02*
X11284229Y-12076793D01*
X11284229Y-12076793D02*
X11284229Y-12029174D01*
X11284229Y-12029174D02*
X11293753Y-11991079D01*
X11293753Y-11991079D02*
X11303277Y-11972031D01*
X11303277Y-11972031D02*
X11312801Y-11962508D01*
X11312801Y-11962508D02*
X11331848Y-11952984D01*
X11474706Y-11972031D02*
X11484229Y-11962508D01*
X11484229Y-11962508D02*
X11503277Y-11952984D01*
X11503277Y-11952984D02*
X11550896Y-11952984D01*
X11550896Y-11952984D02*
X11569944Y-11962508D01*
X11569944Y-11962508D02*
X11579467Y-11972031D01*
X11579467Y-11972031D02*
X11588991Y-11991079D01*
X11588991Y-11991079D02*
X11588991Y-12010127D01*
X11588991Y-12010127D02*
X11579467Y-12038698D01*
X11579467Y-12038698D02*
X11465182Y-12152984D01*
X11465182Y-12152984D02*
X11588991Y-12152984D01*
X11684229Y-12152984D02*
X11722325Y-12152984D01*
X11722325Y-12152984D02*
X11741372Y-12143460D01*
X11741372Y-12143460D02*
X11750896Y-12133936D01*
X11750896Y-12133936D02*
X11769944Y-12105365D01*
X11769944Y-12105365D02*
X11779467Y-12067269D01*
X11779467Y-12067269D02*
X11779467Y-11991079D01*
X11779467Y-11991079D02*
X11769944Y-11972031D01*
X11769944Y-11972031D02*
X11760420Y-11962508D01*
X11760420Y-11962508D02*
X11741372Y-11952984D01*
X11741372Y-11952984D02*
X11703277Y-11952984D01*
X11703277Y-11952984D02*
X11684229Y-11962508D01*
X11684229Y-11962508D02*
X11674706Y-11972031D01*
X11674706Y-11972031D02*
X11665182Y-11991079D01*
X11665182Y-11991079D02*
X11665182Y-12038698D01*
X11665182Y-12038698D02*
X11674706Y-12057746D01*
X11674706Y-12057746D02*
X11684229Y-12067269D01*
X11684229Y-12067269D02*
X11703277Y-12076793D01*
X11703277Y-12076793D02*
X11741372Y-12076793D01*
X11741372Y-12076793D02*
X11760420Y-12067269D01*
X11760420Y-12067269D02*
X11769944Y-12057746D01*
X11769944Y-12057746D02*
X11779467Y-12038698D01*
X11960420Y-11952984D02*
X11865182Y-11952984D01*
X11865182Y-11952984D02*
X11855658Y-12048222D01*
X11855658Y-12048222D02*
X11865182Y-12038698D01*
X11865182Y-12038698D02*
X11884229Y-12029174D01*
X11884229Y-12029174D02*
X11931848Y-12029174D01*
X11931848Y-12029174D02*
X11950896Y-12038698D01*
X11950896Y-12038698D02*
X11960420Y-12048222D01*
X11960420Y-12048222D02*
X11969944Y-12067269D01*
X11969944Y-12067269D02*
X11969944Y-12114888D01*
X11969944Y-12114888D02*
X11960420Y-12133936D01*
X11960420Y-12133936D02*
X11950896Y-12143460D01*
X11950896Y-12143460D02*
X11931848Y-12152984D01*
X11931848Y-12152984D02*
X11884229Y-12152984D01*
X11884229Y-12152984D02*
X11865182Y-12143460D01*
X11865182Y-12143460D02*
X11855658Y-12133936D01*
X12046134Y-11952984D02*
X12046134Y-11991079D01*
X12122325Y-11952984D02*
X12122325Y-11991079D01*
X12417563Y-12229174D02*
X12408039Y-12219650D01*
X12408039Y-12219650D02*
X12388991Y-12191079D01*
X12388991Y-12191079D02*
X12379468Y-12172031D01*
X12379468Y-12172031D02*
X12369944Y-12143460D01*
X12369944Y-12143460D02*
X12360420Y-12095841D01*
X12360420Y-12095841D02*
X12360420Y-12057746D01*
X12360420Y-12057746D02*
X12369944Y-12010127D01*
X12369944Y-12010127D02*
X12379468Y-11981555D01*
X12379468Y-11981555D02*
X12388991Y-11962508D01*
X12388991Y-11962508D02*
X12408039Y-11933936D01*
X12408039Y-11933936D02*
X12417563Y-11924412D01*
X12484229Y-11972031D02*
X12493753Y-11962508D01*
X12493753Y-11962508D02*
X12512801Y-11952984D01*
X12512801Y-11952984D02*
X12560420Y-11952984D01*
X12560420Y-11952984D02*
X12579468Y-11962508D01*
X12579468Y-11962508D02*
X12588991Y-11972031D01*
X12588991Y-11972031D02*
X12598515Y-11991079D01*
X12598515Y-11991079D02*
X12598515Y-12010127D01*
X12598515Y-12010127D02*
X12588991Y-12038698D01*
X12588991Y-12038698D02*
X12474706Y-12152984D01*
X12474706Y-12152984D02*
X12598515Y-12152984D01*
X12836610Y-12152984D02*
X12836610Y-11952984D01*
X12922325Y-12152984D02*
X12922325Y-12048222D01*
X12922325Y-12048222D02*
X12912801Y-12029174D01*
X12912801Y-12029174D02*
X12893753Y-12019650D01*
X12893753Y-12019650D02*
X12865182Y-12019650D01*
X12865182Y-12019650D02*
X12846134Y-12029174D01*
X12846134Y-12029174D02*
X12836610Y-12038698D01*
X13046134Y-12152984D02*
X13027087Y-12143460D01*
X13027087Y-12143460D02*
X13017563Y-12133936D01*
X13017563Y-12133936D02*
X13008039Y-12114888D01*
X13008039Y-12114888D02*
X13008039Y-12057746D01*
X13008039Y-12057746D02*
X13017563Y-12038698D01*
X13017563Y-12038698D02*
X13027087Y-12029174D01*
X13027087Y-12029174D02*
X13046134Y-12019650D01*
X13046134Y-12019650D02*
X13074706Y-12019650D01*
X13074706Y-12019650D02*
X13093753Y-12029174D01*
X13093753Y-12029174D02*
X13103277Y-12038698D01*
X13103277Y-12038698D02*
X13112801Y-12057746D01*
X13112801Y-12057746D02*
X13112801Y-12114888D01*
X13112801Y-12114888D02*
X13103277Y-12133936D01*
X13103277Y-12133936D02*
X13093753Y-12143460D01*
X13093753Y-12143460D02*
X13074706Y-12152984D01*
X13074706Y-12152984D02*
X13046134Y-12152984D01*
X13227087Y-12152984D02*
X13208039Y-12143460D01*
X13208039Y-12143460D02*
X13198515Y-12124412D01*
X13198515Y-12124412D02*
X13198515Y-11952984D01*
X13379468Y-12143460D02*
X13360420Y-12152984D01*
X13360420Y-12152984D02*
X13322325Y-12152984D01*
X13322325Y-12152984D02*
X13303277Y-12143460D01*
X13303277Y-12143460D02*
X13293753Y-12124412D01*
X13293753Y-12124412D02*
X13293753Y-12048222D01*
X13293753Y-12048222D02*
X13303277Y-12029174D01*
X13303277Y-12029174D02*
X13322325Y-12019650D01*
X13322325Y-12019650D02*
X13360420Y-12019650D01*
X13360420Y-12019650D02*
X13379468Y-12029174D01*
X13379468Y-12029174D02*
X13388991Y-12048222D01*
X13388991Y-12048222D02*
X13388991Y-12067269D01*
X13388991Y-12067269D02*
X13293753Y-12086317D01*
X13465182Y-12143460D02*
X13484230Y-12152984D01*
X13484230Y-12152984D02*
X13522325Y-12152984D01*
X13522325Y-12152984D02*
X13541372Y-12143460D01*
X13541372Y-12143460D02*
X13550896Y-12124412D01*
X13550896Y-12124412D02*
X13550896Y-12114888D01*
X13550896Y-12114888D02*
X13541372Y-12095841D01*
X13541372Y-12095841D02*
X13522325Y-12086317D01*
X13522325Y-12086317D02*
X13493753Y-12086317D01*
X13493753Y-12086317D02*
X13474706Y-12076793D01*
X13474706Y-12076793D02*
X13465182Y-12057746D01*
X13465182Y-12057746D02*
X13465182Y-12048222D01*
X13465182Y-12048222D02*
X13474706Y-12029174D01*
X13474706Y-12029174D02*
X13493753Y-12019650D01*
X13493753Y-12019650D02*
X13522325Y-12019650D01*
X13522325Y-12019650D02*
X13541372Y-12029174D01*
X13617563Y-12229174D02*
X13627087Y-12219650D01*
X13627087Y-12219650D02*
X13646134Y-12191079D01*
X13646134Y-12191079D02*
X13655658Y-12172031D01*
X13655658Y-12172031D02*
X13665182Y-12143460D01*
X13665182Y-12143460D02*
X13674706Y-12095841D01*
X13674706Y-12095841D02*
X13674706Y-12057746D01*
X13674706Y-12057746D02*
X13665182Y-12010127D01*
X13665182Y-12010127D02*
X13655658Y-11981555D01*
X13655658Y-11981555D02*
X13646134Y-11962508D01*
X13646134Y-11962508D02*
X13627087Y-11933936D01*
X13627087Y-11933936D02*
X13617563Y-11924412D01*
D12*
X8792500Y-12275500D02*
X8792500Y-12375500D01*
X8742500Y-12325500D02*
X8842500Y-12325500D01*
D11*
X9208039Y-12416984D02*
X9093753Y-12416984D01*
X9150896Y-12416984D02*
X9150896Y-12216984D01*
X9150896Y-12216984D02*
X9131848Y-12245555D01*
X9131848Y-12245555D02*
X9112801Y-12264603D01*
X9112801Y-12264603D02*
X9093753Y-12274127D01*
X9293753Y-12397936D02*
X9303277Y-12407460D01*
X9303277Y-12407460D02*
X9293753Y-12416984D01*
X9293753Y-12416984D02*
X9284229Y-12407460D01*
X9284229Y-12407460D02*
X9293753Y-12397936D01*
X9293753Y-12397936D02*
X9293753Y-12416984D01*
X9427086Y-12216984D02*
X9446134Y-12216984D01*
X9446134Y-12216984D02*
X9465182Y-12226508D01*
X9465182Y-12226508D02*
X9474705Y-12236031D01*
X9474705Y-12236031D02*
X9484229Y-12255079D01*
X9484229Y-12255079D02*
X9493753Y-12293174D01*
X9493753Y-12293174D02*
X9493753Y-12340793D01*
X9493753Y-12340793D02*
X9484229Y-12378888D01*
X9484229Y-12378888D02*
X9474705Y-12397936D01*
X9474705Y-12397936D02*
X9465182Y-12407460D01*
X9465182Y-12407460D02*
X9446134Y-12416984D01*
X9446134Y-12416984D02*
X9427086Y-12416984D01*
X9427086Y-12416984D02*
X9408039Y-12407460D01*
X9408039Y-12407460D02*
X9398515Y-12397936D01*
X9398515Y-12397936D02*
X9388991Y-12378888D01*
X9388991Y-12378888D02*
X9379467Y-12340793D01*
X9379467Y-12340793D02*
X9379467Y-12293174D01*
X9379467Y-12293174D02*
X9388991Y-12255079D01*
X9388991Y-12255079D02*
X9398515Y-12236031D01*
X9398515Y-12236031D02*
X9408039Y-12226508D01*
X9408039Y-12226508D02*
X9427086Y-12216984D01*
X9617563Y-12216984D02*
X9636610Y-12216984D01*
X9636610Y-12216984D02*
X9655658Y-12226508D01*
X9655658Y-12226508D02*
X9665182Y-12236031D01*
X9665182Y-12236031D02*
X9674705Y-12255079D01*
X9674705Y-12255079D02*
X9684229Y-12293174D01*
X9684229Y-12293174D02*
X9684229Y-12340793D01*
X9684229Y-12340793D02*
X9674705Y-12378888D01*
X9674705Y-12378888D02*
X9665182Y-12397936D01*
X9665182Y-12397936D02*
X9655658Y-12407460D01*
X9655658Y-12407460D02*
X9636610Y-12416984D01*
X9636610Y-12416984D02*
X9617563Y-12416984D01*
X9617563Y-12416984D02*
X9598515Y-12407460D01*
X9598515Y-12407460D02*
X9588991Y-12397936D01*
X9588991Y-12397936D02*
X9579467Y-12378888D01*
X9579467Y-12378888D02*
X9569944Y-12340793D01*
X9569944Y-12340793D02*
X9569944Y-12293174D01*
X9569944Y-12293174D02*
X9579467Y-12255079D01*
X9579467Y-12255079D02*
X9588991Y-12236031D01*
X9588991Y-12236031D02*
X9598515Y-12226508D01*
X9598515Y-12226508D02*
X9617563Y-12216984D01*
X9808039Y-12216984D02*
X9827086Y-12216984D01*
X9827086Y-12216984D02*
X9846134Y-12226508D01*
X9846134Y-12226508D02*
X9855658Y-12236031D01*
X9855658Y-12236031D02*
X9865182Y-12255079D01*
X9865182Y-12255079D02*
X9874705Y-12293174D01*
X9874705Y-12293174D02*
X9874705Y-12340793D01*
X9874705Y-12340793D02*
X9865182Y-12378888D01*
X9865182Y-12378888D02*
X9855658Y-12397936D01*
X9855658Y-12397936D02*
X9846134Y-12407460D01*
X9846134Y-12407460D02*
X9827086Y-12416984D01*
X9827086Y-12416984D02*
X9808039Y-12416984D01*
X9808039Y-12416984D02*
X9788991Y-12407460D01*
X9788991Y-12407460D02*
X9779467Y-12397936D01*
X9779467Y-12397936D02*
X9769944Y-12378888D01*
X9769944Y-12378888D02*
X9760420Y-12340793D01*
X9760420Y-12340793D02*
X9760420Y-12293174D01*
X9760420Y-12293174D02*
X9769944Y-12255079D01*
X9769944Y-12255079D02*
X9779467Y-12236031D01*
X9779467Y-12236031D02*
X9788991Y-12226508D01*
X9788991Y-12226508D02*
X9808039Y-12216984D01*
X9960420Y-12416984D02*
X9960420Y-12283650D01*
X9960420Y-12302698D02*
X9969944Y-12293174D01*
X9969944Y-12293174D02*
X9988991Y-12283650D01*
X9988991Y-12283650D02*
X10017563Y-12283650D01*
X10017563Y-12283650D02*
X10036610Y-12293174D01*
X10036610Y-12293174D02*
X10046134Y-12312222D01*
X10046134Y-12312222D02*
X10046134Y-12416984D01*
X10046134Y-12312222D02*
X10055658Y-12293174D01*
X10055658Y-12293174D02*
X10074705Y-12283650D01*
X10074705Y-12283650D02*
X10103277Y-12283650D01*
X10103277Y-12283650D02*
X10122325Y-12293174D01*
X10122325Y-12293174D02*
X10131848Y-12312222D01*
X10131848Y-12312222D02*
X10131848Y-12416984D01*
X10227086Y-12416984D02*
X10227086Y-12283650D01*
X10227086Y-12302698D02*
X10236610Y-12293174D01*
X10236610Y-12293174D02*
X10255658Y-12283650D01*
X10255658Y-12283650D02*
X10284229Y-12283650D01*
X10284229Y-12283650D02*
X10303277Y-12293174D01*
X10303277Y-12293174D02*
X10312801Y-12312222D01*
X10312801Y-12312222D02*
X10312801Y-12416984D01*
X10312801Y-12312222D02*
X10322325Y-12293174D01*
X10322325Y-12293174D02*
X10341372Y-12283650D01*
X10341372Y-12283650D02*
X10369944Y-12283650D01*
X10369944Y-12283650D02*
X10388991Y-12293174D01*
X10388991Y-12293174D02*
X10398515Y-12312222D01*
X10398515Y-12312222D02*
X10398515Y-12416984D01*
X10788991Y-12207460D02*
X10617563Y-12464603D01*
X11046134Y-12216984D02*
X11065182Y-12216984D01*
X11065182Y-12216984D02*
X11084229Y-12226508D01*
X11084229Y-12226508D02*
X11093753Y-12236031D01*
X11093753Y-12236031D02*
X11103277Y-12255079D01*
X11103277Y-12255079D02*
X11112801Y-12293174D01*
X11112801Y-12293174D02*
X11112801Y-12340793D01*
X11112801Y-12340793D02*
X11103277Y-12378888D01*
X11103277Y-12378888D02*
X11093753Y-12397936D01*
X11093753Y-12397936D02*
X11084229Y-12407460D01*
X11084229Y-12407460D02*
X11065182Y-12416984D01*
X11065182Y-12416984D02*
X11046134Y-12416984D01*
X11046134Y-12416984D02*
X11027087Y-12407460D01*
X11027087Y-12407460D02*
X11017563Y-12397936D01*
X11017563Y-12397936D02*
X11008039Y-12378888D01*
X11008039Y-12378888D02*
X10998515Y-12340793D01*
X10998515Y-12340793D02*
X10998515Y-12293174D01*
X10998515Y-12293174D02*
X11008039Y-12255079D01*
X11008039Y-12255079D02*
X11017563Y-12236031D01*
X11017563Y-12236031D02*
X11027087Y-12226508D01*
X11027087Y-12226508D02*
X11046134Y-12216984D01*
X11198515Y-12397936D02*
X11208039Y-12407460D01*
X11208039Y-12407460D02*
X11198515Y-12416984D01*
X11198515Y-12416984D02*
X11188991Y-12407460D01*
X11188991Y-12407460D02*
X11198515Y-12397936D01*
X11198515Y-12397936D02*
X11198515Y-12416984D01*
X11331848Y-12216984D02*
X11350896Y-12216984D01*
X11350896Y-12216984D02*
X11369944Y-12226508D01*
X11369944Y-12226508D02*
X11379467Y-12236031D01*
X11379467Y-12236031D02*
X11388991Y-12255079D01*
X11388991Y-12255079D02*
X11398515Y-12293174D01*
X11398515Y-12293174D02*
X11398515Y-12340793D01*
X11398515Y-12340793D02*
X11388991Y-12378888D01*
X11388991Y-12378888D02*
X11379467Y-12397936D01*
X11379467Y-12397936D02*
X11369944Y-12407460D01*
X11369944Y-12407460D02*
X11350896Y-12416984D01*
X11350896Y-12416984D02*
X11331848Y-12416984D01*
X11331848Y-12416984D02*
X11312801Y-12407460D01*
X11312801Y-12407460D02*
X11303277Y-12397936D01*
X11303277Y-12397936D02*
X11293753Y-12378888D01*
X11293753Y-12378888D02*
X11284229Y-12340793D01*
X11284229Y-12340793D02*
X11284229Y-12293174D01*
X11284229Y-12293174D02*
X11293753Y-12255079D01*
X11293753Y-12255079D02*
X11303277Y-12236031D01*
X11303277Y-12236031D02*
X11312801Y-12226508D01*
X11312801Y-12226508D02*
X11331848Y-12216984D01*
X11465182Y-12216984D02*
X11588991Y-12216984D01*
X11588991Y-12216984D02*
X11522325Y-12293174D01*
X11522325Y-12293174D02*
X11550896Y-12293174D01*
X11550896Y-12293174D02*
X11569944Y-12302698D01*
X11569944Y-12302698D02*
X11579467Y-12312222D01*
X11579467Y-12312222D02*
X11588991Y-12331269D01*
X11588991Y-12331269D02*
X11588991Y-12378888D01*
X11588991Y-12378888D02*
X11579467Y-12397936D01*
X11579467Y-12397936D02*
X11569944Y-12407460D01*
X11569944Y-12407460D02*
X11550896Y-12416984D01*
X11550896Y-12416984D02*
X11493753Y-12416984D01*
X11493753Y-12416984D02*
X11474706Y-12407460D01*
X11474706Y-12407460D02*
X11465182Y-12397936D01*
X11684229Y-12416984D02*
X11722325Y-12416984D01*
X11722325Y-12416984D02*
X11741372Y-12407460D01*
X11741372Y-12407460D02*
X11750896Y-12397936D01*
X11750896Y-12397936D02*
X11769944Y-12369365D01*
X11769944Y-12369365D02*
X11779467Y-12331269D01*
X11779467Y-12331269D02*
X11779467Y-12255079D01*
X11779467Y-12255079D02*
X11769944Y-12236031D01*
X11769944Y-12236031D02*
X11760420Y-12226508D01*
X11760420Y-12226508D02*
X11741372Y-12216984D01*
X11741372Y-12216984D02*
X11703277Y-12216984D01*
X11703277Y-12216984D02*
X11684229Y-12226508D01*
X11684229Y-12226508D02*
X11674706Y-12236031D01*
X11674706Y-12236031D02*
X11665182Y-12255079D01*
X11665182Y-12255079D02*
X11665182Y-12302698D01*
X11665182Y-12302698D02*
X11674706Y-12321746D01*
X11674706Y-12321746D02*
X11684229Y-12331269D01*
X11684229Y-12331269D02*
X11703277Y-12340793D01*
X11703277Y-12340793D02*
X11741372Y-12340793D01*
X11741372Y-12340793D02*
X11760420Y-12331269D01*
X11760420Y-12331269D02*
X11769944Y-12321746D01*
X11769944Y-12321746D02*
X11779467Y-12302698D01*
X11950896Y-12283650D02*
X11950896Y-12416984D01*
X11903277Y-12207460D02*
X11855658Y-12350317D01*
X11855658Y-12350317D02*
X11979467Y-12350317D01*
X12046134Y-12216984D02*
X12046134Y-12255079D01*
X12122325Y-12216984D02*
X12122325Y-12255079D01*
X12417563Y-12493174D02*
X12408039Y-12483650D01*
X12408039Y-12483650D02*
X12388991Y-12455079D01*
X12388991Y-12455079D02*
X12379468Y-12436031D01*
X12379468Y-12436031D02*
X12369944Y-12407460D01*
X12369944Y-12407460D02*
X12360420Y-12359841D01*
X12360420Y-12359841D02*
X12360420Y-12321746D01*
X12360420Y-12321746D02*
X12369944Y-12274127D01*
X12369944Y-12274127D02*
X12379468Y-12245555D01*
X12379468Y-12245555D02*
X12388991Y-12226508D01*
X12388991Y-12226508D02*
X12408039Y-12197936D01*
X12408039Y-12197936D02*
X12417563Y-12188412D01*
X12484229Y-12236031D02*
X12493753Y-12226508D01*
X12493753Y-12226508D02*
X12512801Y-12216984D01*
X12512801Y-12216984D02*
X12560420Y-12216984D01*
X12560420Y-12216984D02*
X12579468Y-12226508D01*
X12579468Y-12226508D02*
X12588991Y-12236031D01*
X12588991Y-12236031D02*
X12598515Y-12255079D01*
X12598515Y-12255079D02*
X12598515Y-12274127D01*
X12598515Y-12274127D02*
X12588991Y-12302698D01*
X12588991Y-12302698D02*
X12474706Y-12416984D01*
X12474706Y-12416984D02*
X12598515Y-12416984D01*
X12769944Y-12283650D02*
X12769944Y-12416984D01*
X12722325Y-12207460D02*
X12674706Y-12350317D01*
X12674706Y-12350317D02*
X12798515Y-12350317D01*
X13027087Y-12416984D02*
X13027087Y-12216984D01*
X13112801Y-12416984D02*
X13112801Y-12312222D01*
X13112801Y-12312222D02*
X13103277Y-12293174D01*
X13103277Y-12293174D02*
X13084230Y-12283650D01*
X13084230Y-12283650D02*
X13055658Y-12283650D01*
X13055658Y-12283650D02*
X13036610Y-12293174D01*
X13036610Y-12293174D02*
X13027087Y-12302698D01*
X13236610Y-12416984D02*
X13217563Y-12407460D01*
X13217563Y-12407460D02*
X13208039Y-12397936D01*
X13208039Y-12397936D02*
X13198515Y-12378888D01*
X13198515Y-12378888D02*
X13198515Y-12321746D01*
X13198515Y-12321746D02*
X13208039Y-12302698D01*
X13208039Y-12302698D02*
X13217563Y-12293174D01*
X13217563Y-12293174D02*
X13236610Y-12283650D01*
X13236610Y-12283650D02*
X13265182Y-12283650D01*
X13265182Y-12283650D02*
X13284230Y-12293174D01*
X13284230Y-12293174D02*
X13293753Y-12302698D01*
X13293753Y-12302698D02*
X13303277Y-12321746D01*
X13303277Y-12321746D02*
X13303277Y-12378888D01*
X13303277Y-12378888D02*
X13293753Y-12397936D01*
X13293753Y-12397936D02*
X13284230Y-12407460D01*
X13284230Y-12407460D02*
X13265182Y-12416984D01*
X13265182Y-12416984D02*
X13236610Y-12416984D01*
X13417563Y-12416984D02*
X13398515Y-12407460D01*
X13398515Y-12407460D02*
X13388991Y-12388412D01*
X13388991Y-12388412D02*
X13388991Y-12216984D01*
X13569944Y-12407460D02*
X13550896Y-12416984D01*
X13550896Y-12416984D02*
X13512801Y-12416984D01*
X13512801Y-12416984D02*
X13493753Y-12407460D01*
X13493753Y-12407460D02*
X13484230Y-12388412D01*
X13484230Y-12388412D02*
X13484230Y-12312222D01*
X13484230Y-12312222D02*
X13493753Y-12293174D01*
X13493753Y-12293174D02*
X13512801Y-12283650D01*
X13512801Y-12283650D02*
X13550896Y-12283650D01*
X13550896Y-12283650D02*
X13569944Y-12293174D01*
X13569944Y-12293174D02*
X13579468Y-12312222D01*
X13579468Y-12312222D02*
X13579468Y-12331269D01*
X13579468Y-12331269D02*
X13484230Y-12350317D01*
X13655658Y-12407460D02*
X13674706Y-12416984D01*
X13674706Y-12416984D02*
X13712801Y-12416984D01*
X13712801Y-12416984D02*
X13731849Y-12407460D01*
X13731849Y-12407460D02*
X13741372Y-12388412D01*
X13741372Y-12388412D02*
X13741372Y-12378888D01*
X13741372Y-12378888D02*
X13731849Y-12359841D01*
X13731849Y-12359841D02*
X13712801Y-12350317D01*
X13712801Y-12350317D02*
X13684230Y-12350317D01*
X13684230Y-12350317D02*
X13665182Y-12340793D01*
X13665182Y-12340793D02*
X13655658Y-12321746D01*
X13655658Y-12321746D02*
X13655658Y-12312222D01*
X13655658Y-12312222D02*
X13665182Y-12293174D01*
X13665182Y-12293174D02*
X13684230Y-12283650D01*
X13684230Y-12283650D02*
X13712801Y-12283650D01*
X13712801Y-12283650D02*
X13731849Y-12293174D01*
X13808039Y-12493174D02*
X13817563Y-12483650D01*
X13817563Y-12483650D02*
X13836611Y-12455079D01*
X13836611Y-12455079D02*
X13846134Y-12436031D01*
X13846134Y-12436031D02*
X13855658Y-12407460D01*
X13855658Y-12407460D02*
X13865182Y-12359841D01*
X13865182Y-12359841D02*
X13865182Y-12321746D01*
X13865182Y-12321746D02*
X13855658Y-12274127D01*
X13855658Y-12274127D02*
X13846134Y-12245555D01*
X13846134Y-12245555D02*
X13836611Y-12226508D01*
X13836611Y-12226508D02*
X13817563Y-12197936D01*
X13817563Y-12197936D02*
X13808039Y-12188412D01*
M02*
