%TF.GenerationSoftware,KiCad,Pcbnew,8.0.6+1*%
%TF.CreationDate,2024-11-11T16:02:32+00:00*%
%TF.ProjectId,not_about_money_autorouted,6e6f745f-6162-46f7-9574-5f6d6f6e6579,v1.0.0*%
%TF.SameCoordinates,Original*%
%TF.FileFunction,Drillmap*%
%TF.FilePolarity,Positive*%
%FSLAX45Y45*%
G04 Gerber Fmt 4.5, Leading zero omitted, Abs format (unit mm)*
G04 Created by KiCad (PCBNEW 8.0.6+1) date 2024-11-11 16:02:32*
%MOMM*%
%LPD*%
G01*
G04 APERTURE LIST*
%ADD10C,0.150000*%
%ADD11C,0.200000*%
%ADD12C,0.100000*%
%ADD13C,0.190000*%
%ADD14C,0.220000*%
%ADD15C,0.300000*%
%ADD16C,0.410000*%
G04 APERTURE END LIST*
D10*
X20450000Y-11150000D02*
X9050000Y-11150000D01*
X9050000Y-3150000D02*
X20450000Y-3150000D01*
X20650000Y-3350000D02*
X20650000Y-10950000D01*
X20650000Y-10950000D02*
G75*
G02*
X20450000Y-11150000I-200000J0D01*
G01*
X9050000Y-11150000D02*
G75*
G02*
X8850000Y-10950000I0J200000D01*
G01*
X20450000Y-3150000D02*
G75*
G02*
X20650000Y-3350000I0J-200000D01*
G01*
X8850000Y-10950000D02*
X8850000Y-3350000D01*
X8850000Y-3350000D02*
G75*
G02*
X9050000Y-3150000I200000J0D01*
G01*
D11*
D12*
X12812500Y-3200000D02*
X12887500Y-3275000D01*
X12887500Y-3200000D02*
X12812500Y-3275000D01*
X12812500Y-3475000D02*
X12887500Y-3550000D01*
X12887500Y-3475000D02*
X12812500Y-3550000D01*
X9072500Y-7000000D02*
G75*
G02*
X8982500Y-7000000I-45000J0D01*
G01*
X8982500Y-7000000D02*
G75*
G02*
X9072500Y-7000000I45000J0D01*
G01*
X9072500Y-7300000D02*
G75*
G02*
X8982500Y-7300000I-45000J0D01*
G01*
X8982500Y-7300000D02*
G75*
G02*
X9072500Y-7300000I45000J0D01*
G01*
D13*
X9492000Y-4205000D02*
X9492000Y-4395000D01*
X9397000Y-4300000D02*
X9587000Y-4300000D01*
X9492000Y-6105000D02*
X9492000Y-6295000D01*
X9397000Y-6200000D02*
X9587000Y-6200000D01*
X9492000Y-8005000D02*
X9492000Y-8195000D01*
X9397000Y-8100000D02*
X9587000Y-8100000D01*
X9492000Y-9905000D02*
X9492000Y-10095000D01*
X9397000Y-10000000D02*
X9587000Y-10000000D01*
X10508000Y-4205000D02*
X10508000Y-4395000D01*
X10413000Y-4300000D02*
X10603000Y-4300000D01*
X10508000Y-6105000D02*
X10508000Y-6295000D01*
X10413000Y-6200000D02*
X10603000Y-6200000D01*
X10508000Y-8005000D02*
X10508000Y-8195000D01*
X10413000Y-8100000D02*
X10603000Y-8100000D01*
X10508000Y-9905000D02*
X10508000Y-10095000D01*
X10413000Y-10000000D02*
X10603000Y-10000000D01*
X11392000Y-4205000D02*
X11392000Y-4395000D01*
X11297000Y-4300000D02*
X11487000Y-4300000D01*
X11392000Y-6105000D02*
X11392000Y-6295000D01*
X11297000Y-6200000D02*
X11487000Y-6200000D01*
X11392000Y-8005000D02*
X11392000Y-8195000D01*
X11297000Y-8100000D02*
X11487000Y-8100000D01*
X11392000Y-9905000D02*
X11392000Y-10095000D01*
X11297000Y-10000000D02*
X11487000Y-10000000D01*
X12408000Y-4205000D02*
X12408000Y-4395000D01*
X12313000Y-4300000D02*
X12503000Y-4300000D01*
X12408000Y-6105000D02*
X12408000Y-6295000D01*
X12313000Y-6200000D02*
X12503000Y-6200000D01*
X12408000Y-8005000D02*
X12408000Y-8195000D01*
X12313000Y-8100000D02*
X12503000Y-8100000D01*
X12408000Y-9905000D02*
X12408000Y-10095000D01*
X12313000Y-10000000D02*
X12503000Y-10000000D01*
X13292000Y-4205000D02*
X13292000Y-4395000D01*
X13197000Y-4300000D02*
X13387000Y-4300000D01*
X13292000Y-6105000D02*
X13292000Y-6295000D01*
X13197000Y-6200000D02*
X13387000Y-6200000D01*
X13292000Y-8005000D02*
X13292000Y-8195000D01*
X13197000Y-8100000D02*
X13387000Y-8100000D01*
X13292000Y-9905000D02*
X13292000Y-10095000D01*
X13197000Y-10000000D02*
X13387000Y-10000000D01*
X14308000Y-4205000D02*
X14308000Y-4395000D01*
X14213000Y-4300000D02*
X14403000Y-4300000D01*
X14308000Y-6105000D02*
X14308000Y-6295000D01*
X14213000Y-6200000D02*
X14403000Y-6200000D01*
X14308000Y-8005000D02*
X14308000Y-8195000D01*
X14213000Y-8100000D02*
X14403000Y-8100000D01*
X14308000Y-9905000D02*
X14308000Y-10095000D01*
X14213000Y-10000000D02*
X14403000Y-10000000D01*
X15192000Y-4205000D02*
X15192000Y-4395000D01*
X15097000Y-4300000D02*
X15287000Y-4300000D01*
X15192000Y-6105000D02*
X15192000Y-6295000D01*
X15097000Y-6200000D02*
X15287000Y-6200000D01*
X15192000Y-8005000D02*
X15192000Y-8195000D01*
X15097000Y-8100000D02*
X15287000Y-8100000D01*
X15192000Y-9905000D02*
X15192000Y-10095000D01*
X15097000Y-10000000D02*
X15287000Y-10000000D01*
X16208000Y-4205000D02*
X16208000Y-4395000D01*
X16113000Y-4300000D02*
X16303000Y-4300000D01*
X16208000Y-6105000D02*
X16208000Y-6295000D01*
X16113000Y-6200000D02*
X16303000Y-6200000D01*
X16208000Y-8005000D02*
X16208000Y-8195000D01*
X16113000Y-8100000D02*
X16303000Y-8100000D01*
X16208000Y-9905000D02*
X16208000Y-10095000D01*
X16113000Y-10000000D02*
X16303000Y-10000000D01*
X17092000Y-4205000D02*
X17092000Y-4395000D01*
X16997000Y-4300000D02*
X17187000Y-4300000D01*
X17092000Y-6105000D02*
X17092000Y-6295000D01*
X16997000Y-6200000D02*
X17187000Y-6200000D01*
X17092000Y-8005000D02*
X17092000Y-8195000D01*
X16997000Y-8100000D02*
X17187000Y-8100000D01*
X17092000Y-9905000D02*
X17092000Y-10095000D01*
X16997000Y-10000000D02*
X17187000Y-10000000D01*
X18108000Y-4205000D02*
X18108000Y-4395000D01*
X18013000Y-4300000D02*
X18203000Y-4300000D01*
X18108000Y-6105000D02*
X18108000Y-6295000D01*
X18013000Y-6200000D02*
X18203000Y-6200000D01*
X18108000Y-8005000D02*
X18108000Y-8195000D01*
X18013000Y-8100000D02*
X18203000Y-8100000D01*
X18108000Y-9905000D02*
X18108000Y-10095000D01*
X18013000Y-10000000D02*
X18203000Y-10000000D01*
X18992000Y-4205000D02*
X18992000Y-4395000D01*
X18897000Y-4300000D02*
X19087000Y-4300000D01*
X18992000Y-6105000D02*
X18992000Y-6295000D01*
X18897000Y-6200000D02*
X19087000Y-6200000D01*
X18992000Y-8005000D02*
X18992000Y-8195000D01*
X18897000Y-8100000D02*
X19087000Y-8100000D01*
X18992000Y-9905000D02*
X18992000Y-10095000D01*
X18897000Y-10000000D02*
X19087000Y-10000000D01*
X20008000Y-4205000D02*
X20008000Y-4395000D01*
X19913000Y-4300000D02*
X20103000Y-4300000D01*
X20008000Y-6105000D02*
X20008000Y-6295000D01*
X19913000Y-6200000D02*
X20103000Y-6200000D01*
X20008000Y-8005000D02*
X20008000Y-8195000D01*
X19913000Y-8100000D02*
X20103000Y-8100000D01*
X20008000Y-9905000D02*
X20008000Y-10095000D01*
X19913000Y-10000000D02*
X20103000Y-10000000D01*
D14*
X11027783Y-9127783D02*
X11027783Y-8972218D01*
X10872218Y-8972218D01*
X10872218Y-9127783D01*
X11027783Y-9127783D01*
X12927782Y-5327783D02*
X12927782Y-5172218D01*
X12772217Y-5172218D01*
X12772217Y-5327783D01*
X12927782Y-5327783D01*
X14827782Y-7227782D02*
X14827782Y-7072217D01*
X14672217Y-7072217D01*
X14672217Y-7227782D01*
X14827782Y-7227782D01*
X18627783Y-5327783D02*
X18627783Y-5172218D01*
X18472218Y-5172218D01*
X18472218Y-5327783D01*
X18627783Y-5327783D01*
X18627783Y-9127783D02*
X18627783Y-8972218D01*
X18472218Y-8972218D01*
X18472218Y-9127783D01*
X18627783Y-9127783D01*
D15*
X9619000Y-4196000D02*
X9769000Y-4046000D01*
X9619000Y-3896000D01*
X9469000Y-4046000D01*
X9619000Y-4196000D01*
X9619000Y-6096000D02*
X9769000Y-5946000D01*
X9619000Y-5796000D01*
X9469000Y-5946000D01*
X9619000Y-6096000D01*
X9619000Y-7996000D02*
X9769000Y-7846000D01*
X9619000Y-7696000D01*
X9469000Y-7846000D01*
X9619000Y-7996000D01*
X9619000Y-9896000D02*
X9769000Y-9746000D01*
X9619000Y-9596000D01*
X9469000Y-9746000D01*
X9619000Y-9896000D01*
X10254000Y-3942000D02*
X10404000Y-3792000D01*
X10254000Y-3642000D01*
X10104000Y-3792000D01*
X10254000Y-3942000D01*
X10254000Y-5842000D02*
X10404000Y-5692000D01*
X10254000Y-5542000D01*
X10104000Y-5692000D01*
X10254000Y-5842000D01*
X10254000Y-7742000D02*
X10404000Y-7592000D01*
X10254000Y-7442000D01*
X10104000Y-7592000D01*
X10254000Y-7742000D01*
X10254000Y-9642000D02*
X10404000Y-9492000D01*
X10254000Y-9342000D01*
X10104000Y-9492000D01*
X10254000Y-9642000D01*
X11519000Y-4196000D02*
X11669000Y-4046000D01*
X11519000Y-3896000D01*
X11369000Y-4046000D01*
X11519000Y-4196000D01*
X11519000Y-6096000D02*
X11669000Y-5946000D01*
X11519000Y-5796000D01*
X11369000Y-5946000D01*
X11519000Y-6096000D01*
X11519000Y-7996000D02*
X11669000Y-7846000D01*
X11519000Y-7696000D01*
X11369000Y-7846000D01*
X11519000Y-7996000D01*
X11519000Y-9896000D02*
X11669000Y-9746000D01*
X11519000Y-9596000D01*
X11369000Y-9746000D01*
X11519000Y-9896000D01*
X12154000Y-3942000D02*
X12304000Y-3792000D01*
X12154000Y-3642000D01*
X12004000Y-3792000D01*
X12154000Y-3942000D01*
X12154000Y-5842000D02*
X12304000Y-5692000D01*
X12154000Y-5542000D01*
X12004000Y-5692000D01*
X12154000Y-5842000D01*
X12154000Y-7742000D02*
X12304000Y-7592000D01*
X12154000Y-7442000D01*
X12004000Y-7592000D01*
X12154000Y-7742000D01*
X12154000Y-9642000D02*
X12304000Y-9492000D01*
X12154000Y-9342000D01*
X12004000Y-9492000D01*
X12154000Y-9642000D01*
X13419000Y-4196000D02*
X13569000Y-4046000D01*
X13419000Y-3896000D01*
X13269000Y-4046000D01*
X13419000Y-4196000D01*
X13419000Y-6096000D02*
X13569000Y-5946000D01*
X13419000Y-5796000D01*
X13269000Y-5946000D01*
X13419000Y-6096000D01*
X13419000Y-7996000D02*
X13569000Y-7846000D01*
X13419000Y-7696000D01*
X13269000Y-7846000D01*
X13419000Y-7996000D01*
X13419000Y-9896000D02*
X13569000Y-9746000D01*
X13419000Y-9596000D01*
X13269000Y-9746000D01*
X13419000Y-9896000D01*
X14054000Y-3942000D02*
X14204000Y-3792000D01*
X14054000Y-3642000D01*
X13904000Y-3792000D01*
X14054000Y-3942000D01*
X14054000Y-5842000D02*
X14204000Y-5692000D01*
X14054000Y-5542000D01*
X13904000Y-5692000D01*
X14054000Y-5842000D01*
X14054000Y-7742000D02*
X14204000Y-7592000D01*
X14054000Y-7442000D01*
X13904000Y-7592000D01*
X14054000Y-7742000D01*
X14054000Y-9642000D02*
X14204000Y-9492000D01*
X14054000Y-9342000D01*
X13904000Y-9492000D01*
X14054000Y-9642000D01*
X15319000Y-4196000D02*
X15469000Y-4046000D01*
X15319000Y-3896000D01*
X15169000Y-4046000D01*
X15319000Y-4196000D01*
X15319000Y-6096000D02*
X15469000Y-5946000D01*
X15319000Y-5796000D01*
X15169000Y-5946000D01*
X15319000Y-6096000D01*
X15319000Y-7996000D02*
X15469000Y-7846000D01*
X15319000Y-7696000D01*
X15169000Y-7846000D01*
X15319000Y-7996000D01*
X15319000Y-9896000D02*
X15469000Y-9746000D01*
X15319000Y-9596000D01*
X15169000Y-9746000D01*
X15319000Y-9896000D01*
X15954000Y-3942000D02*
X16104000Y-3792000D01*
X15954000Y-3642000D01*
X15804000Y-3792000D01*
X15954000Y-3942000D01*
X15954000Y-5842000D02*
X16104000Y-5692000D01*
X15954000Y-5542000D01*
X15804000Y-5692000D01*
X15954000Y-5842000D01*
X15954000Y-7742000D02*
X16104000Y-7592000D01*
X15954000Y-7442000D01*
X15804000Y-7592000D01*
X15954000Y-7742000D01*
X15954000Y-9642000D02*
X16104000Y-9492000D01*
X15954000Y-9342000D01*
X15804000Y-9492000D01*
X15954000Y-9642000D01*
X17219000Y-4196000D02*
X17369000Y-4046000D01*
X17219000Y-3896000D01*
X17069000Y-4046000D01*
X17219000Y-4196000D01*
X17219000Y-6096000D02*
X17369000Y-5946000D01*
X17219000Y-5796000D01*
X17069000Y-5946000D01*
X17219000Y-6096000D01*
X17219000Y-7996000D02*
X17369000Y-7846000D01*
X17219000Y-7696000D01*
X17069000Y-7846000D01*
X17219000Y-7996000D01*
X17219000Y-9896000D02*
X17369000Y-9746000D01*
X17219000Y-9596000D01*
X17069000Y-9746000D01*
X17219000Y-9896000D01*
X17854000Y-3942000D02*
X18004000Y-3792000D01*
X17854000Y-3642000D01*
X17704000Y-3792000D01*
X17854000Y-3942000D01*
X17854000Y-5842000D02*
X18004000Y-5692000D01*
X17854000Y-5542000D01*
X17704000Y-5692000D01*
X17854000Y-5842000D01*
X17854000Y-7742000D02*
X18004000Y-7592000D01*
X17854000Y-7442000D01*
X17704000Y-7592000D01*
X17854000Y-7742000D01*
X17854000Y-9642000D02*
X18004000Y-9492000D01*
X17854000Y-9342000D01*
X17704000Y-9492000D01*
X17854000Y-9642000D01*
X19119000Y-4196000D02*
X19269000Y-4046000D01*
X19119000Y-3896000D01*
X18969000Y-4046000D01*
X19119000Y-4196000D01*
X19119000Y-6096000D02*
X19269000Y-5946000D01*
X19119000Y-5796000D01*
X18969000Y-5946000D01*
X19119000Y-6096000D01*
X19119000Y-7996000D02*
X19269000Y-7846000D01*
X19119000Y-7696000D01*
X18969000Y-7846000D01*
X19119000Y-7996000D01*
X19119000Y-9896000D02*
X19269000Y-9746000D01*
X19119000Y-9596000D01*
X18969000Y-9746000D01*
X19119000Y-9896000D01*
X19754000Y-3942000D02*
X19904000Y-3792000D01*
X19754000Y-3642000D01*
X19604000Y-3792000D01*
X19754000Y-3942000D01*
X19754000Y-5842000D02*
X19904000Y-5692000D01*
X19754000Y-5542000D01*
X19604000Y-5692000D01*
X19754000Y-5842000D01*
X19754000Y-7742000D02*
X19904000Y-7592000D01*
X19754000Y-7442000D01*
X19604000Y-7592000D01*
X19754000Y-7742000D01*
X19754000Y-9642000D02*
X19904000Y-9492000D01*
X19754000Y-9342000D01*
X19604000Y-9492000D01*
X19754000Y-9642000D01*
D16*
X9795000Y-4095000D02*
X10205000Y-4505000D01*
X10205000Y-4095000D02*
X9795000Y-4505000D01*
X10205000Y-4300000D02*
G75*
G02*
X9795000Y-4300000I-205000J0D01*
G01*
X9795000Y-4300000D02*
G75*
G02*
X10205000Y-4300000I205000J0D01*
G01*
X9795000Y-5995000D02*
X10205000Y-6405000D01*
X10205000Y-5995000D02*
X9795000Y-6405000D01*
X10205000Y-6200000D02*
G75*
G02*
X9795000Y-6200000I-205000J0D01*
G01*
X9795000Y-6200000D02*
G75*
G02*
X10205000Y-6200000I205000J0D01*
G01*
X9795000Y-7895000D02*
X10205000Y-8305000D01*
X10205000Y-7895000D02*
X9795000Y-8305000D01*
X10205000Y-8100000D02*
G75*
G02*
X9795000Y-8100000I-205000J0D01*
G01*
X9795000Y-8100000D02*
G75*
G02*
X10205000Y-8100000I205000J0D01*
G01*
X9795000Y-9795000D02*
X10205000Y-10205000D01*
X10205000Y-9795000D02*
X9795000Y-10205000D01*
X10205000Y-10000000D02*
G75*
G02*
X9795000Y-10000000I-205000J0D01*
G01*
X9795000Y-10000000D02*
G75*
G02*
X10205000Y-10000000I205000J0D01*
G01*
X11695000Y-4095000D02*
X12105000Y-4505000D01*
X12105000Y-4095000D02*
X11695000Y-4505000D01*
X12105000Y-4300000D02*
G75*
G02*
X11695000Y-4300000I-205000J0D01*
G01*
X11695000Y-4300000D02*
G75*
G02*
X12105000Y-4300000I205000J0D01*
G01*
X11695000Y-5995000D02*
X12105000Y-6405000D01*
X12105000Y-5995000D02*
X11695000Y-6405000D01*
X12105000Y-6200000D02*
G75*
G02*
X11695000Y-6200000I-205000J0D01*
G01*
X11695000Y-6200000D02*
G75*
G02*
X12105000Y-6200000I205000J0D01*
G01*
X11695000Y-7895000D02*
X12105000Y-8305000D01*
X12105000Y-7895000D02*
X11695000Y-8305000D01*
X12105000Y-8100000D02*
G75*
G02*
X11695000Y-8100000I-205000J0D01*
G01*
X11695000Y-8100000D02*
G75*
G02*
X12105000Y-8100000I205000J0D01*
G01*
X11695000Y-9795000D02*
X12105000Y-10205000D01*
X12105000Y-9795000D02*
X11695000Y-10205000D01*
X12105000Y-10000000D02*
G75*
G02*
X11695000Y-10000000I-205000J0D01*
G01*
X11695000Y-10000000D02*
G75*
G02*
X12105000Y-10000000I205000J0D01*
G01*
X13595000Y-4095000D02*
X14005000Y-4505000D01*
X14005000Y-4095000D02*
X13595000Y-4505000D01*
X14005000Y-4300000D02*
G75*
G02*
X13595000Y-4300000I-205000J0D01*
G01*
X13595000Y-4300000D02*
G75*
G02*
X14005000Y-4300000I205000J0D01*
G01*
X13595000Y-5995000D02*
X14005000Y-6405000D01*
X14005000Y-5995000D02*
X13595000Y-6405000D01*
X14005000Y-6200000D02*
G75*
G02*
X13595000Y-6200000I-205000J0D01*
G01*
X13595000Y-6200000D02*
G75*
G02*
X14005000Y-6200000I205000J0D01*
G01*
X13595000Y-7895000D02*
X14005000Y-8305000D01*
X14005000Y-7895000D02*
X13595000Y-8305000D01*
X14005000Y-8100000D02*
G75*
G02*
X13595000Y-8100000I-205000J0D01*
G01*
X13595000Y-8100000D02*
G75*
G02*
X14005000Y-8100000I205000J0D01*
G01*
X13595000Y-9795000D02*
X14005000Y-10205000D01*
X14005000Y-9795000D02*
X13595000Y-10205000D01*
X14005000Y-10000000D02*
G75*
G02*
X13595000Y-10000000I-205000J0D01*
G01*
X13595000Y-10000000D02*
G75*
G02*
X14005000Y-10000000I205000J0D01*
G01*
X15495000Y-4095000D02*
X15905000Y-4505000D01*
X15905000Y-4095000D02*
X15495000Y-4505000D01*
X15905000Y-4300000D02*
G75*
G02*
X15495000Y-4300000I-205000J0D01*
G01*
X15495000Y-4300000D02*
G75*
G02*
X15905000Y-4300000I205000J0D01*
G01*
X15495000Y-5995000D02*
X15905000Y-6405000D01*
X15905000Y-5995000D02*
X15495000Y-6405000D01*
X15905000Y-6200000D02*
G75*
G02*
X15495000Y-6200000I-205000J0D01*
G01*
X15495000Y-6200000D02*
G75*
G02*
X15905000Y-6200000I205000J0D01*
G01*
X15495000Y-7895000D02*
X15905000Y-8305000D01*
X15905000Y-7895000D02*
X15495000Y-8305000D01*
X15905000Y-8100000D02*
G75*
G02*
X15495000Y-8100000I-205000J0D01*
G01*
X15495000Y-8100000D02*
G75*
G02*
X15905000Y-8100000I205000J0D01*
G01*
X15495000Y-9795000D02*
X15905000Y-10205000D01*
X15905000Y-9795000D02*
X15495000Y-10205000D01*
X15905000Y-10000000D02*
G75*
G02*
X15495000Y-10000000I-205000J0D01*
G01*
X15495000Y-10000000D02*
G75*
G02*
X15905000Y-10000000I205000J0D01*
G01*
X17395000Y-4095000D02*
X17805000Y-4505000D01*
X17805000Y-4095000D02*
X17395000Y-4505000D01*
X17805000Y-4300000D02*
G75*
G02*
X17395000Y-4300000I-205000J0D01*
G01*
X17395000Y-4300000D02*
G75*
G02*
X17805000Y-4300000I205000J0D01*
G01*
X17395000Y-5995000D02*
X17805000Y-6405000D01*
X17805000Y-5995000D02*
X17395000Y-6405000D01*
X17805000Y-6200000D02*
G75*
G02*
X17395000Y-6200000I-205000J0D01*
G01*
X17395000Y-6200000D02*
G75*
G02*
X17805000Y-6200000I205000J0D01*
G01*
X17395000Y-7895000D02*
X17805000Y-8305000D01*
X17805000Y-7895000D02*
X17395000Y-8305000D01*
X17805000Y-8100000D02*
G75*
G02*
X17395000Y-8100000I-205000J0D01*
G01*
X17395000Y-8100000D02*
G75*
G02*
X17805000Y-8100000I205000J0D01*
G01*
X17395000Y-9795000D02*
X17805000Y-10205000D01*
X17805000Y-9795000D02*
X17395000Y-10205000D01*
X17805000Y-10000000D02*
G75*
G02*
X17395000Y-10000000I-205000J0D01*
G01*
X17395000Y-10000000D02*
G75*
G02*
X17805000Y-10000000I205000J0D01*
G01*
X19295000Y-4095000D02*
X19705000Y-4505000D01*
X19705000Y-4095000D02*
X19295000Y-4505000D01*
X19705000Y-4300000D02*
G75*
G02*
X19295000Y-4300000I-205000J0D01*
G01*
X19295000Y-4300000D02*
G75*
G02*
X19705000Y-4300000I205000J0D01*
G01*
X19295000Y-5995000D02*
X19705000Y-6405000D01*
X19705000Y-5995000D02*
X19295000Y-6405000D01*
X19705000Y-6200000D02*
G75*
G02*
X19295000Y-6200000I-205000J0D01*
G01*
X19295000Y-6200000D02*
G75*
G02*
X19705000Y-6200000I205000J0D01*
G01*
X19295000Y-7895000D02*
X19705000Y-8305000D01*
X19705000Y-7895000D02*
X19295000Y-8305000D01*
X19705000Y-8100000D02*
G75*
G02*
X19295000Y-8100000I-205000J0D01*
G01*
X19295000Y-8100000D02*
G75*
G02*
X19705000Y-8100000I205000J0D01*
G01*
X19295000Y-9795000D02*
X19705000Y-10205000D01*
X19705000Y-9795000D02*
X19295000Y-10205000D01*
X19705000Y-10000000D02*
G75*
G02*
X19295000Y-10000000I-205000J0D01*
G01*
X19295000Y-10000000D02*
G75*
G02*
X19705000Y-10000000I205000J0D01*
G01*
D11*
X9103277Y-11468984D02*
X9103277Y-11268984D01*
X9103277Y-11268984D02*
X9150896Y-11268984D01*
X9150896Y-11268984D02*
X9179467Y-11278508D01*
X9179467Y-11278508D02*
X9198515Y-11297555D01*
X9198515Y-11297555D02*
X9208039Y-11316603D01*
X9208039Y-11316603D02*
X9217563Y-11354698D01*
X9217563Y-11354698D02*
X9217563Y-11383269D01*
X9217563Y-11383269D02*
X9208039Y-11421365D01*
X9208039Y-11421365D02*
X9198515Y-11440412D01*
X9198515Y-11440412D02*
X9179467Y-11459460D01*
X9179467Y-11459460D02*
X9150896Y-11468984D01*
X9150896Y-11468984D02*
X9103277Y-11468984D01*
X9303277Y-11468984D02*
X9303277Y-11335650D01*
X9303277Y-11373746D02*
X9312801Y-11354698D01*
X9312801Y-11354698D02*
X9322324Y-11345174D01*
X9322324Y-11345174D02*
X9341372Y-11335650D01*
X9341372Y-11335650D02*
X9360420Y-11335650D01*
X9427086Y-11468984D02*
X9427086Y-11335650D01*
X9427086Y-11268984D02*
X9417563Y-11278508D01*
X9417563Y-11278508D02*
X9427086Y-11288031D01*
X9427086Y-11288031D02*
X9436610Y-11278508D01*
X9436610Y-11278508D02*
X9427086Y-11268984D01*
X9427086Y-11268984D02*
X9427086Y-11288031D01*
X9550896Y-11468984D02*
X9531848Y-11459460D01*
X9531848Y-11459460D02*
X9522324Y-11440412D01*
X9522324Y-11440412D02*
X9522324Y-11268984D01*
X9655658Y-11468984D02*
X9636610Y-11459460D01*
X9636610Y-11459460D02*
X9627086Y-11440412D01*
X9627086Y-11440412D02*
X9627086Y-11268984D01*
X9884229Y-11468984D02*
X9884229Y-11268984D01*
X9884229Y-11268984D02*
X9950896Y-11411841D01*
X9950896Y-11411841D02*
X10017563Y-11268984D01*
X10017563Y-11268984D02*
X10017563Y-11468984D01*
X10198515Y-11468984D02*
X10198515Y-11364222D01*
X10198515Y-11364222D02*
X10188991Y-11345174D01*
X10188991Y-11345174D02*
X10169944Y-11335650D01*
X10169944Y-11335650D02*
X10131848Y-11335650D01*
X10131848Y-11335650D02*
X10112801Y-11345174D01*
X10198515Y-11459460D02*
X10179467Y-11468984D01*
X10179467Y-11468984D02*
X10131848Y-11468984D01*
X10131848Y-11468984D02*
X10112801Y-11459460D01*
X10112801Y-11459460D02*
X10103277Y-11440412D01*
X10103277Y-11440412D02*
X10103277Y-11421365D01*
X10103277Y-11421365D02*
X10112801Y-11402317D01*
X10112801Y-11402317D02*
X10131848Y-11392793D01*
X10131848Y-11392793D02*
X10179467Y-11392793D01*
X10179467Y-11392793D02*
X10198515Y-11383269D01*
X10293753Y-11335650D02*
X10293753Y-11535650D01*
X10293753Y-11345174D02*
X10312801Y-11335650D01*
X10312801Y-11335650D02*
X10350896Y-11335650D01*
X10350896Y-11335650D02*
X10369944Y-11345174D01*
X10369944Y-11345174D02*
X10379467Y-11354698D01*
X10379467Y-11354698D02*
X10388991Y-11373746D01*
X10388991Y-11373746D02*
X10388991Y-11430888D01*
X10388991Y-11430888D02*
X10379467Y-11449936D01*
X10379467Y-11449936D02*
X10369944Y-11459460D01*
X10369944Y-11459460D02*
X10350896Y-11468984D01*
X10350896Y-11468984D02*
X10312801Y-11468984D01*
X10312801Y-11468984D02*
X10293753Y-11459460D01*
X10474705Y-11449936D02*
X10484229Y-11459460D01*
X10484229Y-11459460D02*
X10474705Y-11468984D01*
X10474705Y-11468984D02*
X10465182Y-11459460D01*
X10465182Y-11459460D02*
X10474705Y-11449936D01*
X10474705Y-11449936D02*
X10474705Y-11468984D01*
X10474705Y-11345174D02*
X10484229Y-11354698D01*
X10484229Y-11354698D02*
X10474705Y-11364222D01*
X10474705Y-11364222D02*
X10465182Y-11354698D01*
X10465182Y-11354698D02*
X10474705Y-11345174D01*
X10474705Y-11345174D02*
X10474705Y-11364222D01*
D12*
X8767500Y-11760000D02*
X8842500Y-11835000D01*
X8842500Y-11760000D02*
X8767500Y-11835000D01*
D11*
X9141372Y-11688984D02*
X9160420Y-11688984D01*
X9160420Y-11688984D02*
X9179467Y-11698508D01*
X9179467Y-11698508D02*
X9188991Y-11708031D01*
X9188991Y-11708031D02*
X9198515Y-11727079D01*
X9198515Y-11727079D02*
X9208039Y-11765174D01*
X9208039Y-11765174D02*
X9208039Y-11812793D01*
X9208039Y-11812793D02*
X9198515Y-11850888D01*
X9198515Y-11850888D02*
X9188991Y-11869936D01*
X9188991Y-11869936D02*
X9179467Y-11879460D01*
X9179467Y-11879460D02*
X9160420Y-11888984D01*
X9160420Y-11888984D02*
X9141372Y-11888984D01*
X9141372Y-11888984D02*
X9122324Y-11879460D01*
X9122324Y-11879460D02*
X9112801Y-11869936D01*
X9112801Y-11869936D02*
X9103277Y-11850888D01*
X9103277Y-11850888D02*
X9093753Y-11812793D01*
X9093753Y-11812793D02*
X9093753Y-11765174D01*
X9093753Y-11765174D02*
X9103277Y-11727079D01*
X9103277Y-11727079D02*
X9112801Y-11708031D01*
X9112801Y-11708031D02*
X9122324Y-11698508D01*
X9122324Y-11698508D02*
X9141372Y-11688984D01*
X9293753Y-11869936D02*
X9303277Y-11879460D01*
X9303277Y-11879460D02*
X9293753Y-11888984D01*
X9293753Y-11888984D02*
X9284229Y-11879460D01*
X9284229Y-11879460D02*
X9293753Y-11869936D01*
X9293753Y-11869936D02*
X9293753Y-11888984D01*
X9369944Y-11688984D02*
X9503277Y-11688984D01*
X9503277Y-11688984D02*
X9417563Y-11888984D01*
X9674705Y-11688984D02*
X9579467Y-11688984D01*
X9579467Y-11688984D02*
X9569944Y-11784222D01*
X9569944Y-11784222D02*
X9579467Y-11774698D01*
X9579467Y-11774698D02*
X9598515Y-11765174D01*
X9598515Y-11765174D02*
X9646134Y-11765174D01*
X9646134Y-11765174D02*
X9665182Y-11774698D01*
X9665182Y-11774698D02*
X9674705Y-11784222D01*
X9674705Y-11784222D02*
X9684229Y-11803269D01*
X9684229Y-11803269D02*
X9684229Y-11850888D01*
X9684229Y-11850888D02*
X9674705Y-11869936D01*
X9674705Y-11869936D02*
X9665182Y-11879460D01*
X9665182Y-11879460D02*
X9646134Y-11888984D01*
X9646134Y-11888984D02*
X9598515Y-11888984D01*
X9598515Y-11888984D02*
X9579467Y-11879460D01*
X9579467Y-11879460D02*
X9569944Y-11869936D01*
X9808039Y-11688984D02*
X9827086Y-11688984D01*
X9827086Y-11688984D02*
X9846134Y-11698508D01*
X9846134Y-11698508D02*
X9855658Y-11708031D01*
X9855658Y-11708031D02*
X9865182Y-11727079D01*
X9865182Y-11727079D02*
X9874705Y-11765174D01*
X9874705Y-11765174D02*
X9874705Y-11812793D01*
X9874705Y-11812793D02*
X9865182Y-11850888D01*
X9865182Y-11850888D02*
X9855658Y-11869936D01*
X9855658Y-11869936D02*
X9846134Y-11879460D01*
X9846134Y-11879460D02*
X9827086Y-11888984D01*
X9827086Y-11888984D02*
X9808039Y-11888984D01*
X9808039Y-11888984D02*
X9788991Y-11879460D01*
X9788991Y-11879460D02*
X9779467Y-11869936D01*
X9779467Y-11869936D02*
X9769944Y-11850888D01*
X9769944Y-11850888D02*
X9760420Y-11812793D01*
X9760420Y-11812793D02*
X9760420Y-11765174D01*
X9760420Y-11765174D02*
X9769944Y-11727079D01*
X9769944Y-11727079D02*
X9779467Y-11708031D01*
X9779467Y-11708031D02*
X9788991Y-11698508D01*
X9788991Y-11698508D02*
X9808039Y-11688984D01*
X9960420Y-11888984D02*
X9960420Y-11755650D01*
X9960420Y-11774698D02*
X9969944Y-11765174D01*
X9969944Y-11765174D02*
X9988991Y-11755650D01*
X9988991Y-11755650D02*
X10017563Y-11755650D01*
X10017563Y-11755650D02*
X10036610Y-11765174D01*
X10036610Y-11765174D02*
X10046134Y-11784222D01*
X10046134Y-11784222D02*
X10046134Y-11888984D01*
X10046134Y-11784222D02*
X10055658Y-11765174D01*
X10055658Y-11765174D02*
X10074705Y-11755650D01*
X10074705Y-11755650D02*
X10103277Y-11755650D01*
X10103277Y-11755650D02*
X10122325Y-11765174D01*
X10122325Y-11765174D02*
X10131848Y-11784222D01*
X10131848Y-11784222D02*
X10131848Y-11888984D01*
X10227086Y-11888984D02*
X10227086Y-11755650D01*
X10227086Y-11774698D02*
X10236610Y-11765174D01*
X10236610Y-11765174D02*
X10255658Y-11755650D01*
X10255658Y-11755650D02*
X10284229Y-11755650D01*
X10284229Y-11755650D02*
X10303277Y-11765174D01*
X10303277Y-11765174D02*
X10312801Y-11784222D01*
X10312801Y-11784222D02*
X10312801Y-11888984D01*
X10312801Y-11784222D02*
X10322325Y-11765174D01*
X10322325Y-11765174D02*
X10341372Y-11755650D01*
X10341372Y-11755650D02*
X10369944Y-11755650D01*
X10369944Y-11755650D02*
X10388991Y-11765174D01*
X10388991Y-11765174D02*
X10398515Y-11784222D01*
X10398515Y-11784222D02*
X10398515Y-11888984D01*
X10788991Y-11679460D02*
X10617563Y-11936603D01*
X11046134Y-11688984D02*
X11065182Y-11688984D01*
X11065182Y-11688984D02*
X11084229Y-11698508D01*
X11084229Y-11698508D02*
X11093753Y-11708031D01*
X11093753Y-11708031D02*
X11103277Y-11727079D01*
X11103277Y-11727079D02*
X11112801Y-11765174D01*
X11112801Y-11765174D02*
X11112801Y-11812793D01*
X11112801Y-11812793D02*
X11103277Y-11850888D01*
X11103277Y-11850888D02*
X11093753Y-11869936D01*
X11093753Y-11869936D02*
X11084229Y-11879460D01*
X11084229Y-11879460D02*
X11065182Y-11888984D01*
X11065182Y-11888984D02*
X11046134Y-11888984D01*
X11046134Y-11888984D02*
X11027087Y-11879460D01*
X11027087Y-11879460D02*
X11017563Y-11869936D01*
X11017563Y-11869936D02*
X11008039Y-11850888D01*
X11008039Y-11850888D02*
X10998515Y-11812793D01*
X10998515Y-11812793D02*
X10998515Y-11765174D01*
X10998515Y-11765174D02*
X11008039Y-11727079D01*
X11008039Y-11727079D02*
X11017563Y-11708031D01*
X11017563Y-11708031D02*
X11027087Y-11698508D01*
X11027087Y-11698508D02*
X11046134Y-11688984D01*
X11198515Y-11869936D02*
X11208039Y-11879460D01*
X11208039Y-11879460D02*
X11198515Y-11888984D01*
X11198515Y-11888984D02*
X11188991Y-11879460D01*
X11188991Y-11879460D02*
X11198515Y-11869936D01*
X11198515Y-11869936D02*
X11198515Y-11888984D01*
X11331848Y-11688984D02*
X11350896Y-11688984D01*
X11350896Y-11688984D02*
X11369944Y-11698508D01*
X11369944Y-11698508D02*
X11379467Y-11708031D01*
X11379467Y-11708031D02*
X11388991Y-11727079D01*
X11388991Y-11727079D02*
X11398515Y-11765174D01*
X11398515Y-11765174D02*
X11398515Y-11812793D01*
X11398515Y-11812793D02*
X11388991Y-11850888D01*
X11388991Y-11850888D02*
X11379467Y-11869936D01*
X11379467Y-11869936D02*
X11369944Y-11879460D01*
X11369944Y-11879460D02*
X11350896Y-11888984D01*
X11350896Y-11888984D02*
X11331848Y-11888984D01*
X11331848Y-11888984D02*
X11312801Y-11879460D01*
X11312801Y-11879460D02*
X11303277Y-11869936D01*
X11303277Y-11869936D02*
X11293753Y-11850888D01*
X11293753Y-11850888D02*
X11284229Y-11812793D01*
X11284229Y-11812793D02*
X11284229Y-11765174D01*
X11284229Y-11765174D02*
X11293753Y-11727079D01*
X11293753Y-11727079D02*
X11303277Y-11708031D01*
X11303277Y-11708031D02*
X11312801Y-11698508D01*
X11312801Y-11698508D02*
X11331848Y-11688984D01*
X11474706Y-11708031D02*
X11484229Y-11698508D01*
X11484229Y-11698508D02*
X11503277Y-11688984D01*
X11503277Y-11688984D02*
X11550896Y-11688984D01*
X11550896Y-11688984D02*
X11569944Y-11698508D01*
X11569944Y-11698508D02*
X11579467Y-11708031D01*
X11579467Y-11708031D02*
X11588991Y-11727079D01*
X11588991Y-11727079D02*
X11588991Y-11746127D01*
X11588991Y-11746127D02*
X11579467Y-11774698D01*
X11579467Y-11774698D02*
X11465182Y-11888984D01*
X11465182Y-11888984D02*
X11588991Y-11888984D01*
X11684229Y-11888984D02*
X11722325Y-11888984D01*
X11722325Y-11888984D02*
X11741372Y-11879460D01*
X11741372Y-11879460D02*
X11750896Y-11869936D01*
X11750896Y-11869936D02*
X11769944Y-11841365D01*
X11769944Y-11841365D02*
X11779467Y-11803269D01*
X11779467Y-11803269D02*
X11779467Y-11727079D01*
X11779467Y-11727079D02*
X11769944Y-11708031D01*
X11769944Y-11708031D02*
X11760420Y-11698508D01*
X11760420Y-11698508D02*
X11741372Y-11688984D01*
X11741372Y-11688984D02*
X11703277Y-11688984D01*
X11703277Y-11688984D02*
X11684229Y-11698508D01*
X11684229Y-11698508D02*
X11674706Y-11708031D01*
X11674706Y-11708031D02*
X11665182Y-11727079D01*
X11665182Y-11727079D02*
X11665182Y-11774698D01*
X11665182Y-11774698D02*
X11674706Y-11793746D01*
X11674706Y-11793746D02*
X11684229Y-11803269D01*
X11684229Y-11803269D02*
X11703277Y-11812793D01*
X11703277Y-11812793D02*
X11741372Y-11812793D01*
X11741372Y-11812793D02*
X11760420Y-11803269D01*
X11760420Y-11803269D02*
X11769944Y-11793746D01*
X11769944Y-11793746D02*
X11779467Y-11774698D01*
X11960420Y-11688984D02*
X11865182Y-11688984D01*
X11865182Y-11688984D02*
X11855658Y-11784222D01*
X11855658Y-11784222D02*
X11865182Y-11774698D01*
X11865182Y-11774698D02*
X11884229Y-11765174D01*
X11884229Y-11765174D02*
X11931848Y-11765174D01*
X11931848Y-11765174D02*
X11950896Y-11774698D01*
X11950896Y-11774698D02*
X11960420Y-11784222D01*
X11960420Y-11784222D02*
X11969944Y-11803269D01*
X11969944Y-11803269D02*
X11969944Y-11850888D01*
X11969944Y-11850888D02*
X11960420Y-11869936D01*
X11960420Y-11869936D02*
X11950896Y-11879460D01*
X11950896Y-11879460D02*
X11931848Y-11888984D01*
X11931848Y-11888984D02*
X11884229Y-11888984D01*
X11884229Y-11888984D02*
X11865182Y-11879460D01*
X11865182Y-11879460D02*
X11855658Y-11869936D01*
X12046134Y-11688984D02*
X12046134Y-11727079D01*
X12122325Y-11688984D02*
X12122325Y-11727079D01*
X12417563Y-11965174D02*
X12408039Y-11955650D01*
X12408039Y-11955650D02*
X12388991Y-11927079D01*
X12388991Y-11927079D02*
X12379468Y-11908031D01*
X12379468Y-11908031D02*
X12369944Y-11879460D01*
X12369944Y-11879460D02*
X12360420Y-11831841D01*
X12360420Y-11831841D02*
X12360420Y-11793746D01*
X12360420Y-11793746D02*
X12369944Y-11746127D01*
X12369944Y-11746127D02*
X12379468Y-11717555D01*
X12379468Y-11717555D02*
X12388991Y-11698508D01*
X12388991Y-11698508D02*
X12408039Y-11669936D01*
X12408039Y-11669936D02*
X12417563Y-11660412D01*
X12484229Y-11708031D02*
X12493753Y-11698508D01*
X12493753Y-11698508D02*
X12512801Y-11688984D01*
X12512801Y-11688984D02*
X12560420Y-11688984D01*
X12560420Y-11688984D02*
X12579468Y-11698508D01*
X12579468Y-11698508D02*
X12588991Y-11708031D01*
X12588991Y-11708031D02*
X12598515Y-11727079D01*
X12598515Y-11727079D02*
X12598515Y-11746127D01*
X12598515Y-11746127D02*
X12588991Y-11774698D01*
X12588991Y-11774698D02*
X12474706Y-11888984D01*
X12474706Y-11888984D02*
X12598515Y-11888984D01*
X12836610Y-11888984D02*
X12836610Y-11688984D01*
X12922325Y-11888984D02*
X12922325Y-11784222D01*
X12922325Y-11784222D02*
X12912801Y-11765174D01*
X12912801Y-11765174D02*
X12893753Y-11755650D01*
X12893753Y-11755650D02*
X12865182Y-11755650D01*
X12865182Y-11755650D02*
X12846134Y-11765174D01*
X12846134Y-11765174D02*
X12836610Y-11774698D01*
X13046134Y-11888984D02*
X13027087Y-11879460D01*
X13027087Y-11879460D02*
X13017563Y-11869936D01*
X13017563Y-11869936D02*
X13008039Y-11850888D01*
X13008039Y-11850888D02*
X13008039Y-11793746D01*
X13008039Y-11793746D02*
X13017563Y-11774698D01*
X13017563Y-11774698D02*
X13027087Y-11765174D01*
X13027087Y-11765174D02*
X13046134Y-11755650D01*
X13046134Y-11755650D02*
X13074706Y-11755650D01*
X13074706Y-11755650D02*
X13093753Y-11765174D01*
X13093753Y-11765174D02*
X13103277Y-11774698D01*
X13103277Y-11774698D02*
X13112801Y-11793746D01*
X13112801Y-11793746D02*
X13112801Y-11850888D01*
X13112801Y-11850888D02*
X13103277Y-11869936D01*
X13103277Y-11869936D02*
X13093753Y-11879460D01*
X13093753Y-11879460D02*
X13074706Y-11888984D01*
X13074706Y-11888984D02*
X13046134Y-11888984D01*
X13227087Y-11888984D02*
X13208039Y-11879460D01*
X13208039Y-11879460D02*
X13198515Y-11860412D01*
X13198515Y-11860412D02*
X13198515Y-11688984D01*
X13379468Y-11879460D02*
X13360420Y-11888984D01*
X13360420Y-11888984D02*
X13322325Y-11888984D01*
X13322325Y-11888984D02*
X13303277Y-11879460D01*
X13303277Y-11879460D02*
X13293753Y-11860412D01*
X13293753Y-11860412D02*
X13293753Y-11784222D01*
X13293753Y-11784222D02*
X13303277Y-11765174D01*
X13303277Y-11765174D02*
X13322325Y-11755650D01*
X13322325Y-11755650D02*
X13360420Y-11755650D01*
X13360420Y-11755650D02*
X13379468Y-11765174D01*
X13379468Y-11765174D02*
X13388991Y-11784222D01*
X13388991Y-11784222D02*
X13388991Y-11803269D01*
X13388991Y-11803269D02*
X13293753Y-11822317D01*
X13465182Y-11879460D02*
X13484230Y-11888984D01*
X13484230Y-11888984D02*
X13522325Y-11888984D01*
X13522325Y-11888984D02*
X13541372Y-11879460D01*
X13541372Y-11879460D02*
X13550896Y-11860412D01*
X13550896Y-11860412D02*
X13550896Y-11850888D01*
X13550896Y-11850888D02*
X13541372Y-11831841D01*
X13541372Y-11831841D02*
X13522325Y-11822317D01*
X13522325Y-11822317D02*
X13493753Y-11822317D01*
X13493753Y-11822317D02*
X13474706Y-11812793D01*
X13474706Y-11812793D02*
X13465182Y-11793746D01*
X13465182Y-11793746D02*
X13465182Y-11784222D01*
X13465182Y-11784222D02*
X13474706Y-11765174D01*
X13474706Y-11765174D02*
X13493753Y-11755650D01*
X13493753Y-11755650D02*
X13522325Y-11755650D01*
X13522325Y-11755650D02*
X13541372Y-11765174D01*
X13617563Y-11965174D02*
X13627087Y-11955650D01*
X13627087Y-11955650D02*
X13646134Y-11927079D01*
X13646134Y-11927079D02*
X13655658Y-11908031D01*
X13655658Y-11908031D02*
X13665182Y-11879460D01*
X13665182Y-11879460D02*
X13674706Y-11831841D01*
X13674706Y-11831841D02*
X13674706Y-11793746D01*
X13674706Y-11793746D02*
X13665182Y-11746127D01*
X13665182Y-11746127D02*
X13655658Y-11717555D01*
X13655658Y-11717555D02*
X13646134Y-11698508D01*
X13646134Y-11698508D02*
X13627087Y-11669936D01*
X13627087Y-11669936D02*
X13617563Y-11660412D01*
X13979468Y-11965174D02*
X13969944Y-11955650D01*
X13969944Y-11955650D02*
X13950896Y-11927079D01*
X13950896Y-11927079D02*
X13941372Y-11908031D01*
X13941372Y-11908031D02*
X13931849Y-11879460D01*
X13931849Y-11879460D02*
X13922325Y-11831841D01*
X13922325Y-11831841D02*
X13922325Y-11793746D01*
X13922325Y-11793746D02*
X13931849Y-11746127D01*
X13931849Y-11746127D02*
X13941372Y-11717555D01*
X13941372Y-11717555D02*
X13950896Y-11698508D01*
X13950896Y-11698508D02*
X13969944Y-11669936D01*
X13969944Y-11669936D02*
X13979468Y-11660412D01*
X14055658Y-11755650D02*
X14055658Y-11888984D01*
X14055658Y-11774698D02*
X14065182Y-11765174D01*
X14065182Y-11765174D02*
X14084230Y-11755650D01*
X14084230Y-11755650D02*
X14112801Y-11755650D01*
X14112801Y-11755650D02*
X14131849Y-11765174D01*
X14131849Y-11765174D02*
X14141372Y-11784222D01*
X14141372Y-11784222D02*
X14141372Y-11888984D01*
X14265182Y-11888984D02*
X14246134Y-11879460D01*
X14246134Y-11879460D02*
X14236611Y-11869936D01*
X14236611Y-11869936D02*
X14227087Y-11850888D01*
X14227087Y-11850888D02*
X14227087Y-11793746D01*
X14227087Y-11793746D02*
X14236611Y-11774698D01*
X14236611Y-11774698D02*
X14246134Y-11765174D01*
X14246134Y-11765174D02*
X14265182Y-11755650D01*
X14265182Y-11755650D02*
X14293753Y-11755650D01*
X14293753Y-11755650D02*
X14312801Y-11765174D01*
X14312801Y-11765174D02*
X14322325Y-11774698D01*
X14322325Y-11774698D02*
X14331849Y-11793746D01*
X14331849Y-11793746D02*
X14331849Y-11850888D01*
X14331849Y-11850888D02*
X14322325Y-11869936D01*
X14322325Y-11869936D02*
X14312801Y-11879460D01*
X14312801Y-11879460D02*
X14293753Y-11888984D01*
X14293753Y-11888984D02*
X14265182Y-11888984D01*
X14388992Y-11755650D02*
X14465182Y-11755650D01*
X14417563Y-11688984D02*
X14417563Y-11860412D01*
X14417563Y-11860412D02*
X14427087Y-11879460D01*
X14427087Y-11879460D02*
X14446134Y-11888984D01*
X14446134Y-11888984D02*
X14465182Y-11888984D01*
X14684230Y-11755650D02*
X14684230Y-11955650D01*
X14684230Y-11765174D02*
X14703277Y-11755650D01*
X14703277Y-11755650D02*
X14741373Y-11755650D01*
X14741373Y-11755650D02*
X14760420Y-11765174D01*
X14760420Y-11765174D02*
X14769944Y-11774698D01*
X14769944Y-11774698D02*
X14779468Y-11793746D01*
X14779468Y-11793746D02*
X14779468Y-11850888D01*
X14779468Y-11850888D02*
X14769944Y-11869936D01*
X14769944Y-11869936D02*
X14760420Y-11879460D01*
X14760420Y-11879460D02*
X14741373Y-11888984D01*
X14741373Y-11888984D02*
X14703277Y-11888984D01*
X14703277Y-11888984D02*
X14684230Y-11879460D01*
X14893753Y-11888984D02*
X14874706Y-11879460D01*
X14874706Y-11879460D02*
X14865182Y-11860412D01*
X14865182Y-11860412D02*
X14865182Y-11688984D01*
X15055658Y-11888984D02*
X15055658Y-11784222D01*
X15055658Y-11784222D02*
X15046134Y-11765174D01*
X15046134Y-11765174D02*
X15027087Y-11755650D01*
X15027087Y-11755650D02*
X14988992Y-11755650D01*
X14988992Y-11755650D02*
X14969944Y-11765174D01*
X15055658Y-11879460D02*
X15036611Y-11888984D01*
X15036611Y-11888984D02*
X14988992Y-11888984D01*
X14988992Y-11888984D02*
X14969944Y-11879460D01*
X14969944Y-11879460D02*
X14960420Y-11860412D01*
X14960420Y-11860412D02*
X14960420Y-11841365D01*
X14960420Y-11841365D02*
X14969944Y-11822317D01*
X14969944Y-11822317D02*
X14988992Y-11812793D01*
X14988992Y-11812793D02*
X15036611Y-11812793D01*
X15036611Y-11812793D02*
X15055658Y-11803269D01*
X15122325Y-11755650D02*
X15198515Y-11755650D01*
X15150896Y-11688984D02*
X15150896Y-11860412D01*
X15150896Y-11860412D02*
X15160420Y-11879460D01*
X15160420Y-11879460D02*
X15179468Y-11888984D01*
X15179468Y-11888984D02*
X15198515Y-11888984D01*
X15341373Y-11879460D02*
X15322325Y-11888984D01*
X15322325Y-11888984D02*
X15284230Y-11888984D01*
X15284230Y-11888984D02*
X15265182Y-11879460D01*
X15265182Y-11879460D02*
X15255658Y-11860412D01*
X15255658Y-11860412D02*
X15255658Y-11784222D01*
X15255658Y-11784222D02*
X15265182Y-11765174D01*
X15265182Y-11765174D02*
X15284230Y-11755650D01*
X15284230Y-11755650D02*
X15322325Y-11755650D01*
X15322325Y-11755650D02*
X15341373Y-11765174D01*
X15341373Y-11765174D02*
X15350896Y-11784222D01*
X15350896Y-11784222D02*
X15350896Y-11803269D01*
X15350896Y-11803269D02*
X15255658Y-11822317D01*
X15522325Y-11888984D02*
X15522325Y-11688984D01*
X15522325Y-11879460D02*
X15503277Y-11888984D01*
X15503277Y-11888984D02*
X15465182Y-11888984D01*
X15465182Y-11888984D02*
X15446134Y-11879460D01*
X15446134Y-11879460D02*
X15436611Y-11869936D01*
X15436611Y-11869936D02*
X15427087Y-11850888D01*
X15427087Y-11850888D02*
X15427087Y-11793746D01*
X15427087Y-11793746D02*
X15436611Y-11774698D01*
X15436611Y-11774698D02*
X15446134Y-11765174D01*
X15446134Y-11765174D02*
X15465182Y-11755650D01*
X15465182Y-11755650D02*
X15503277Y-11755650D01*
X15503277Y-11755650D02*
X15522325Y-11765174D01*
X15598515Y-11965174D02*
X15608039Y-11955650D01*
X15608039Y-11955650D02*
X15627087Y-11927079D01*
X15627087Y-11927079D02*
X15636611Y-11908031D01*
X15636611Y-11908031D02*
X15646134Y-11879460D01*
X15646134Y-11879460D02*
X15655658Y-11831841D01*
X15655658Y-11831841D02*
X15655658Y-11793746D01*
X15655658Y-11793746D02*
X15646134Y-11746127D01*
X15646134Y-11746127D02*
X15636611Y-11717555D01*
X15636611Y-11717555D02*
X15627087Y-11698508D01*
X15627087Y-11698508D02*
X15608039Y-11669936D01*
X15608039Y-11669936D02*
X15598515Y-11660412D01*
D12*
X8842500Y-12061500D02*
G75*
G02*
X8752500Y-12061500I-45000J0D01*
G01*
X8752500Y-12061500D02*
G75*
G02*
X8842500Y-12061500I45000J0D01*
G01*
D11*
X9141372Y-11952984D02*
X9160420Y-11952984D01*
X9160420Y-11952984D02*
X9179467Y-11962508D01*
X9179467Y-11962508D02*
X9188991Y-11972031D01*
X9188991Y-11972031D02*
X9198515Y-11991079D01*
X9198515Y-11991079D02*
X9208039Y-12029174D01*
X9208039Y-12029174D02*
X9208039Y-12076793D01*
X9208039Y-12076793D02*
X9198515Y-12114888D01*
X9198515Y-12114888D02*
X9188991Y-12133936D01*
X9188991Y-12133936D02*
X9179467Y-12143460D01*
X9179467Y-12143460D02*
X9160420Y-12152984D01*
X9160420Y-12152984D02*
X9141372Y-12152984D01*
X9141372Y-12152984D02*
X9122324Y-12143460D01*
X9122324Y-12143460D02*
X9112801Y-12133936D01*
X9112801Y-12133936D02*
X9103277Y-12114888D01*
X9103277Y-12114888D02*
X9093753Y-12076793D01*
X9093753Y-12076793D02*
X9093753Y-12029174D01*
X9093753Y-12029174D02*
X9103277Y-11991079D01*
X9103277Y-11991079D02*
X9112801Y-11972031D01*
X9112801Y-11972031D02*
X9122324Y-11962508D01*
X9122324Y-11962508D02*
X9141372Y-11952984D01*
X9293753Y-12133936D02*
X9303277Y-12143460D01*
X9303277Y-12143460D02*
X9293753Y-12152984D01*
X9293753Y-12152984D02*
X9284229Y-12143460D01*
X9284229Y-12143460D02*
X9293753Y-12133936D01*
X9293753Y-12133936D02*
X9293753Y-12152984D01*
X9398515Y-12152984D02*
X9436610Y-12152984D01*
X9436610Y-12152984D02*
X9455658Y-12143460D01*
X9455658Y-12143460D02*
X9465182Y-12133936D01*
X9465182Y-12133936D02*
X9484229Y-12105365D01*
X9484229Y-12105365D02*
X9493753Y-12067269D01*
X9493753Y-12067269D02*
X9493753Y-11991079D01*
X9493753Y-11991079D02*
X9484229Y-11972031D01*
X9484229Y-11972031D02*
X9474705Y-11962508D01*
X9474705Y-11962508D02*
X9455658Y-11952984D01*
X9455658Y-11952984D02*
X9417563Y-11952984D01*
X9417563Y-11952984D02*
X9398515Y-11962508D01*
X9398515Y-11962508D02*
X9388991Y-11972031D01*
X9388991Y-11972031D02*
X9379467Y-11991079D01*
X9379467Y-11991079D02*
X9379467Y-12038698D01*
X9379467Y-12038698D02*
X9388991Y-12057746D01*
X9388991Y-12057746D02*
X9398515Y-12067269D01*
X9398515Y-12067269D02*
X9417563Y-12076793D01*
X9417563Y-12076793D02*
X9455658Y-12076793D01*
X9455658Y-12076793D02*
X9474705Y-12067269D01*
X9474705Y-12067269D02*
X9484229Y-12057746D01*
X9484229Y-12057746D02*
X9493753Y-12038698D01*
X9617563Y-11952984D02*
X9636610Y-11952984D01*
X9636610Y-11952984D02*
X9655658Y-11962508D01*
X9655658Y-11962508D02*
X9665182Y-11972031D01*
X9665182Y-11972031D02*
X9674705Y-11991079D01*
X9674705Y-11991079D02*
X9684229Y-12029174D01*
X9684229Y-12029174D02*
X9684229Y-12076793D01*
X9684229Y-12076793D02*
X9674705Y-12114888D01*
X9674705Y-12114888D02*
X9665182Y-12133936D01*
X9665182Y-12133936D02*
X9655658Y-12143460D01*
X9655658Y-12143460D02*
X9636610Y-12152984D01*
X9636610Y-12152984D02*
X9617563Y-12152984D01*
X9617563Y-12152984D02*
X9598515Y-12143460D01*
X9598515Y-12143460D02*
X9588991Y-12133936D01*
X9588991Y-12133936D02*
X9579467Y-12114888D01*
X9579467Y-12114888D02*
X9569944Y-12076793D01*
X9569944Y-12076793D02*
X9569944Y-12029174D01*
X9569944Y-12029174D02*
X9579467Y-11991079D01*
X9579467Y-11991079D02*
X9588991Y-11972031D01*
X9588991Y-11972031D02*
X9598515Y-11962508D01*
X9598515Y-11962508D02*
X9617563Y-11952984D01*
X9808039Y-11952984D02*
X9827086Y-11952984D01*
X9827086Y-11952984D02*
X9846134Y-11962508D01*
X9846134Y-11962508D02*
X9855658Y-11972031D01*
X9855658Y-11972031D02*
X9865182Y-11991079D01*
X9865182Y-11991079D02*
X9874705Y-12029174D01*
X9874705Y-12029174D02*
X9874705Y-12076793D01*
X9874705Y-12076793D02*
X9865182Y-12114888D01*
X9865182Y-12114888D02*
X9855658Y-12133936D01*
X9855658Y-12133936D02*
X9846134Y-12143460D01*
X9846134Y-12143460D02*
X9827086Y-12152984D01*
X9827086Y-12152984D02*
X9808039Y-12152984D01*
X9808039Y-12152984D02*
X9788991Y-12143460D01*
X9788991Y-12143460D02*
X9779467Y-12133936D01*
X9779467Y-12133936D02*
X9769944Y-12114888D01*
X9769944Y-12114888D02*
X9760420Y-12076793D01*
X9760420Y-12076793D02*
X9760420Y-12029174D01*
X9760420Y-12029174D02*
X9769944Y-11991079D01*
X9769944Y-11991079D02*
X9779467Y-11972031D01*
X9779467Y-11972031D02*
X9788991Y-11962508D01*
X9788991Y-11962508D02*
X9808039Y-11952984D01*
X9960420Y-12152984D02*
X9960420Y-12019650D01*
X9960420Y-12038698D02*
X9969944Y-12029174D01*
X9969944Y-12029174D02*
X9988991Y-12019650D01*
X9988991Y-12019650D02*
X10017563Y-12019650D01*
X10017563Y-12019650D02*
X10036610Y-12029174D01*
X10036610Y-12029174D02*
X10046134Y-12048222D01*
X10046134Y-12048222D02*
X10046134Y-12152984D01*
X10046134Y-12048222D02*
X10055658Y-12029174D01*
X10055658Y-12029174D02*
X10074705Y-12019650D01*
X10074705Y-12019650D02*
X10103277Y-12019650D01*
X10103277Y-12019650D02*
X10122325Y-12029174D01*
X10122325Y-12029174D02*
X10131848Y-12048222D01*
X10131848Y-12048222D02*
X10131848Y-12152984D01*
X10227086Y-12152984D02*
X10227086Y-12019650D01*
X10227086Y-12038698D02*
X10236610Y-12029174D01*
X10236610Y-12029174D02*
X10255658Y-12019650D01*
X10255658Y-12019650D02*
X10284229Y-12019650D01*
X10284229Y-12019650D02*
X10303277Y-12029174D01*
X10303277Y-12029174D02*
X10312801Y-12048222D01*
X10312801Y-12048222D02*
X10312801Y-12152984D01*
X10312801Y-12048222D02*
X10322325Y-12029174D01*
X10322325Y-12029174D02*
X10341372Y-12019650D01*
X10341372Y-12019650D02*
X10369944Y-12019650D01*
X10369944Y-12019650D02*
X10388991Y-12029174D01*
X10388991Y-12029174D02*
X10398515Y-12048222D01*
X10398515Y-12048222D02*
X10398515Y-12152984D01*
X10788991Y-11943460D02*
X10617563Y-12200603D01*
X11046134Y-11952984D02*
X11065182Y-11952984D01*
X11065182Y-11952984D02*
X11084229Y-11962508D01*
X11084229Y-11962508D02*
X11093753Y-11972031D01*
X11093753Y-11972031D02*
X11103277Y-11991079D01*
X11103277Y-11991079D02*
X11112801Y-12029174D01*
X11112801Y-12029174D02*
X11112801Y-12076793D01*
X11112801Y-12076793D02*
X11103277Y-12114888D01*
X11103277Y-12114888D02*
X11093753Y-12133936D01*
X11093753Y-12133936D02*
X11084229Y-12143460D01*
X11084229Y-12143460D02*
X11065182Y-12152984D01*
X11065182Y-12152984D02*
X11046134Y-12152984D01*
X11046134Y-12152984D02*
X11027087Y-12143460D01*
X11027087Y-12143460D02*
X11017563Y-12133936D01*
X11017563Y-12133936D02*
X11008039Y-12114888D01*
X11008039Y-12114888D02*
X10998515Y-12076793D01*
X10998515Y-12076793D02*
X10998515Y-12029174D01*
X10998515Y-12029174D02*
X11008039Y-11991079D01*
X11008039Y-11991079D02*
X11017563Y-11972031D01*
X11017563Y-11972031D02*
X11027087Y-11962508D01*
X11027087Y-11962508D02*
X11046134Y-11952984D01*
X11198515Y-12133936D02*
X11208039Y-12143460D01*
X11208039Y-12143460D02*
X11198515Y-12152984D01*
X11198515Y-12152984D02*
X11188991Y-12143460D01*
X11188991Y-12143460D02*
X11198515Y-12133936D01*
X11198515Y-12133936D02*
X11198515Y-12152984D01*
X11331848Y-11952984D02*
X11350896Y-11952984D01*
X11350896Y-11952984D02*
X11369944Y-11962508D01*
X11369944Y-11962508D02*
X11379467Y-11972031D01*
X11379467Y-11972031D02*
X11388991Y-11991079D01*
X11388991Y-11991079D02*
X11398515Y-12029174D01*
X11398515Y-12029174D02*
X11398515Y-12076793D01*
X11398515Y-12076793D02*
X11388991Y-12114888D01*
X11388991Y-12114888D02*
X11379467Y-12133936D01*
X11379467Y-12133936D02*
X11369944Y-12143460D01*
X11369944Y-12143460D02*
X11350896Y-12152984D01*
X11350896Y-12152984D02*
X11331848Y-12152984D01*
X11331848Y-12152984D02*
X11312801Y-12143460D01*
X11312801Y-12143460D02*
X11303277Y-12133936D01*
X11303277Y-12133936D02*
X11293753Y-12114888D01*
X11293753Y-12114888D02*
X11284229Y-12076793D01*
X11284229Y-12076793D02*
X11284229Y-12029174D01*
X11284229Y-12029174D02*
X11293753Y-11991079D01*
X11293753Y-11991079D02*
X11303277Y-11972031D01*
X11303277Y-11972031D02*
X11312801Y-11962508D01*
X11312801Y-11962508D02*
X11331848Y-11952984D01*
X11465182Y-11952984D02*
X11588991Y-11952984D01*
X11588991Y-11952984D02*
X11522325Y-12029174D01*
X11522325Y-12029174D02*
X11550896Y-12029174D01*
X11550896Y-12029174D02*
X11569944Y-12038698D01*
X11569944Y-12038698D02*
X11579467Y-12048222D01*
X11579467Y-12048222D02*
X11588991Y-12067269D01*
X11588991Y-12067269D02*
X11588991Y-12114888D01*
X11588991Y-12114888D02*
X11579467Y-12133936D01*
X11579467Y-12133936D02*
X11569944Y-12143460D01*
X11569944Y-12143460D02*
X11550896Y-12152984D01*
X11550896Y-12152984D02*
X11493753Y-12152984D01*
X11493753Y-12152984D02*
X11474706Y-12143460D01*
X11474706Y-12143460D02*
X11465182Y-12133936D01*
X11769944Y-11952984D02*
X11674706Y-11952984D01*
X11674706Y-11952984D02*
X11665182Y-12048222D01*
X11665182Y-12048222D02*
X11674706Y-12038698D01*
X11674706Y-12038698D02*
X11693753Y-12029174D01*
X11693753Y-12029174D02*
X11741372Y-12029174D01*
X11741372Y-12029174D02*
X11760420Y-12038698D01*
X11760420Y-12038698D02*
X11769944Y-12048222D01*
X11769944Y-12048222D02*
X11779467Y-12067269D01*
X11779467Y-12067269D02*
X11779467Y-12114888D01*
X11779467Y-12114888D02*
X11769944Y-12133936D01*
X11769944Y-12133936D02*
X11760420Y-12143460D01*
X11760420Y-12143460D02*
X11741372Y-12152984D01*
X11741372Y-12152984D02*
X11693753Y-12152984D01*
X11693753Y-12152984D02*
X11674706Y-12143460D01*
X11674706Y-12143460D02*
X11665182Y-12133936D01*
X11950896Y-12019650D02*
X11950896Y-12152984D01*
X11903277Y-11943460D02*
X11855658Y-12086317D01*
X11855658Y-12086317D02*
X11979467Y-12086317D01*
X12046134Y-11952984D02*
X12046134Y-11991079D01*
X12122325Y-11952984D02*
X12122325Y-11991079D01*
X12417563Y-12229174D02*
X12408039Y-12219650D01*
X12408039Y-12219650D02*
X12388991Y-12191079D01*
X12388991Y-12191079D02*
X12379468Y-12172031D01*
X12379468Y-12172031D02*
X12369944Y-12143460D01*
X12369944Y-12143460D02*
X12360420Y-12095841D01*
X12360420Y-12095841D02*
X12360420Y-12057746D01*
X12360420Y-12057746D02*
X12369944Y-12010127D01*
X12369944Y-12010127D02*
X12379468Y-11981555D01*
X12379468Y-11981555D02*
X12388991Y-11962508D01*
X12388991Y-11962508D02*
X12408039Y-11933936D01*
X12408039Y-11933936D02*
X12417563Y-11924412D01*
X12484229Y-11972031D02*
X12493753Y-11962508D01*
X12493753Y-11962508D02*
X12512801Y-11952984D01*
X12512801Y-11952984D02*
X12560420Y-11952984D01*
X12560420Y-11952984D02*
X12579468Y-11962508D01*
X12579468Y-11962508D02*
X12588991Y-11972031D01*
X12588991Y-11972031D02*
X12598515Y-11991079D01*
X12598515Y-11991079D02*
X12598515Y-12010127D01*
X12598515Y-12010127D02*
X12588991Y-12038698D01*
X12588991Y-12038698D02*
X12474706Y-12152984D01*
X12474706Y-12152984D02*
X12598515Y-12152984D01*
X12836610Y-12152984D02*
X12836610Y-11952984D01*
X12922325Y-12152984D02*
X12922325Y-12048222D01*
X12922325Y-12048222D02*
X12912801Y-12029174D01*
X12912801Y-12029174D02*
X12893753Y-12019650D01*
X12893753Y-12019650D02*
X12865182Y-12019650D01*
X12865182Y-12019650D02*
X12846134Y-12029174D01*
X12846134Y-12029174D02*
X12836610Y-12038698D01*
X13046134Y-12152984D02*
X13027087Y-12143460D01*
X13027087Y-12143460D02*
X13017563Y-12133936D01*
X13017563Y-12133936D02*
X13008039Y-12114888D01*
X13008039Y-12114888D02*
X13008039Y-12057746D01*
X13008039Y-12057746D02*
X13017563Y-12038698D01*
X13017563Y-12038698D02*
X13027087Y-12029174D01*
X13027087Y-12029174D02*
X13046134Y-12019650D01*
X13046134Y-12019650D02*
X13074706Y-12019650D01*
X13074706Y-12019650D02*
X13093753Y-12029174D01*
X13093753Y-12029174D02*
X13103277Y-12038698D01*
X13103277Y-12038698D02*
X13112801Y-12057746D01*
X13112801Y-12057746D02*
X13112801Y-12114888D01*
X13112801Y-12114888D02*
X13103277Y-12133936D01*
X13103277Y-12133936D02*
X13093753Y-12143460D01*
X13093753Y-12143460D02*
X13074706Y-12152984D01*
X13074706Y-12152984D02*
X13046134Y-12152984D01*
X13227087Y-12152984D02*
X13208039Y-12143460D01*
X13208039Y-12143460D02*
X13198515Y-12124412D01*
X13198515Y-12124412D02*
X13198515Y-11952984D01*
X13379468Y-12143460D02*
X13360420Y-12152984D01*
X13360420Y-12152984D02*
X13322325Y-12152984D01*
X13322325Y-12152984D02*
X13303277Y-12143460D01*
X13303277Y-12143460D02*
X13293753Y-12124412D01*
X13293753Y-12124412D02*
X13293753Y-12048222D01*
X13293753Y-12048222D02*
X13303277Y-12029174D01*
X13303277Y-12029174D02*
X13322325Y-12019650D01*
X13322325Y-12019650D02*
X13360420Y-12019650D01*
X13360420Y-12019650D02*
X13379468Y-12029174D01*
X13379468Y-12029174D02*
X13388991Y-12048222D01*
X13388991Y-12048222D02*
X13388991Y-12067269D01*
X13388991Y-12067269D02*
X13293753Y-12086317D01*
X13465182Y-12143460D02*
X13484230Y-12152984D01*
X13484230Y-12152984D02*
X13522325Y-12152984D01*
X13522325Y-12152984D02*
X13541372Y-12143460D01*
X13541372Y-12143460D02*
X13550896Y-12124412D01*
X13550896Y-12124412D02*
X13550896Y-12114888D01*
X13550896Y-12114888D02*
X13541372Y-12095841D01*
X13541372Y-12095841D02*
X13522325Y-12086317D01*
X13522325Y-12086317D02*
X13493753Y-12086317D01*
X13493753Y-12086317D02*
X13474706Y-12076793D01*
X13474706Y-12076793D02*
X13465182Y-12057746D01*
X13465182Y-12057746D02*
X13465182Y-12048222D01*
X13465182Y-12048222D02*
X13474706Y-12029174D01*
X13474706Y-12029174D02*
X13493753Y-12019650D01*
X13493753Y-12019650D02*
X13522325Y-12019650D01*
X13522325Y-12019650D02*
X13541372Y-12029174D01*
X13617563Y-12229174D02*
X13627087Y-12219650D01*
X13627087Y-12219650D02*
X13646134Y-12191079D01*
X13646134Y-12191079D02*
X13655658Y-12172031D01*
X13655658Y-12172031D02*
X13665182Y-12143460D01*
X13665182Y-12143460D02*
X13674706Y-12095841D01*
X13674706Y-12095841D02*
X13674706Y-12057746D01*
X13674706Y-12057746D02*
X13665182Y-12010127D01*
X13665182Y-12010127D02*
X13655658Y-11981555D01*
X13655658Y-11981555D02*
X13646134Y-11962508D01*
X13646134Y-11962508D02*
X13627087Y-11933936D01*
X13627087Y-11933936D02*
X13617563Y-11924412D01*
X13979468Y-12229174D02*
X13969944Y-12219650D01*
X13969944Y-12219650D02*
X13950896Y-12191079D01*
X13950896Y-12191079D02*
X13941372Y-12172031D01*
X13941372Y-12172031D02*
X13931849Y-12143460D01*
X13931849Y-12143460D02*
X13922325Y-12095841D01*
X13922325Y-12095841D02*
X13922325Y-12057746D01*
X13922325Y-12057746D02*
X13931849Y-12010127D01*
X13931849Y-12010127D02*
X13941372Y-11981555D01*
X13941372Y-11981555D02*
X13950896Y-11962508D01*
X13950896Y-11962508D02*
X13969944Y-11933936D01*
X13969944Y-11933936D02*
X13979468Y-11924412D01*
X14055658Y-12019650D02*
X14055658Y-12152984D01*
X14055658Y-12038698D02*
X14065182Y-12029174D01*
X14065182Y-12029174D02*
X14084230Y-12019650D01*
X14084230Y-12019650D02*
X14112801Y-12019650D01*
X14112801Y-12019650D02*
X14131849Y-12029174D01*
X14131849Y-12029174D02*
X14141372Y-12048222D01*
X14141372Y-12048222D02*
X14141372Y-12152984D01*
X14265182Y-12152984D02*
X14246134Y-12143460D01*
X14246134Y-12143460D02*
X14236611Y-12133936D01*
X14236611Y-12133936D02*
X14227087Y-12114888D01*
X14227087Y-12114888D02*
X14227087Y-12057746D01*
X14227087Y-12057746D02*
X14236611Y-12038698D01*
X14236611Y-12038698D02*
X14246134Y-12029174D01*
X14246134Y-12029174D02*
X14265182Y-12019650D01*
X14265182Y-12019650D02*
X14293753Y-12019650D01*
X14293753Y-12019650D02*
X14312801Y-12029174D01*
X14312801Y-12029174D02*
X14322325Y-12038698D01*
X14322325Y-12038698D02*
X14331849Y-12057746D01*
X14331849Y-12057746D02*
X14331849Y-12114888D01*
X14331849Y-12114888D02*
X14322325Y-12133936D01*
X14322325Y-12133936D02*
X14312801Y-12143460D01*
X14312801Y-12143460D02*
X14293753Y-12152984D01*
X14293753Y-12152984D02*
X14265182Y-12152984D01*
X14388992Y-12019650D02*
X14465182Y-12019650D01*
X14417563Y-11952984D02*
X14417563Y-12124412D01*
X14417563Y-12124412D02*
X14427087Y-12143460D01*
X14427087Y-12143460D02*
X14446134Y-12152984D01*
X14446134Y-12152984D02*
X14465182Y-12152984D01*
X14684230Y-12019650D02*
X14684230Y-12219650D01*
X14684230Y-12029174D02*
X14703277Y-12019650D01*
X14703277Y-12019650D02*
X14741373Y-12019650D01*
X14741373Y-12019650D02*
X14760420Y-12029174D01*
X14760420Y-12029174D02*
X14769944Y-12038698D01*
X14769944Y-12038698D02*
X14779468Y-12057746D01*
X14779468Y-12057746D02*
X14779468Y-12114888D01*
X14779468Y-12114888D02*
X14769944Y-12133936D01*
X14769944Y-12133936D02*
X14760420Y-12143460D01*
X14760420Y-12143460D02*
X14741373Y-12152984D01*
X14741373Y-12152984D02*
X14703277Y-12152984D01*
X14703277Y-12152984D02*
X14684230Y-12143460D01*
X14893753Y-12152984D02*
X14874706Y-12143460D01*
X14874706Y-12143460D02*
X14865182Y-12124412D01*
X14865182Y-12124412D02*
X14865182Y-11952984D01*
X15055658Y-12152984D02*
X15055658Y-12048222D01*
X15055658Y-12048222D02*
X15046134Y-12029174D01*
X15046134Y-12029174D02*
X15027087Y-12019650D01*
X15027087Y-12019650D02*
X14988992Y-12019650D01*
X14988992Y-12019650D02*
X14969944Y-12029174D01*
X15055658Y-12143460D02*
X15036611Y-12152984D01*
X15036611Y-12152984D02*
X14988992Y-12152984D01*
X14988992Y-12152984D02*
X14969944Y-12143460D01*
X14969944Y-12143460D02*
X14960420Y-12124412D01*
X14960420Y-12124412D02*
X14960420Y-12105365D01*
X14960420Y-12105365D02*
X14969944Y-12086317D01*
X14969944Y-12086317D02*
X14988992Y-12076793D01*
X14988992Y-12076793D02*
X15036611Y-12076793D01*
X15036611Y-12076793D02*
X15055658Y-12067269D01*
X15122325Y-12019650D02*
X15198515Y-12019650D01*
X15150896Y-11952984D02*
X15150896Y-12124412D01*
X15150896Y-12124412D02*
X15160420Y-12143460D01*
X15160420Y-12143460D02*
X15179468Y-12152984D01*
X15179468Y-12152984D02*
X15198515Y-12152984D01*
X15341373Y-12143460D02*
X15322325Y-12152984D01*
X15322325Y-12152984D02*
X15284230Y-12152984D01*
X15284230Y-12152984D02*
X15265182Y-12143460D01*
X15265182Y-12143460D02*
X15255658Y-12124412D01*
X15255658Y-12124412D02*
X15255658Y-12048222D01*
X15255658Y-12048222D02*
X15265182Y-12029174D01*
X15265182Y-12029174D02*
X15284230Y-12019650D01*
X15284230Y-12019650D02*
X15322325Y-12019650D01*
X15322325Y-12019650D02*
X15341373Y-12029174D01*
X15341373Y-12029174D02*
X15350896Y-12048222D01*
X15350896Y-12048222D02*
X15350896Y-12067269D01*
X15350896Y-12067269D02*
X15255658Y-12086317D01*
X15522325Y-12152984D02*
X15522325Y-11952984D01*
X15522325Y-12143460D02*
X15503277Y-12152984D01*
X15503277Y-12152984D02*
X15465182Y-12152984D01*
X15465182Y-12152984D02*
X15446134Y-12143460D01*
X15446134Y-12143460D02*
X15436611Y-12133936D01*
X15436611Y-12133936D02*
X15427087Y-12114888D01*
X15427087Y-12114888D02*
X15427087Y-12057746D01*
X15427087Y-12057746D02*
X15436611Y-12038698D01*
X15436611Y-12038698D02*
X15446134Y-12029174D01*
X15446134Y-12029174D02*
X15465182Y-12019650D01*
X15465182Y-12019650D02*
X15503277Y-12019650D01*
X15503277Y-12019650D02*
X15522325Y-12029174D01*
X15598515Y-12229174D02*
X15608039Y-12219650D01*
X15608039Y-12219650D02*
X15627087Y-12191079D01*
X15627087Y-12191079D02*
X15636611Y-12172031D01*
X15636611Y-12172031D02*
X15646134Y-12143460D01*
X15646134Y-12143460D02*
X15655658Y-12095841D01*
X15655658Y-12095841D02*
X15655658Y-12057746D01*
X15655658Y-12057746D02*
X15646134Y-12010127D01*
X15646134Y-12010127D02*
X15636611Y-11981555D01*
X15636611Y-11981555D02*
X15627087Y-11962508D01*
X15627087Y-11962508D02*
X15608039Y-11933936D01*
X15608039Y-11933936D02*
X15598515Y-11924412D01*
D13*
X8747500Y-12230500D02*
X8747500Y-12420500D01*
X8652500Y-12325500D02*
X8842500Y-12325500D01*
D11*
X9208039Y-12416984D02*
X9093753Y-12416984D01*
X9150896Y-12416984D02*
X9150896Y-12216984D01*
X9150896Y-12216984D02*
X9131848Y-12245555D01*
X9131848Y-12245555D02*
X9112801Y-12264603D01*
X9112801Y-12264603D02*
X9093753Y-12274127D01*
X9293753Y-12397936D02*
X9303277Y-12407460D01*
X9303277Y-12407460D02*
X9293753Y-12416984D01*
X9293753Y-12416984D02*
X9284229Y-12407460D01*
X9284229Y-12407460D02*
X9293753Y-12397936D01*
X9293753Y-12397936D02*
X9293753Y-12416984D01*
X9398515Y-12416984D02*
X9436610Y-12416984D01*
X9436610Y-12416984D02*
X9455658Y-12407460D01*
X9455658Y-12407460D02*
X9465182Y-12397936D01*
X9465182Y-12397936D02*
X9484229Y-12369365D01*
X9484229Y-12369365D02*
X9493753Y-12331269D01*
X9493753Y-12331269D02*
X9493753Y-12255079D01*
X9493753Y-12255079D02*
X9484229Y-12236031D01*
X9484229Y-12236031D02*
X9474705Y-12226508D01*
X9474705Y-12226508D02*
X9455658Y-12216984D01*
X9455658Y-12216984D02*
X9417563Y-12216984D01*
X9417563Y-12216984D02*
X9398515Y-12226508D01*
X9398515Y-12226508D02*
X9388991Y-12236031D01*
X9388991Y-12236031D02*
X9379467Y-12255079D01*
X9379467Y-12255079D02*
X9379467Y-12302698D01*
X9379467Y-12302698D02*
X9388991Y-12321746D01*
X9388991Y-12321746D02*
X9398515Y-12331269D01*
X9398515Y-12331269D02*
X9417563Y-12340793D01*
X9417563Y-12340793D02*
X9455658Y-12340793D01*
X9455658Y-12340793D02*
X9474705Y-12331269D01*
X9474705Y-12331269D02*
X9484229Y-12321746D01*
X9484229Y-12321746D02*
X9493753Y-12302698D01*
X9617563Y-12216984D02*
X9636610Y-12216984D01*
X9636610Y-12216984D02*
X9655658Y-12226508D01*
X9655658Y-12226508D02*
X9665182Y-12236031D01*
X9665182Y-12236031D02*
X9674705Y-12255079D01*
X9674705Y-12255079D02*
X9684229Y-12293174D01*
X9684229Y-12293174D02*
X9684229Y-12340793D01*
X9684229Y-12340793D02*
X9674705Y-12378888D01*
X9674705Y-12378888D02*
X9665182Y-12397936D01*
X9665182Y-12397936D02*
X9655658Y-12407460D01*
X9655658Y-12407460D02*
X9636610Y-12416984D01*
X9636610Y-12416984D02*
X9617563Y-12416984D01*
X9617563Y-12416984D02*
X9598515Y-12407460D01*
X9598515Y-12407460D02*
X9588991Y-12397936D01*
X9588991Y-12397936D02*
X9579467Y-12378888D01*
X9579467Y-12378888D02*
X9569944Y-12340793D01*
X9569944Y-12340793D02*
X9569944Y-12293174D01*
X9569944Y-12293174D02*
X9579467Y-12255079D01*
X9579467Y-12255079D02*
X9588991Y-12236031D01*
X9588991Y-12236031D02*
X9598515Y-12226508D01*
X9598515Y-12226508D02*
X9617563Y-12216984D01*
X9808039Y-12216984D02*
X9827086Y-12216984D01*
X9827086Y-12216984D02*
X9846134Y-12226508D01*
X9846134Y-12226508D02*
X9855658Y-12236031D01*
X9855658Y-12236031D02*
X9865182Y-12255079D01*
X9865182Y-12255079D02*
X9874705Y-12293174D01*
X9874705Y-12293174D02*
X9874705Y-12340793D01*
X9874705Y-12340793D02*
X9865182Y-12378888D01*
X9865182Y-12378888D02*
X9855658Y-12397936D01*
X9855658Y-12397936D02*
X9846134Y-12407460D01*
X9846134Y-12407460D02*
X9827086Y-12416984D01*
X9827086Y-12416984D02*
X9808039Y-12416984D01*
X9808039Y-12416984D02*
X9788991Y-12407460D01*
X9788991Y-12407460D02*
X9779467Y-12397936D01*
X9779467Y-12397936D02*
X9769944Y-12378888D01*
X9769944Y-12378888D02*
X9760420Y-12340793D01*
X9760420Y-12340793D02*
X9760420Y-12293174D01*
X9760420Y-12293174D02*
X9769944Y-12255079D01*
X9769944Y-12255079D02*
X9779467Y-12236031D01*
X9779467Y-12236031D02*
X9788991Y-12226508D01*
X9788991Y-12226508D02*
X9808039Y-12216984D01*
X9960420Y-12416984D02*
X9960420Y-12283650D01*
X9960420Y-12302698D02*
X9969944Y-12293174D01*
X9969944Y-12293174D02*
X9988991Y-12283650D01*
X9988991Y-12283650D02*
X10017563Y-12283650D01*
X10017563Y-12283650D02*
X10036610Y-12293174D01*
X10036610Y-12293174D02*
X10046134Y-12312222D01*
X10046134Y-12312222D02*
X10046134Y-12416984D01*
X10046134Y-12312222D02*
X10055658Y-12293174D01*
X10055658Y-12293174D02*
X10074705Y-12283650D01*
X10074705Y-12283650D02*
X10103277Y-12283650D01*
X10103277Y-12283650D02*
X10122325Y-12293174D01*
X10122325Y-12293174D02*
X10131848Y-12312222D01*
X10131848Y-12312222D02*
X10131848Y-12416984D01*
X10227086Y-12416984D02*
X10227086Y-12283650D01*
X10227086Y-12302698D02*
X10236610Y-12293174D01*
X10236610Y-12293174D02*
X10255658Y-12283650D01*
X10255658Y-12283650D02*
X10284229Y-12283650D01*
X10284229Y-12283650D02*
X10303277Y-12293174D01*
X10303277Y-12293174D02*
X10312801Y-12312222D01*
X10312801Y-12312222D02*
X10312801Y-12416984D01*
X10312801Y-12312222D02*
X10322325Y-12293174D01*
X10322325Y-12293174D02*
X10341372Y-12283650D01*
X10341372Y-12283650D02*
X10369944Y-12283650D01*
X10369944Y-12283650D02*
X10388991Y-12293174D01*
X10388991Y-12293174D02*
X10398515Y-12312222D01*
X10398515Y-12312222D02*
X10398515Y-12416984D01*
X10788991Y-12207460D02*
X10617563Y-12464603D01*
X11046134Y-12216984D02*
X11065182Y-12216984D01*
X11065182Y-12216984D02*
X11084229Y-12226508D01*
X11084229Y-12226508D02*
X11093753Y-12236031D01*
X11093753Y-12236031D02*
X11103277Y-12255079D01*
X11103277Y-12255079D02*
X11112801Y-12293174D01*
X11112801Y-12293174D02*
X11112801Y-12340793D01*
X11112801Y-12340793D02*
X11103277Y-12378888D01*
X11103277Y-12378888D02*
X11093753Y-12397936D01*
X11093753Y-12397936D02*
X11084229Y-12407460D01*
X11084229Y-12407460D02*
X11065182Y-12416984D01*
X11065182Y-12416984D02*
X11046134Y-12416984D01*
X11046134Y-12416984D02*
X11027087Y-12407460D01*
X11027087Y-12407460D02*
X11017563Y-12397936D01*
X11017563Y-12397936D02*
X11008039Y-12378888D01*
X11008039Y-12378888D02*
X10998515Y-12340793D01*
X10998515Y-12340793D02*
X10998515Y-12293174D01*
X10998515Y-12293174D02*
X11008039Y-12255079D01*
X11008039Y-12255079D02*
X11017563Y-12236031D01*
X11017563Y-12236031D02*
X11027087Y-12226508D01*
X11027087Y-12226508D02*
X11046134Y-12216984D01*
X11198515Y-12397936D02*
X11208039Y-12407460D01*
X11208039Y-12407460D02*
X11198515Y-12416984D01*
X11198515Y-12416984D02*
X11188991Y-12407460D01*
X11188991Y-12407460D02*
X11198515Y-12397936D01*
X11198515Y-12397936D02*
X11198515Y-12416984D01*
X11331848Y-12216984D02*
X11350896Y-12216984D01*
X11350896Y-12216984D02*
X11369944Y-12226508D01*
X11369944Y-12226508D02*
X11379467Y-12236031D01*
X11379467Y-12236031D02*
X11388991Y-12255079D01*
X11388991Y-12255079D02*
X11398515Y-12293174D01*
X11398515Y-12293174D02*
X11398515Y-12340793D01*
X11398515Y-12340793D02*
X11388991Y-12378888D01*
X11388991Y-12378888D02*
X11379467Y-12397936D01*
X11379467Y-12397936D02*
X11369944Y-12407460D01*
X11369944Y-12407460D02*
X11350896Y-12416984D01*
X11350896Y-12416984D02*
X11331848Y-12416984D01*
X11331848Y-12416984D02*
X11312801Y-12407460D01*
X11312801Y-12407460D02*
X11303277Y-12397936D01*
X11303277Y-12397936D02*
X11293753Y-12378888D01*
X11293753Y-12378888D02*
X11284229Y-12340793D01*
X11284229Y-12340793D02*
X11284229Y-12293174D01*
X11284229Y-12293174D02*
X11293753Y-12255079D01*
X11293753Y-12255079D02*
X11303277Y-12236031D01*
X11303277Y-12236031D02*
X11312801Y-12226508D01*
X11312801Y-12226508D02*
X11331848Y-12216984D01*
X11465182Y-12216984D02*
X11598515Y-12216984D01*
X11598515Y-12216984D02*
X11512801Y-12416984D01*
X11760420Y-12283650D02*
X11760420Y-12416984D01*
X11712801Y-12207460D02*
X11665182Y-12350317D01*
X11665182Y-12350317D02*
X11788991Y-12350317D01*
X11893753Y-12302698D02*
X11874706Y-12293174D01*
X11874706Y-12293174D02*
X11865182Y-12283650D01*
X11865182Y-12283650D02*
X11855658Y-12264603D01*
X11855658Y-12264603D02*
X11855658Y-12255079D01*
X11855658Y-12255079D02*
X11865182Y-12236031D01*
X11865182Y-12236031D02*
X11874706Y-12226508D01*
X11874706Y-12226508D02*
X11893753Y-12216984D01*
X11893753Y-12216984D02*
X11931848Y-12216984D01*
X11931848Y-12216984D02*
X11950896Y-12226508D01*
X11950896Y-12226508D02*
X11960420Y-12236031D01*
X11960420Y-12236031D02*
X11969944Y-12255079D01*
X11969944Y-12255079D02*
X11969944Y-12264603D01*
X11969944Y-12264603D02*
X11960420Y-12283650D01*
X11960420Y-12283650D02*
X11950896Y-12293174D01*
X11950896Y-12293174D02*
X11931848Y-12302698D01*
X11931848Y-12302698D02*
X11893753Y-12302698D01*
X11893753Y-12302698D02*
X11874706Y-12312222D01*
X11874706Y-12312222D02*
X11865182Y-12321746D01*
X11865182Y-12321746D02*
X11855658Y-12340793D01*
X11855658Y-12340793D02*
X11855658Y-12378888D01*
X11855658Y-12378888D02*
X11865182Y-12397936D01*
X11865182Y-12397936D02*
X11874706Y-12407460D01*
X11874706Y-12407460D02*
X11893753Y-12416984D01*
X11893753Y-12416984D02*
X11931848Y-12416984D01*
X11931848Y-12416984D02*
X11950896Y-12407460D01*
X11950896Y-12407460D02*
X11960420Y-12397936D01*
X11960420Y-12397936D02*
X11969944Y-12378888D01*
X11969944Y-12378888D02*
X11969944Y-12340793D01*
X11969944Y-12340793D02*
X11960420Y-12321746D01*
X11960420Y-12321746D02*
X11950896Y-12312222D01*
X11950896Y-12312222D02*
X11931848Y-12302698D01*
X12046134Y-12216984D02*
X12046134Y-12255079D01*
X12122325Y-12216984D02*
X12122325Y-12255079D01*
X12417563Y-12493174D02*
X12408039Y-12483650D01*
X12408039Y-12483650D02*
X12388991Y-12455079D01*
X12388991Y-12455079D02*
X12379468Y-12436031D01*
X12379468Y-12436031D02*
X12369944Y-12407460D01*
X12369944Y-12407460D02*
X12360420Y-12359841D01*
X12360420Y-12359841D02*
X12360420Y-12321746D01*
X12360420Y-12321746D02*
X12369944Y-12274127D01*
X12369944Y-12274127D02*
X12379468Y-12245555D01*
X12379468Y-12245555D02*
X12388991Y-12226508D01*
X12388991Y-12226508D02*
X12408039Y-12197936D01*
X12408039Y-12197936D02*
X12417563Y-12188412D01*
X12579468Y-12283650D02*
X12579468Y-12416984D01*
X12531848Y-12207460D02*
X12484229Y-12350317D01*
X12484229Y-12350317D02*
X12608039Y-12350317D01*
X12712801Y-12302698D02*
X12693753Y-12293174D01*
X12693753Y-12293174D02*
X12684229Y-12283650D01*
X12684229Y-12283650D02*
X12674706Y-12264603D01*
X12674706Y-12264603D02*
X12674706Y-12255079D01*
X12674706Y-12255079D02*
X12684229Y-12236031D01*
X12684229Y-12236031D02*
X12693753Y-12226508D01*
X12693753Y-12226508D02*
X12712801Y-12216984D01*
X12712801Y-12216984D02*
X12750896Y-12216984D01*
X12750896Y-12216984D02*
X12769944Y-12226508D01*
X12769944Y-12226508D02*
X12779468Y-12236031D01*
X12779468Y-12236031D02*
X12788991Y-12255079D01*
X12788991Y-12255079D02*
X12788991Y-12264603D01*
X12788991Y-12264603D02*
X12779468Y-12283650D01*
X12779468Y-12283650D02*
X12769944Y-12293174D01*
X12769944Y-12293174D02*
X12750896Y-12302698D01*
X12750896Y-12302698D02*
X12712801Y-12302698D01*
X12712801Y-12302698D02*
X12693753Y-12312222D01*
X12693753Y-12312222D02*
X12684229Y-12321746D01*
X12684229Y-12321746D02*
X12674706Y-12340793D01*
X12674706Y-12340793D02*
X12674706Y-12378888D01*
X12674706Y-12378888D02*
X12684229Y-12397936D01*
X12684229Y-12397936D02*
X12693753Y-12407460D01*
X12693753Y-12407460D02*
X12712801Y-12416984D01*
X12712801Y-12416984D02*
X12750896Y-12416984D01*
X12750896Y-12416984D02*
X12769944Y-12407460D01*
X12769944Y-12407460D02*
X12779468Y-12397936D01*
X12779468Y-12397936D02*
X12788991Y-12378888D01*
X12788991Y-12378888D02*
X12788991Y-12340793D01*
X12788991Y-12340793D02*
X12779468Y-12321746D01*
X12779468Y-12321746D02*
X12769944Y-12312222D01*
X12769944Y-12312222D02*
X12750896Y-12302698D01*
X13027087Y-12416984D02*
X13027087Y-12216984D01*
X13112801Y-12416984D02*
X13112801Y-12312222D01*
X13112801Y-12312222D02*
X13103277Y-12293174D01*
X13103277Y-12293174D02*
X13084230Y-12283650D01*
X13084230Y-12283650D02*
X13055658Y-12283650D01*
X13055658Y-12283650D02*
X13036610Y-12293174D01*
X13036610Y-12293174D02*
X13027087Y-12302698D01*
X13236610Y-12416984D02*
X13217563Y-12407460D01*
X13217563Y-12407460D02*
X13208039Y-12397936D01*
X13208039Y-12397936D02*
X13198515Y-12378888D01*
X13198515Y-12378888D02*
X13198515Y-12321746D01*
X13198515Y-12321746D02*
X13208039Y-12302698D01*
X13208039Y-12302698D02*
X13217563Y-12293174D01*
X13217563Y-12293174D02*
X13236610Y-12283650D01*
X13236610Y-12283650D02*
X13265182Y-12283650D01*
X13265182Y-12283650D02*
X13284230Y-12293174D01*
X13284230Y-12293174D02*
X13293753Y-12302698D01*
X13293753Y-12302698D02*
X13303277Y-12321746D01*
X13303277Y-12321746D02*
X13303277Y-12378888D01*
X13303277Y-12378888D02*
X13293753Y-12397936D01*
X13293753Y-12397936D02*
X13284230Y-12407460D01*
X13284230Y-12407460D02*
X13265182Y-12416984D01*
X13265182Y-12416984D02*
X13236610Y-12416984D01*
X13417563Y-12416984D02*
X13398515Y-12407460D01*
X13398515Y-12407460D02*
X13388991Y-12388412D01*
X13388991Y-12388412D02*
X13388991Y-12216984D01*
X13569944Y-12407460D02*
X13550896Y-12416984D01*
X13550896Y-12416984D02*
X13512801Y-12416984D01*
X13512801Y-12416984D02*
X13493753Y-12407460D01*
X13493753Y-12407460D02*
X13484230Y-12388412D01*
X13484230Y-12388412D02*
X13484230Y-12312222D01*
X13484230Y-12312222D02*
X13493753Y-12293174D01*
X13493753Y-12293174D02*
X13512801Y-12283650D01*
X13512801Y-12283650D02*
X13550896Y-12283650D01*
X13550896Y-12283650D02*
X13569944Y-12293174D01*
X13569944Y-12293174D02*
X13579468Y-12312222D01*
X13579468Y-12312222D02*
X13579468Y-12331269D01*
X13579468Y-12331269D02*
X13484230Y-12350317D01*
X13655658Y-12407460D02*
X13674706Y-12416984D01*
X13674706Y-12416984D02*
X13712801Y-12416984D01*
X13712801Y-12416984D02*
X13731849Y-12407460D01*
X13731849Y-12407460D02*
X13741372Y-12388412D01*
X13741372Y-12388412D02*
X13741372Y-12378888D01*
X13741372Y-12378888D02*
X13731849Y-12359841D01*
X13731849Y-12359841D02*
X13712801Y-12350317D01*
X13712801Y-12350317D02*
X13684230Y-12350317D01*
X13684230Y-12350317D02*
X13665182Y-12340793D01*
X13665182Y-12340793D02*
X13655658Y-12321746D01*
X13655658Y-12321746D02*
X13655658Y-12312222D01*
X13655658Y-12312222D02*
X13665182Y-12293174D01*
X13665182Y-12293174D02*
X13684230Y-12283650D01*
X13684230Y-12283650D02*
X13712801Y-12283650D01*
X13712801Y-12283650D02*
X13731849Y-12293174D01*
X13808039Y-12493174D02*
X13817563Y-12483650D01*
X13817563Y-12483650D02*
X13836611Y-12455079D01*
X13836611Y-12455079D02*
X13846134Y-12436031D01*
X13846134Y-12436031D02*
X13855658Y-12407460D01*
X13855658Y-12407460D02*
X13865182Y-12359841D01*
X13865182Y-12359841D02*
X13865182Y-12321746D01*
X13865182Y-12321746D02*
X13855658Y-12274127D01*
X13855658Y-12274127D02*
X13846134Y-12245555D01*
X13846134Y-12245555D02*
X13836611Y-12226508D01*
X13836611Y-12226508D02*
X13817563Y-12197936D01*
X13817563Y-12197936D02*
X13808039Y-12188412D01*
X14169944Y-12493174D02*
X14160420Y-12483650D01*
X14160420Y-12483650D02*
X14141372Y-12455079D01*
X14141372Y-12455079D02*
X14131849Y-12436031D01*
X14131849Y-12436031D02*
X14122325Y-12407460D01*
X14122325Y-12407460D02*
X14112801Y-12359841D01*
X14112801Y-12359841D02*
X14112801Y-12321746D01*
X14112801Y-12321746D02*
X14122325Y-12274127D01*
X14122325Y-12274127D02*
X14131849Y-12245555D01*
X14131849Y-12245555D02*
X14141372Y-12226508D01*
X14141372Y-12226508D02*
X14160420Y-12197936D01*
X14160420Y-12197936D02*
X14169944Y-12188412D01*
X14246134Y-12283650D02*
X14246134Y-12416984D01*
X14246134Y-12302698D02*
X14255658Y-12293174D01*
X14255658Y-12293174D02*
X14274706Y-12283650D01*
X14274706Y-12283650D02*
X14303277Y-12283650D01*
X14303277Y-12283650D02*
X14322325Y-12293174D01*
X14322325Y-12293174D02*
X14331849Y-12312222D01*
X14331849Y-12312222D02*
X14331849Y-12416984D01*
X14455658Y-12416984D02*
X14436611Y-12407460D01*
X14436611Y-12407460D02*
X14427087Y-12397936D01*
X14427087Y-12397936D02*
X14417563Y-12378888D01*
X14417563Y-12378888D02*
X14417563Y-12321746D01*
X14417563Y-12321746D02*
X14427087Y-12302698D01*
X14427087Y-12302698D02*
X14436611Y-12293174D01*
X14436611Y-12293174D02*
X14455658Y-12283650D01*
X14455658Y-12283650D02*
X14484230Y-12283650D01*
X14484230Y-12283650D02*
X14503277Y-12293174D01*
X14503277Y-12293174D02*
X14512801Y-12302698D01*
X14512801Y-12302698D02*
X14522325Y-12321746D01*
X14522325Y-12321746D02*
X14522325Y-12378888D01*
X14522325Y-12378888D02*
X14512801Y-12397936D01*
X14512801Y-12397936D02*
X14503277Y-12407460D01*
X14503277Y-12407460D02*
X14484230Y-12416984D01*
X14484230Y-12416984D02*
X14455658Y-12416984D01*
X14579468Y-12283650D02*
X14655658Y-12283650D01*
X14608039Y-12216984D02*
X14608039Y-12388412D01*
X14608039Y-12388412D02*
X14617563Y-12407460D01*
X14617563Y-12407460D02*
X14636611Y-12416984D01*
X14636611Y-12416984D02*
X14655658Y-12416984D01*
X14874706Y-12283650D02*
X14874706Y-12483650D01*
X14874706Y-12293174D02*
X14893753Y-12283650D01*
X14893753Y-12283650D02*
X14931849Y-12283650D01*
X14931849Y-12283650D02*
X14950896Y-12293174D01*
X14950896Y-12293174D02*
X14960420Y-12302698D01*
X14960420Y-12302698D02*
X14969944Y-12321746D01*
X14969944Y-12321746D02*
X14969944Y-12378888D01*
X14969944Y-12378888D02*
X14960420Y-12397936D01*
X14960420Y-12397936D02*
X14950896Y-12407460D01*
X14950896Y-12407460D02*
X14931849Y-12416984D01*
X14931849Y-12416984D02*
X14893753Y-12416984D01*
X14893753Y-12416984D02*
X14874706Y-12407460D01*
X15084230Y-12416984D02*
X15065182Y-12407460D01*
X15065182Y-12407460D02*
X15055658Y-12388412D01*
X15055658Y-12388412D02*
X15055658Y-12216984D01*
X15246134Y-12416984D02*
X15246134Y-12312222D01*
X15246134Y-12312222D02*
X15236611Y-12293174D01*
X15236611Y-12293174D02*
X15217563Y-12283650D01*
X15217563Y-12283650D02*
X15179468Y-12283650D01*
X15179468Y-12283650D02*
X15160420Y-12293174D01*
X15246134Y-12407460D02*
X15227087Y-12416984D01*
X15227087Y-12416984D02*
X15179468Y-12416984D01*
X15179468Y-12416984D02*
X15160420Y-12407460D01*
X15160420Y-12407460D02*
X15150896Y-12388412D01*
X15150896Y-12388412D02*
X15150896Y-12369365D01*
X15150896Y-12369365D02*
X15160420Y-12350317D01*
X15160420Y-12350317D02*
X15179468Y-12340793D01*
X15179468Y-12340793D02*
X15227087Y-12340793D01*
X15227087Y-12340793D02*
X15246134Y-12331269D01*
X15312801Y-12283650D02*
X15388992Y-12283650D01*
X15341373Y-12216984D02*
X15341373Y-12388412D01*
X15341373Y-12388412D02*
X15350896Y-12407460D01*
X15350896Y-12407460D02*
X15369944Y-12416984D01*
X15369944Y-12416984D02*
X15388992Y-12416984D01*
X15531849Y-12407460D02*
X15512801Y-12416984D01*
X15512801Y-12416984D02*
X15474706Y-12416984D01*
X15474706Y-12416984D02*
X15455658Y-12407460D01*
X15455658Y-12407460D02*
X15446134Y-12388412D01*
X15446134Y-12388412D02*
X15446134Y-12312222D01*
X15446134Y-12312222D02*
X15455658Y-12293174D01*
X15455658Y-12293174D02*
X15474706Y-12283650D01*
X15474706Y-12283650D02*
X15512801Y-12283650D01*
X15512801Y-12283650D02*
X15531849Y-12293174D01*
X15531849Y-12293174D02*
X15541373Y-12312222D01*
X15541373Y-12312222D02*
X15541373Y-12331269D01*
X15541373Y-12331269D02*
X15446134Y-12350317D01*
X15712801Y-12416984D02*
X15712801Y-12216984D01*
X15712801Y-12407460D02*
X15693754Y-12416984D01*
X15693754Y-12416984D02*
X15655658Y-12416984D01*
X15655658Y-12416984D02*
X15636611Y-12407460D01*
X15636611Y-12407460D02*
X15627087Y-12397936D01*
X15627087Y-12397936D02*
X15617563Y-12378888D01*
X15617563Y-12378888D02*
X15617563Y-12321746D01*
X15617563Y-12321746D02*
X15627087Y-12302698D01*
X15627087Y-12302698D02*
X15636611Y-12293174D01*
X15636611Y-12293174D02*
X15655658Y-12283650D01*
X15655658Y-12283650D02*
X15693754Y-12283650D01*
X15693754Y-12283650D02*
X15712801Y-12293174D01*
X15788992Y-12493174D02*
X15798515Y-12483650D01*
X15798515Y-12483650D02*
X15817563Y-12455079D01*
X15817563Y-12455079D02*
X15827087Y-12436031D01*
X15827087Y-12436031D02*
X15836611Y-12407460D01*
X15836611Y-12407460D02*
X15846134Y-12359841D01*
X15846134Y-12359841D02*
X15846134Y-12321746D01*
X15846134Y-12321746D02*
X15836611Y-12274127D01*
X15836611Y-12274127D02*
X15827087Y-12245555D01*
X15827087Y-12245555D02*
X15817563Y-12226508D01*
X15817563Y-12226508D02*
X15798515Y-12197936D01*
X15798515Y-12197936D02*
X15788992Y-12188412D01*
X8813211Y-12706211D02*
X8813211Y-12564789D01*
X8671789Y-12564789D01*
X8671789Y-12706211D01*
X8813211Y-12706211D01*
X9093753Y-12546031D02*
X9103277Y-12536508D01*
X9103277Y-12536508D02*
X9122324Y-12526984D01*
X9122324Y-12526984D02*
X9169944Y-12526984D01*
X9169944Y-12526984D02*
X9188991Y-12536508D01*
X9188991Y-12536508D02*
X9198515Y-12546031D01*
X9198515Y-12546031D02*
X9208039Y-12565079D01*
X9208039Y-12565079D02*
X9208039Y-12584127D01*
X9208039Y-12584127D02*
X9198515Y-12612698D01*
X9198515Y-12612698D02*
X9084229Y-12726984D01*
X9084229Y-12726984D02*
X9208039Y-12726984D01*
X9293753Y-12707936D02*
X9303277Y-12717460D01*
X9303277Y-12717460D02*
X9293753Y-12726984D01*
X9293753Y-12726984D02*
X9284229Y-12717460D01*
X9284229Y-12717460D02*
X9293753Y-12707936D01*
X9293753Y-12707936D02*
X9293753Y-12726984D01*
X9379467Y-12546031D02*
X9388991Y-12536508D01*
X9388991Y-12536508D02*
X9408039Y-12526984D01*
X9408039Y-12526984D02*
X9455658Y-12526984D01*
X9455658Y-12526984D02*
X9474705Y-12536508D01*
X9474705Y-12536508D02*
X9484229Y-12546031D01*
X9484229Y-12546031D02*
X9493753Y-12565079D01*
X9493753Y-12565079D02*
X9493753Y-12584127D01*
X9493753Y-12584127D02*
X9484229Y-12612698D01*
X9484229Y-12612698D02*
X9369944Y-12726984D01*
X9369944Y-12726984D02*
X9493753Y-12726984D01*
X9617563Y-12526984D02*
X9636610Y-12526984D01*
X9636610Y-12526984D02*
X9655658Y-12536508D01*
X9655658Y-12536508D02*
X9665182Y-12546031D01*
X9665182Y-12546031D02*
X9674705Y-12565079D01*
X9674705Y-12565079D02*
X9684229Y-12603174D01*
X9684229Y-12603174D02*
X9684229Y-12650793D01*
X9684229Y-12650793D02*
X9674705Y-12688888D01*
X9674705Y-12688888D02*
X9665182Y-12707936D01*
X9665182Y-12707936D02*
X9655658Y-12717460D01*
X9655658Y-12717460D02*
X9636610Y-12726984D01*
X9636610Y-12726984D02*
X9617563Y-12726984D01*
X9617563Y-12726984D02*
X9598515Y-12717460D01*
X9598515Y-12717460D02*
X9588991Y-12707936D01*
X9588991Y-12707936D02*
X9579467Y-12688888D01*
X9579467Y-12688888D02*
X9569944Y-12650793D01*
X9569944Y-12650793D02*
X9569944Y-12603174D01*
X9569944Y-12603174D02*
X9579467Y-12565079D01*
X9579467Y-12565079D02*
X9588991Y-12546031D01*
X9588991Y-12546031D02*
X9598515Y-12536508D01*
X9598515Y-12536508D02*
X9617563Y-12526984D01*
X9808039Y-12526984D02*
X9827086Y-12526984D01*
X9827086Y-12526984D02*
X9846134Y-12536508D01*
X9846134Y-12536508D02*
X9855658Y-12546031D01*
X9855658Y-12546031D02*
X9865182Y-12565079D01*
X9865182Y-12565079D02*
X9874705Y-12603174D01*
X9874705Y-12603174D02*
X9874705Y-12650793D01*
X9874705Y-12650793D02*
X9865182Y-12688888D01*
X9865182Y-12688888D02*
X9855658Y-12707936D01*
X9855658Y-12707936D02*
X9846134Y-12717460D01*
X9846134Y-12717460D02*
X9827086Y-12726984D01*
X9827086Y-12726984D02*
X9808039Y-12726984D01*
X9808039Y-12726984D02*
X9788991Y-12717460D01*
X9788991Y-12717460D02*
X9779467Y-12707936D01*
X9779467Y-12707936D02*
X9769944Y-12688888D01*
X9769944Y-12688888D02*
X9760420Y-12650793D01*
X9760420Y-12650793D02*
X9760420Y-12603174D01*
X9760420Y-12603174D02*
X9769944Y-12565079D01*
X9769944Y-12565079D02*
X9779467Y-12546031D01*
X9779467Y-12546031D02*
X9788991Y-12536508D01*
X9788991Y-12536508D02*
X9808039Y-12526984D01*
X9960420Y-12726984D02*
X9960420Y-12593650D01*
X9960420Y-12612698D02*
X9969944Y-12603174D01*
X9969944Y-12603174D02*
X9988991Y-12593650D01*
X9988991Y-12593650D02*
X10017563Y-12593650D01*
X10017563Y-12593650D02*
X10036610Y-12603174D01*
X10036610Y-12603174D02*
X10046134Y-12622222D01*
X10046134Y-12622222D02*
X10046134Y-12726984D01*
X10046134Y-12622222D02*
X10055658Y-12603174D01*
X10055658Y-12603174D02*
X10074705Y-12593650D01*
X10074705Y-12593650D02*
X10103277Y-12593650D01*
X10103277Y-12593650D02*
X10122325Y-12603174D01*
X10122325Y-12603174D02*
X10131848Y-12622222D01*
X10131848Y-12622222D02*
X10131848Y-12726984D01*
X10227086Y-12726984D02*
X10227086Y-12593650D01*
X10227086Y-12612698D02*
X10236610Y-12603174D01*
X10236610Y-12603174D02*
X10255658Y-12593650D01*
X10255658Y-12593650D02*
X10284229Y-12593650D01*
X10284229Y-12593650D02*
X10303277Y-12603174D01*
X10303277Y-12603174D02*
X10312801Y-12622222D01*
X10312801Y-12622222D02*
X10312801Y-12726984D01*
X10312801Y-12622222D02*
X10322325Y-12603174D01*
X10322325Y-12603174D02*
X10341372Y-12593650D01*
X10341372Y-12593650D02*
X10369944Y-12593650D01*
X10369944Y-12593650D02*
X10388991Y-12603174D01*
X10388991Y-12603174D02*
X10398515Y-12622222D01*
X10398515Y-12622222D02*
X10398515Y-12726984D01*
X10788991Y-12517460D02*
X10617563Y-12774603D01*
X11046134Y-12526984D02*
X11065182Y-12526984D01*
X11065182Y-12526984D02*
X11084229Y-12536508D01*
X11084229Y-12536508D02*
X11093753Y-12546031D01*
X11093753Y-12546031D02*
X11103277Y-12565079D01*
X11103277Y-12565079D02*
X11112801Y-12603174D01*
X11112801Y-12603174D02*
X11112801Y-12650793D01*
X11112801Y-12650793D02*
X11103277Y-12688888D01*
X11103277Y-12688888D02*
X11093753Y-12707936D01*
X11093753Y-12707936D02*
X11084229Y-12717460D01*
X11084229Y-12717460D02*
X11065182Y-12726984D01*
X11065182Y-12726984D02*
X11046134Y-12726984D01*
X11046134Y-12726984D02*
X11027087Y-12717460D01*
X11027087Y-12717460D02*
X11017563Y-12707936D01*
X11017563Y-12707936D02*
X11008039Y-12688888D01*
X11008039Y-12688888D02*
X10998515Y-12650793D01*
X10998515Y-12650793D02*
X10998515Y-12603174D01*
X10998515Y-12603174D02*
X11008039Y-12565079D01*
X11008039Y-12565079D02*
X11017563Y-12546031D01*
X11017563Y-12546031D02*
X11027087Y-12536508D01*
X11027087Y-12536508D02*
X11046134Y-12526984D01*
X11198515Y-12707936D02*
X11208039Y-12717460D01*
X11208039Y-12717460D02*
X11198515Y-12726984D01*
X11198515Y-12726984D02*
X11188991Y-12717460D01*
X11188991Y-12717460D02*
X11198515Y-12707936D01*
X11198515Y-12707936D02*
X11198515Y-12726984D01*
X11331848Y-12526984D02*
X11350896Y-12526984D01*
X11350896Y-12526984D02*
X11369944Y-12536508D01*
X11369944Y-12536508D02*
X11379467Y-12546031D01*
X11379467Y-12546031D02*
X11388991Y-12565079D01*
X11388991Y-12565079D02*
X11398515Y-12603174D01*
X11398515Y-12603174D02*
X11398515Y-12650793D01*
X11398515Y-12650793D02*
X11388991Y-12688888D01*
X11388991Y-12688888D02*
X11379467Y-12707936D01*
X11379467Y-12707936D02*
X11369944Y-12717460D01*
X11369944Y-12717460D02*
X11350896Y-12726984D01*
X11350896Y-12726984D02*
X11331848Y-12726984D01*
X11331848Y-12726984D02*
X11312801Y-12717460D01*
X11312801Y-12717460D02*
X11303277Y-12707936D01*
X11303277Y-12707936D02*
X11293753Y-12688888D01*
X11293753Y-12688888D02*
X11284229Y-12650793D01*
X11284229Y-12650793D02*
X11284229Y-12603174D01*
X11284229Y-12603174D02*
X11293753Y-12565079D01*
X11293753Y-12565079D02*
X11303277Y-12546031D01*
X11303277Y-12546031D02*
X11312801Y-12536508D01*
X11312801Y-12536508D02*
X11331848Y-12526984D01*
X11512801Y-12612698D02*
X11493753Y-12603174D01*
X11493753Y-12603174D02*
X11484229Y-12593650D01*
X11484229Y-12593650D02*
X11474706Y-12574603D01*
X11474706Y-12574603D02*
X11474706Y-12565079D01*
X11474706Y-12565079D02*
X11484229Y-12546031D01*
X11484229Y-12546031D02*
X11493753Y-12536508D01*
X11493753Y-12536508D02*
X11512801Y-12526984D01*
X11512801Y-12526984D02*
X11550896Y-12526984D01*
X11550896Y-12526984D02*
X11569944Y-12536508D01*
X11569944Y-12536508D02*
X11579467Y-12546031D01*
X11579467Y-12546031D02*
X11588991Y-12565079D01*
X11588991Y-12565079D02*
X11588991Y-12574603D01*
X11588991Y-12574603D02*
X11579467Y-12593650D01*
X11579467Y-12593650D02*
X11569944Y-12603174D01*
X11569944Y-12603174D02*
X11550896Y-12612698D01*
X11550896Y-12612698D02*
X11512801Y-12612698D01*
X11512801Y-12612698D02*
X11493753Y-12622222D01*
X11493753Y-12622222D02*
X11484229Y-12631746D01*
X11484229Y-12631746D02*
X11474706Y-12650793D01*
X11474706Y-12650793D02*
X11474706Y-12688888D01*
X11474706Y-12688888D02*
X11484229Y-12707936D01*
X11484229Y-12707936D02*
X11493753Y-12717460D01*
X11493753Y-12717460D02*
X11512801Y-12726984D01*
X11512801Y-12726984D02*
X11550896Y-12726984D01*
X11550896Y-12726984D02*
X11569944Y-12717460D01*
X11569944Y-12717460D02*
X11579467Y-12707936D01*
X11579467Y-12707936D02*
X11588991Y-12688888D01*
X11588991Y-12688888D02*
X11588991Y-12650793D01*
X11588991Y-12650793D02*
X11579467Y-12631746D01*
X11579467Y-12631746D02*
X11569944Y-12622222D01*
X11569944Y-12622222D02*
X11550896Y-12612698D01*
X11760420Y-12526984D02*
X11722325Y-12526984D01*
X11722325Y-12526984D02*
X11703277Y-12536508D01*
X11703277Y-12536508D02*
X11693753Y-12546031D01*
X11693753Y-12546031D02*
X11674706Y-12574603D01*
X11674706Y-12574603D02*
X11665182Y-12612698D01*
X11665182Y-12612698D02*
X11665182Y-12688888D01*
X11665182Y-12688888D02*
X11674706Y-12707936D01*
X11674706Y-12707936D02*
X11684229Y-12717460D01*
X11684229Y-12717460D02*
X11703277Y-12726984D01*
X11703277Y-12726984D02*
X11741372Y-12726984D01*
X11741372Y-12726984D02*
X11760420Y-12717460D01*
X11760420Y-12717460D02*
X11769944Y-12707936D01*
X11769944Y-12707936D02*
X11779467Y-12688888D01*
X11779467Y-12688888D02*
X11779467Y-12641269D01*
X11779467Y-12641269D02*
X11769944Y-12622222D01*
X11769944Y-12622222D02*
X11760420Y-12612698D01*
X11760420Y-12612698D02*
X11741372Y-12603174D01*
X11741372Y-12603174D02*
X11703277Y-12603174D01*
X11703277Y-12603174D02*
X11684229Y-12612698D01*
X11684229Y-12612698D02*
X11674706Y-12622222D01*
X11674706Y-12622222D02*
X11665182Y-12641269D01*
X11950896Y-12526984D02*
X11912801Y-12526984D01*
X11912801Y-12526984D02*
X11893753Y-12536508D01*
X11893753Y-12536508D02*
X11884229Y-12546031D01*
X11884229Y-12546031D02*
X11865182Y-12574603D01*
X11865182Y-12574603D02*
X11855658Y-12612698D01*
X11855658Y-12612698D02*
X11855658Y-12688888D01*
X11855658Y-12688888D02*
X11865182Y-12707936D01*
X11865182Y-12707936D02*
X11874706Y-12717460D01*
X11874706Y-12717460D02*
X11893753Y-12726984D01*
X11893753Y-12726984D02*
X11931848Y-12726984D01*
X11931848Y-12726984D02*
X11950896Y-12717460D01*
X11950896Y-12717460D02*
X11960420Y-12707936D01*
X11960420Y-12707936D02*
X11969944Y-12688888D01*
X11969944Y-12688888D02*
X11969944Y-12641269D01*
X11969944Y-12641269D02*
X11960420Y-12622222D01*
X11960420Y-12622222D02*
X11950896Y-12612698D01*
X11950896Y-12612698D02*
X11931848Y-12603174D01*
X11931848Y-12603174D02*
X11893753Y-12603174D01*
X11893753Y-12603174D02*
X11874706Y-12612698D01*
X11874706Y-12612698D02*
X11865182Y-12622222D01*
X11865182Y-12622222D02*
X11855658Y-12641269D01*
X12046134Y-12526984D02*
X12046134Y-12565079D01*
X12122325Y-12526984D02*
X12122325Y-12565079D01*
X12417563Y-12803174D02*
X12408039Y-12793650D01*
X12408039Y-12793650D02*
X12388991Y-12765079D01*
X12388991Y-12765079D02*
X12379468Y-12746031D01*
X12379468Y-12746031D02*
X12369944Y-12717460D01*
X12369944Y-12717460D02*
X12360420Y-12669841D01*
X12360420Y-12669841D02*
X12360420Y-12631746D01*
X12360420Y-12631746D02*
X12369944Y-12584127D01*
X12369944Y-12584127D02*
X12379468Y-12555555D01*
X12379468Y-12555555D02*
X12388991Y-12536508D01*
X12388991Y-12536508D02*
X12408039Y-12507936D01*
X12408039Y-12507936D02*
X12417563Y-12498412D01*
X12588991Y-12526984D02*
X12493753Y-12526984D01*
X12493753Y-12526984D02*
X12484229Y-12622222D01*
X12484229Y-12622222D02*
X12493753Y-12612698D01*
X12493753Y-12612698D02*
X12512801Y-12603174D01*
X12512801Y-12603174D02*
X12560420Y-12603174D01*
X12560420Y-12603174D02*
X12579468Y-12612698D01*
X12579468Y-12612698D02*
X12588991Y-12622222D01*
X12588991Y-12622222D02*
X12598515Y-12641269D01*
X12598515Y-12641269D02*
X12598515Y-12688888D01*
X12598515Y-12688888D02*
X12588991Y-12707936D01*
X12588991Y-12707936D02*
X12579468Y-12717460D01*
X12579468Y-12717460D02*
X12560420Y-12726984D01*
X12560420Y-12726984D02*
X12512801Y-12726984D01*
X12512801Y-12726984D02*
X12493753Y-12717460D01*
X12493753Y-12717460D02*
X12484229Y-12707936D01*
X12836610Y-12726984D02*
X12836610Y-12526984D01*
X12922325Y-12726984D02*
X12922325Y-12622222D01*
X12922325Y-12622222D02*
X12912801Y-12603174D01*
X12912801Y-12603174D02*
X12893753Y-12593650D01*
X12893753Y-12593650D02*
X12865182Y-12593650D01*
X12865182Y-12593650D02*
X12846134Y-12603174D01*
X12846134Y-12603174D02*
X12836610Y-12612698D01*
X13046134Y-12726984D02*
X13027087Y-12717460D01*
X13027087Y-12717460D02*
X13017563Y-12707936D01*
X13017563Y-12707936D02*
X13008039Y-12688888D01*
X13008039Y-12688888D02*
X13008039Y-12631746D01*
X13008039Y-12631746D02*
X13017563Y-12612698D01*
X13017563Y-12612698D02*
X13027087Y-12603174D01*
X13027087Y-12603174D02*
X13046134Y-12593650D01*
X13046134Y-12593650D02*
X13074706Y-12593650D01*
X13074706Y-12593650D02*
X13093753Y-12603174D01*
X13093753Y-12603174D02*
X13103277Y-12612698D01*
X13103277Y-12612698D02*
X13112801Y-12631746D01*
X13112801Y-12631746D02*
X13112801Y-12688888D01*
X13112801Y-12688888D02*
X13103277Y-12707936D01*
X13103277Y-12707936D02*
X13093753Y-12717460D01*
X13093753Y-12717460D02*
X13074706Y-12726984D01*
X13074706Y-12726984D02*
X13046134Y-12726984D01*
X13227087Y-12726984D02*
X13208039Y-12717460D01*
X13208039Y-12717460D02*
X13198515Y-12698412D01*
X13198515Y-12698412D02*
X13198515Y-12526984D01*
X13379468Y-12717460D02*
X13360420Y-12726984D01*
X13360420Y-12726984D02*
X13322325Y-12726984D01*
X13322325Y-12726984D02*
X13303277Y-12717460D01*
X13303277Y-12717460D02*
X13293753Y-12698412D01*
X13293753Y-12698412D02*
X13293753Y-12622222D01*
X13293753Y-12622222D02*
X13303277Y-12603174D01*
X13303277Y-12603174D02*
X13322325Y-12593650D01*
X13322325Y-12593650D02*
X13360420Y-12593650D01*
X13360420Y-12593650D02*
X13379468Y-12603174D01*
X13379468Y-12603174D02*
X13388991Y-12622222D01*
X13388991Y-12622222D02*
X13388991Y-12641269D01*
X13388991Y-12641269D02*
X13293753Y-12660317D01*
X13465182Y-12717460D02*
X13484230Y-12726984D01*
X13484230Y-12726984D02*
X13522325Y-12726984D01*
X13522325Y-12726984D02*
X13541372Y-12717460D01*
X13541372Y-12717460D02*
X13550896Y-12698412D01*
X13550896Y-12698412D02*
X13550896Y-12688888D01*
X13550896Y-12688888D02*
X13541372Y-12669841D01*
X13541372Y-12669841D02*
X13522325Y-12660317D01*
X13522325Y-12660317D02*
X13493753Y-12660317D01*
X13493753Y-12660317D02*
X13474706Y-12650793D01*
X13474706Y-12650793D02*
X13465182Y-12631746D01*
X13465182Y-12631746D02*
X13465182Y-12622222D01*
X13465182Y-12622222D02*
X13474706Y-12603174D01*
X13474706Y-12603174D02*
X13493753Y-12593650D01*
X13493753Y-12593650D02*
X13522325Y-12593650D01*
X13522325Y-12593650D02*
X13541372Y-12603174D01*
X13617563Y-12803174D02*
X13627087Y-12793650D01*
X13627087Y-12793650D02*
X13646134Y-12765079D01*
X13646134Y-12765079D02*
X13655658Y-12746031D01*
X13655658Y-12746031D02*
X13665182Y-12717460D01*
X13665182Y-12717460D02*
X13674706Y-12669841D01*
X13674706Y-12669841D02*
X13674706Y-12631746D01*
X13674706Y-12631746D02*
X13665182Y-12584127D01*
X13665182Y-12584127D02*
X13655658Y-12555555D01*
X13655658Y-12555555D02*
X13646134Y-12536508D01*
X13646134Y-12536508D02*
X13627087Y-12507936D01*
X13627087Y-12507936D02*
X13617563Y-12498412D01*
X13979468Y-12803174D02*
X13969944Y-12793650D01*
X13969944Y-12793650D02*
X13950896Y-12765079D01*
X13950896Y-12765079D02*
X13941372Y-12746031D01*
X13941372Y-12746031D02*
X13931849Y-12717460D01*
X13931849Y-12717460D02*
X13922325Y-12669841D01*
X13922325Y-12669841D02*
X13922325Y-12631746D01*
X13922325Y-12631746D02*
X13931849Y-12584127D01*
X13931849Y-12584127D02*
X13941372Y-12555555D01*
X13941372Y-12555555D02*
X13950896Y-12536508D01*
X13950896Y-12536508D02*
X13969944Y-12507936D01*
X13969944Y-12507936D02*
X13979468Y-12498412D01*
X14055658Y-12593650D02*
X14055658Y-12726984D01*
X14055658Y-12612698D02*
X14065182Y-12603174D01*
X14065182Y-12603174D02*
X14084230Y-12593650D01*
X14084230Y-12593650D02*
X14112801Y-12593650D01*
X14112801Y-12593650D02*
X14131849Y-12603174D01*
X14131849Y-12603174D02*
X14141372Y-12622222D01*
X14141372Y-12622222D02*
X14141372Y-12726984D01*
X14265182Y-12726984D02*
X14246134Y-12717460D01*
X14246134Y-12717460D02*
X14236611Y-12707936D01*
X14236611Y-12707936D02*
X14227087Y-12688888D01*
X14227087Y-12688888D02*
X14227087Y-12631746D01*
X14227087Y-12631746D02*
X14236611Y-12612698D01*
X14236611Y-12612698D02*
X14246134Y-12603174D01*
X14246134Y-12603174D02*
X14265182Y-12593650D01*
X14265182Y-12593650D02*
X14293753Y-12593650D01*
X14293753Y-12593650D02*
X14312801Y-12603174D01*
X14312801Y-12603174D02*
X14322325Y-12612698D01*
X14322325Y-12612698D02*
X14331849Y-12631746D01*
X14331849Y-12631746D02*
X14331849Y-12688888D01*
X14331849Y-12688888D02*
X14322325Y-12707936D01*
X14322325Y-12707936D02*
X14312801Y-12717460D01*
X14312801Y-12717460D02*
X14293753Y-12726984D01*
X14293753Y-12726984D02*
X14265182Y-12726984D01*
X14388992Y-12593650D02*
X14465182Y-12593650D01*
X14417563Y-12526984D02*
X14417563Y-12698412D01*
X14417563Y-12698412D02*
X14427087Y-12717460D01*
X14427087Y-12717460D02*
X14446134Y-12726984D01*
X14446134Y-12726984D02*
X14465182Y-12726984D01*
X14684230Y-12593650D02*
X14684230Y-12793650D01*
X14684230Y-12603174D02*
X14703277Y-12593650D01*
X14703277Y-12593650D02*
X14741373Y-12593650D01*
X14741373Y-12593650D02*
X14760420Y-12603174D01*
X14760420Y-12603174D02*
X14769944Y-12612698D01*
X14769944Y-12612698D02*
X14779468Y-12631746D01*
X14779468Y-12631746D02*
X14779468Y-12688888D01*
X14779468Y-12688888D02*
X14769944Y-12707936D01*
X14769944Y-12707936D02*
X14760420Y-12717460D01*
X14760420Y-12717460D02*
X14741373Y-12726984D01*
X14741373Y-12726984D02*
X14703277Y-12726984D01*
X14703277Y-12726984D02*
X14684230Y-12717460D01*
X14893753Y-12726984D02*
X14874706Y-12717460D01*
X14874706Y-12717460D02*
X14865182Y-12698412D01*
X14865182Y-12698412D02*
X14865182Y-12526984D01*
X15055658Y-12726984D02*
X15055658Y-12622222D01*
X15055658Y-12622222D02*
X15046134Y-12603174D01*
X15046134Y-12603174D02*
X15027087Y-12593650D01*
X15027087Y-12593650D02*
X14988992Y-12593650D01*
X14988992Y-12593650D02*
X14969944Y-12603174D01*
X15055658Y-12717460D02*
X15036611Y-12726984D01*
X15036611Y-12726984D02*
X14988992Y-12726984D01*
X14988992Y-12726984D02*
X14969944Y-12717460D01*
X14969944Y-12717460D02*
X14960420Y-12698412D01*
X14960420Y-12698412D02*
X14960420Y-12679365D01*
X14960420Y-12679365D02*
X14969944Y-12660317D01*
X14969944Y-12660317D02*
X14988992Y-12650793D01*
X14988992Y-12650793D02*
X15036611Y-12650793D01*
X15036611Y-12650793D02*
X15055658Y-12641269D01*
X15122325Y-12593650D02*
X15198515Y-12593650D01*
X15150896Y-12526984D02*
X15150896Y-12698412D01*
X15150896Y-12698412D02*
X15160420Y-12717460D01*
X15160420Y-12717460D02*
X15179468Y-12726984D01*
X15179468Y-12726984D02*
X15198515Y-12726984D01*
X15341373Y-12717460D02*
X15322325Y-12726984D01*
X15322325Y-12726984D02*
X15284230Y-12726984D01*
X15284230Y-12726984D02*
X15265182Y-12717460D01*
X15265182Y-12717460D02*
X15255658Y-12698412D01*
X15255658Y-12698412D02*
X15255658Y-12622222D01*
X15255658Y-12622222D02*
X15265182Y-12603174D01*
X15265182Y-12603174D02*
X15284230Y-12593650D01*
X15284230Y-12593650D02*
X15322325Y-12593650D01*
X15322325Y-12593650D02*
X15341373Y-12603174D01*
X15341373Y-12603174D02*
X15350896Y-12622222D01*
X15350896Y-12622222D02*
X15350896Y-12641269D01*
X15350896Y-12641269D02*
X15255658Y-12660317D01*
X15522325Y-12726984D02*
X15522325Y-12526984D01*
X15522325Y-12717460D02*
X15503277Y-12726984D01*
X15503277Y-12726984D02*
X15465182Y-12726984D01*
X15465182Y-12726984D02*
X15446134Y-12717460D01*
X15446134Y-12717460D02*
X15436611Y-12707936D01*
X15436611Y-12707936D02*
X15427087Y-12688888D01*
X15427087Y-12688888D02*
X15427087Y-12631746D01*
X15427087Y-12631746D02*
X15436611Y-12612698D01*
X15436611Y-12612698D02*
X15446134Y-12603174D01*
X15446134Y-12603174D02*
X15465182Y-12593650D01*
X15465182Y-12593650D02*
X15503277Y-12593650D01*
X15503277Y-12593650D02*
X15522325Y-12603174D01*
X15598515Y-12803174D02*
X15608039Y-12793650D01*
X15608039Y-12793650D02*
X15627087Y-12765079D01*
X15627087Y-12765079D02*
X15636611Y-12746031D01*
X15636611Y-12746031D02*
X15646134Y-12717460D01*
X15646134Y-12717460D02*
X15655658Y-12669841D01*
X15655658Y-12669841D02*
X15655658Y-12631746D01*
X15655658Y-12631746D02*
X15646134Y-12584127D01*
X15646134Y-12584127D02*
X15636611Y-12555555D01*
X15636611Y-12555555D02*
X15627087Y-12536508D01*
X15627087Y-12536508D02*
X15608039Y-12507936D01*
X15608039Y-12507936D02*
X15598515Y-12498412D01*
X8742500Y-13055500D02*
X8842500Y-12955500D01*
X8742500Y-12855500D01*
X8642500Y-12955500D01*
X8742500Y-13055500D01*
X9084229Y-12846984D02*
X9208039Y-12846984D01*
X9208039Y-12846984D02*
X9141372Y-12923174D01*
X9141372Y-12923174D02*
X9169944Y-12923174D01*
X9169944Y-12923174D02*
X9188991Y-12932698D01*
X9188991Y-12932698D02*
X9198515Y-12942222D01*
X9198515Y-12942222D02*
X9208039Y-12961269D01*
X9208039Y-12961269D02*
X9208039Y-13008888D01*
X9208039Y-13008888D02*
X9198515Y-13027936D01*
X9198515Y-13027936D02*
X9188991Y-13037460D01*
X9188991Y-13037460D02*
X9169944Y-13046984D01*
X9169944Y-13046984D02*
X9112801Y-13046984D01*
X9112801Y-13046984D02*
X9093753Y-13037460D01*
X9093753Y-13037460D02*
X9084229Y-13027936D01*
X9293753Y-13027936D02*
X9303277Y-13037460D01*
X9303277Y-13037460D02*
X9293753Y-13046984D01*
X9293753Y-13046984D02*
X9284229Y-13037460D01*
X9284229Y-13037460D02*
X9293753Y-13027936D01*
X9293753Y-13027936D02*
X9293753Y-13046984D01*
X9427086Y-12846984D02*
X9446134Y-12846984D01*
X9446134Y-12846984D02*
X9465182Y-12856508D01*
X9465182Y-12856508D02*
X9474705Y-12866031D01*
X9474705Y-12866031D02*
X9484229Y-12885079D01*
X9484229Y-12885079D02*
X9493753Y-12923174D01*
X9493753Y-12923174D02*
X9493753Y-12970793D01*
X9493753Y-12970793D02*
X9484229Y-13008888D01*
X9484229Y-13008888D02*
X9474705Y-13027936D01*
X9474705Y-13027936D02*
X9465182Y-13037460D01*
X9465182Y-13037460D02*
X9446134Y-13046984D01*
X9446134Y-13046984D02*
X9427086Y-13046984D01*
X9427086Y-13046984D02*
X9408039Y-13037460D01*
X9408039Y-13037460D02*
X9398515Y-13027936D01*
X9398515Y-13027936D02*
X9388991Y-13008888D01*
X9388991Y-13008888D02*
X9379467Y-12970793D01*
X9379467Y-12970793D02*
X9379467Y-12923174D01*
X9379467Y-12923174D02*
X9388991Y-12885079D01*
X9388991Y-12885079D02*
X9398515Y-12866031D01*
X9398515Y-12866031D02*
X9408039Y-12856508D01*
X9408039Y-12856508D02*
X9427086Y-12846984D01*
X9617563Y-12846984D02*
X9636610Y-12846984D01*
X9636610Y-12846984D02*
X9655658Y-12856508D01*
X9655658Y-12856508D02*
X9665182Y-12866031D01*
X9665182Y-12866031D02*
X9674705Y-12885079D01*
X9674705Y-12885079D02*
X9684229Y-12923174D01*
X9684229Y-12923174D02*
X9684229Y-12970793D01*
X9684229Y-12970793D02*
X9674705Y-13008888D01*
X9674705Y-13008888D02*
X9665182Y-13027936D01*
X9665182Y-13027936D02*
X9655658Y-13037460D01*
X9655658Y-13037460D02*
X9636610Y-13046984D01*
X9636610Y-13046984D02*
X9617563Y-13046984D01*
X9617563Y-13046984D02*
X9598515Y-13037460D01*
X9598515Y-13037460D02*
X9588991Y-13027936D01*
X9588991Y-13027936D02*
X9579467Y-13008888D01*
X9579467Y-13008888D02*
X9569944Y-12970793D01*
X9569944Y-12970793D02*
X9569944Y-12923174D01*
X9569944Y-12923174D02*
X9579467Y-12885079D01*
X9579467Y-12885079D02*
X9588991Y-12866031D01*
X9588991Y-12866031D02*
X9598515Y-12856508D01*
X9598515Y-12856508D02*
X9617563Y-12846984D01*
X9808039Y-12846984D02*
X9827086Y-12846984D01*
X9827086Y-12846984D02*
X9846134Y-12856508D01*
X9846134Y-12856508D02*
X9855658Y-12866031D01*
X9855658Y-12866031D02*
X9865182Y-12885079D01*
X9865182Y-12885079D02*
X9874705Y-12923174D01*
X9874705Y-12923174D02*
X9874705Y-12970793D01*
X9874705Y-12970793D02*
X9865182Y-13008888D01*
X9865182Y-13008888D02*
X9855658Y-13027936D01*
X9855658Y-13027936D02*
X9846134Y-13037460D01*
X9846134Y-13037460D02*
X9827086Y-13046984D01*
X9827086Y-13046984D02*
X9808039Y-13046984D01*
X9808039Y-13046984D02*
X9788991Y-13037460D01*
X9788991Y-13037460D02*
X9779467Y-13027936D01*
X9779467Y-13027936D02*
X9769944Y-13008888D01*
X9769944Y-13008888D02*
X9760420Y-12970793D01*
X9760420Y-12970793D02*
X9760420Y-12923174D01*
X9760420Y-12923174D02*
X9769944Y-12885079D01*
X9769944Y-12885079D02*
X9779467Y-12866031D01*
X9779467Y-12866031D02*
X9788991Y-12856508D01*
X9788991Y-12856508D02*
X9808039Y-12846984D01*
X9960420Y-13046984D02*
X9960420Y-12913650D01*
X9960420Y-12932698D02*
X9969944Y-12923174D01*
X9969944Y-12923174D02*
X9988991Y-12913650D01*
X9988991Y-12913650D02*
X10017563Y-12913650D01*
X10017563Y-12913650D02*
X10036610Y-12923174D01*
X10036610Y-12923174D02*
X10046134Y-12942222D01*
X10046134Y-12942222D02*
X10046134Y-13046984D01*
X10046134Y-12942222D02*
X10055658Y-12923174D01*
X10055658Y-12923174D02*
X10074705Y-12913650D01*
X10074705Y-12913650D02*
X10103277Y-12913650D01*
X10103277Y-12913650D02*
X10122325Y-12923174D01*
X10122325Y-12923174D02*
X10131848Y-12942222D01*
X10131848Y-12942222D02*
X10131848Y-13046984D01*
X10227086Y-13046984D02*
X10227086Y-12913650D01*
X10227086Y-12932698D02*
X10236610Y-12923174D01*
X10236610Y-12923174D02*
X10255658Y-12913650D01*
X10255658Y-12913650D02*
X10284229Y-12913650D01*
X10284229Y-12913650D02*
X10303277Y-12923174D01*
X10303277Y-12923174D02*
X10312801Y-12942222D01*
X10312801Y-12942222D02*
X10312801Y-13046984D01*
X10312801Y-12942222D02*
X10322325Y-12923174D01*
X10322325Y-12923174D02*
X10341372Y-12913650D01*
X10341372Y-12913650D02*
X10369944Y-12913650D01*
X10369944Y-12913650D02*
X10388991Y-12923174D01*
X10388991Y-12923174D02*
X10398515Y-12942222D01*
X10398515Y-12942222D02*
X10398515Y-13046984D01*
X10788991Y-12837460D02*
X10617563Y-13094603D01*
X11046134Y-12846984D02*
X11065182Y-12846984D01*
X11065182Y-12846984D02*
X11084229Y-12856508D01*
X11084229Y-12856508D02*
X11093753Y-12866031D01*
X11093753Y-12866031D02*
X11103277Y-12885079D01*
X11103277Y-12885079D02*
X11112801Y-12923174D01*
X11112801Y-12923174D02*
X11112801Y-12970793D01*
X11112801Y-12970793D02*
X11103277Y-13008888D01*
X11103277Y-13008888D02*
X11093753Y-13027936D01*
X11093753Y-13027936D02*
X11084229Y-13037460D01*
X11084229Y-13037460D02*
X11065182Y-13046984D01*
X11065182Y-13046984D02*
X11046134Y-13046984D01*
X11046134Y-13046984D02*
X11027087Y-13037460D01*
X11027087Y-13037460D02*
X11017563Y-13027936D01*
X11017563Y-13027936D02*
X11008039Y-13008888D01*
X11008039Y-13008888D02*
X10998515Y-12970793D01*
X10998515Y-12970793D02*
X10998515Y-12923174D01*
X10998515Y-12923174D02*
X11008039Y-12885079D01*
X11008039Y-12885079D02*
X11017563Y-12866031D01*
X11017563Y-12866031D02*
X11027087Y-12856508D01*
X11027087Y-12856508D02*
X11046134Y-12846984D01*
X11198515Y-13027936D02*
X11208039Y-13037460D01*
X11208039Y-13037460D02*
X11198515Y-13046984D01*
X11198515Y-13046984D02*
X11188991Y-13037460D01*
X11188991Y-13037460D02*
X11198515Y-13027936D01*
X11198515Y-13027936D02*
X11198515Y-13046984D01*
X11398515Y-13046984D02*
X11284229Y-13046984D01*
X11341372Y-13046984D02*
X11341372Y-12846984D01*
X11341372Y-12846984D02*
X11322325Y-12875555D01*
X11322325Y-12875555D02*
X11303277Y-12894603D01*
X11303277Y-12894603D02*
X11284229Y-12904127D01*
X11588991Y-13046984D02*
X11474706Y-13046984D01*
X11531848Y-13046984D02*
X11531848Y-12846984D01*
X11531848Y-12846984D02*
X11512801Y-12875555D01*
X11512801Y-12875555D02*
X11493753Y-12894603D01*
X11493753Y-12894603D02*
X11474706Y-12904127D01*
X11703277Y-12932698D02*
X11684229Y-12923174D01*
X11684229Y-12923174D02*
X11674706Y-12913650D01*
X11674706Y-12913650D02*
X11665182Y-12894603D01*
X11665182Y-12894603D02*
X11665182Y-12885079D01*
X11665182Y-12885079D02*
X11674706Y-12866031D01*
X11674706Y-12866031D02*
X11684229Y-12856508D01*
X11684229Y-12856508D02*
X11703277Y-12846984D01*
X11703277Y-12846984D02*
X11741372Y-12846984D01*
X11741372Y-12846984D02*
X11760420Y-12856508D01*
X11760420Y-12856508D02*
X11769944Y-12866031D01*
X11769944Y-12866031D02*
X11779467Y-12885079D01*
X11779467Y-12885079D02*
X11779467Y-12894603D01*
X11779467Y-12894603D02*
X11769944Y-12913650D01*
X11769944Y-12913650D02*
X11760420Y-12923174D01*
X11760420Y-12923174D02*
X11741372Y-12932698D01*
X11741372Y-12932698D02*
X11703277Y-12932698D01*
X11703277Y-12932698D02*
X11684229Y-12942222D01*
X11684229Y-12942222D02*
X11674706Y-12951746D01*
X11674706Y-12951746D02*
X11665182Y-12970793D01*
X11665182Y-12970793D02*
X11665182Y-13008888D01*
X11665182Y-13008888D02*
X11674706Y-13027936D01*
X11674706Y-13027936D02*
X11684229Y-13037460D01*
X11684229Y-13037460D02*
X11703277Y-13046984D01*
X11703277Y-13046984D02*
X11741372Y-13046984D01*
X11741372Y-13046984D02*
X11760420Y-13037460D01*
X11760420Y-13037460D02*
X11769944Y-13027936D01*
X11769944Y-13027936D02*
X11779467Y-13008888D01*
X11779467Y-13008888D02*
X11779467Y-12970793D01*
X11779467Y-12970793D02*
X11769944Y-12951746D01*
X11769944Y-12951746D02*
X11760420Y-12942222D01*
X11760420Y-12942222D02*
X11741372Y-12932698D01*
X11969944Y-13046984D02*
X11855658Y-13046984D01*
X11912801Y-13046984D02*
X11912801Y-12846984D01*
X11912801Y-12846984D02*
X11893753Y-12875555D01*
X11893753Y-12875555D02*
X11874706Y-12894603D01*
X11874706Y-12894603D02*
X11855658Y-12904127D01*
X12046134Y-12846984D02*
X12046134Y-12885079D01*
X12122325Y-12846984D02*
X12122325Y-12885079D01*
X12417563Y-13123174D02*
X12408039Y-13113650D01*
X12408039Y-13113650D02*
X12388991Y-13085079D01*
X12388991Y-13085079D02*
X12379468Y-13066031D01*
X12379468Y-13066031D02*
X12369944Y-13037460D01*
X12369944Y-13037460D02*
X12360420Y-12989841D01*
X12360420Y-12989841D02*
X12360420Y-12951746D01*
X12360420Y-12951746D02*
X12369944Y-12904127D01*
X12369944Y-12904127D02*
X12379468Y-12875555D01*
X12379468Y-12875555D02*
X12388991Y-12856508D01*
X12388991Y-12856508D02*
X12408039Y-12827936D01*
X12408039Y-12827936D02*
X12417563Y-12818412D01*
X12579468Y-12913650D02*
X12579468Y-13046984D01*
X12531848Y-12837460D02*
X12484229Y-12980317D01*
X12484229Y-12980317D02*
X12608039Y-12980317D01*
X12712801Y-12932698D02*
X12693753Y-12923174D01*
X12693753Y-12923174D02*
X12684229Y-12913650D01*
X12684229Y-12913650D02*
X12674706Y-12894603D01*
X12674706Y-12894603D02*
X12674706Y-12885079D01*
X12674706Y-12885079D02*
X12684229Y-12866031D01*
X12684229Y-12866031D02*
X12693753Y-12856508D01*
X12693753Y-12856508D02*
X12712801Y-12846984D01*
X12712801Y-12846984D02*
X12750896Y-12846984D01*
X12750896Y-12846984D02*
X12769944Y-12856508D01*
X12769944Y-12856508D02*
X12779468Y-12866031D01*
X12779468Y-12866031D02*
X12788991Y-12885079D01*
X12788991Y-12885079D02*
X12788991Y-12894603D01*
X12788991Y-12894603D02*
X12779468Y-12913650D01*
X12779468Y-12913650D02*
X12769944Y-12923174D01*
X12769944Y-12923174D02*
X12750896Y-12932698D01*
X12750896Y-12932698D02*
X12712801Y-12932698D01*
X12712801Y-12932698D02*
X12693753Y-12942222D01*
X12693753Y-12942222D02*
X12684229Y-12951746D01*
X12684229Y-12951746D02*
X12674706Y-12970793D01*
X12674706Y-12970793D02*
X12674706Y-13008888D01*
X12674706Y-13008888D02*
X12684229Y-13027936D01*
X12684229Y-13027936D02*
X12693753Y-13037460D01*
X12693753Y-13037460D02*
X12712801Y-13046984D01*
X12712801Y-13046984D02*
X12750896Y-13046984D01*
X12750896Y-13046984D02*
X12769944Y-13037460D01*
X12769944Y-13037460D02*
X12779468Y-13027936D01*
X12779468Y-13027936D02*
X12788991Y-13008888D01*
X12788991Y-13008888D02*
X12788991Y-12970793D01*
X12788991Y-12970793D02*
X12779468Y-12951746D01*
X12779468Y-12951746D02*
X12769944Y-12942222D01*
X12769944Y-12942222D02*
X12750896Y-12932698D01*
X13027087Y-13046984D02*
X13027087Y-12846984D01*
X13112801Y-13046984D02*
X13112801Y-12942222D01*
X13112801Y-12942222D02*
X13103277Y-12923174D01*
X13103277Y-12923174D02*
X13084230Y-12913650D01*
X13084230Y-12913650D02*
X13055658Y-12913650D01*
X13055658Y-12913650D02*
X13036610Y-12923174D01*
X13036610Y-12923174D02*
X13027087Y-12932698D01*
X13236610Y-13046984D02*
X13217563Y-13037460D01*
X13217563Y-13037460D02*
X13208039Y-13027936D01*
X13208039Y-13027936D02*
X13198515Y-13008888D01*
X13198515Y-13008888D02*
X13198515Y-12951746D01*
X13198515Y-12951746D02*
X13208039Y-12932698D01*
X13208039Y-12932698D02*
X13217563Y-12923174D01*
X13217563Y-12923174D02*
X13236610Y-12913650D01*
X13236610Y-12913650D02*
X13265182Y-12913650D01*
X13265182Y-12913650D02*
X13284230Y-12923174D01*
X13284230Y-12923174D02*
X13293753Y-12932698D01*
X13293753Y-12932698D02*
X13303277Y-12951746D01*
X13303277Y-12951746D02*
X13303277Y-13008888D01*
X13303277Y-13008888D02*
X13293753Y-13027936D01*
X13293753Y-13027936D02*
X13284230Y-13037460D01*
X13284230Y-13037460D02*
X13265182Y-13046984D01*
X13265182Y-13046984D02*
X13236610Y-13046984D01*
X13417563Y-13046984D02*
X13398515Y-13037460D01*
X13398515Y-13037460D02*
X13388991Y-13018412D01*
X13388991Y-13018412D02*
X13388991Y-12846984D01*
X13569944Y-13037460D02*
X13550896Y-13046984D01*
X13550896Y-13046984D02*
X13512801Y-13046984D01*
X13512801Y-13046984D02*
X13493753Y-13037460D01*
X13493753Y-13037460D02*
X13484230Y-13018412D01*
X13484230Y-13018412D02*
X13484230Y-12942222D01*
X13484230Y-12942222D02*
X13493753Y-12923174D01*
X13493753Y-12923174D02*
X13512801Y-12913650D01*
X13512801Y-12913650D02*
X13550896Y-12913650D01*
X13550896Y-12913650D02*
X13569944Y-12923174D01*
X13569944Y-12923174D02*
X13579468Y-12942222D01*
X13579468Y-12942222D02*
X13579468Y-12961269D01*
X13579468Y-12961269D02*
X13484230Y-12980317D01*
X13655658Y-13037460D02*
X13674706Y-13046984D01*
X13674706Y-13046984D02*
X13712801Y-13046984D01*
X13712801Y-13046984D02*
X13731849Y-13037460D01*
X13731849Y-13037460D02*
X13741372Y-13018412D01*
X13741372Y-13018412D02*
X13741372Y-13008888D01*
X13741372Y-13008888D02*
X13731849Y-12989841D01*
X13731849Y-12989841D02*
X13712801Y-12980317D01*
X13712801Y-12980317D02*
X13684230Y-12980317D01*
X13684230Y-12980317D02*
X13665182Y-12970793D01*
X13665182Y-12970793D02*
X13655658Y-12951746D01*
X13655658Y-12951746D02*
X13655658Y-12942222D01*
X13655658Y-12942222D02*
X13665182Y-12923174D01*
X13665182Y-12923174D02*
X13684230Y-12913650D01*
X13684230Y-12913650D02*
X13712801Y-12913650D01*
X13712801Y-12913650D02*
X13731849Y-12923174D01*
X13808039Y-13123174D02*
X13817563Y-13113650D01*
X13817563Y-13113650D02*
X13836611Y-13085079D01*
X13836611Y-13085079D02*
X13846134Y-13066031D01*
X13846134Y-13066031D02*
X13855658Y-13037460D01*
X13855658Y-13037460D02*
X13865182Y-12989841D01*
X13865182Y-12989841D02*
X13865182Y-12951746D01*
X13865182Y-12951746D02*
X13855658Y-12904127D01*
X13855658Y-12904127D02*
X13846134Y-12875555D01*
X13846134Y-12875555D02*
X13836611Y-12856508D01*
X13836611Y-12856508D02*
X13817563Y-12827936D01*
X13817563Y-12827936D02*
X13808039Y-12818412D01*
X14169944Y-13123174D02*
X14160420Y-13113650D01*
X14160420Y-13113650D02*
X14141372Y-13085079D01*
X14141372Y-13085079D02*
X14131849Y-13066031D01*
X14131849Y-13066031D02*
X14122325Y-13037460D01*
X14122325Y-13037460D02*
X14112801Y-12989841D01*
X14112801Y-12989841D02*
X14112801Y-12951746D01*
X14112801Y-12951746D02*
X14122325Y-12904127D01*
X14122325Y-12904127D02*
X14131849Y-12875555D01*
X14131849Y-12875555D02*
X14141372Y-12856508D01*
X14141372Y-12856508D02*
X14160420Y-12827936D01*
X14160420Y-12827936D02*
X14169944Y-12818412D01*
X14246134Y-12913650D02*
X14246134Y-13046984D01*
X14246134Y-12932698D02*
X14255658Y-12923174D01*
X14255658Y-12923174D02*
X14274706Y-12913650D01*
X14274706Y-12913650D02*
X14303277Y-12913650D01*
X14303277Y-12913650D02*
X14322325Y-12923174D01*
X14322325Y-12923174D02*
X14331849Y-12942222D01*
X14331849Y-12942222D02*
X14331849Y-13046984D01*
X14455658Y-13046984D02*
X14436611Y-13037460D01*
X14436611Y-13037460D02*
X14427087Y-13027936D01*
X14427087Y-13027936D02*
X14417563Y-13008888D01*
X14417563Y-13008888D02*
X14417563Y-12951746D01*
X14417563Y-12951746D02*
X14427087Y-12932698D01*
X14427087Y-12932698D02*
X14436611Y-12923174D01*
X14436611Y-12923174D02*
X14455658Y-12913650D01*
X14455658Y-12913650D02*
X14484230Y-12913650D01*
X14484230Y-12913650D02*
X14503277Y-12923174D01*
X14503277Y-12923174D02*
X14512801Y-12932698D01*
X14512801Y-12932698D02*
X14522325Y-12951746D01*
X14522325Y-12951746D02*
X14522325Y-13008888D01*
X14522325Y-13008888D02*
X14512801Y-13027936D01*
X14512801Y-13027936D02*
X14503277Y-13037460D01*
X14503277Y-13037460D02*
X14484230Y-13046984D01*
X14484230Y-13046984D02*
X14455658Y-13046984D01*
X14579468Y-12913650D02*
X14655658Y-12913650D01*
X14608039Y-12846984D02*
X14608039Y-13018412D01*
X14608039Y-13018412D02*
X14617563Y-13037460D01*
X14617563Y-13037460D02*
X14636611Y-13046984D01*
X14636611Y-13046984D02*
X14655658Y-13046984D01*
X14874706Y-12913650D02*
X14874706Y-13113650D01*
X14874706Y-12923174D02*
X14893753Y-12913650D01*
X14893753Y-12913650D02*
X14931849Y-12913650D01*
X14931849Y-12913650D02*
X14950896Y-12923174D01*
X14950896Y-12923174D02*
X14960420Y-12932698D01*
X14960420Y-12932698D02*
X14969944Y-12951746D01*
X14969944Y-12951746D02*
X14969944Y-13008888D01*
X14969944Y-13008888D02*
X14960420Y-13027936D01*
X14960420Y-13027936D02*
X14950896Y-13037460D01*
X14950896Y-13037460D02*
X14931849Y-13046984D01*
X14931849Y-13046984D02*
X14893753Y-13046984D01*
X14893753Y-13046984D02*
X14874706Y-13037460D01*
X15084230Y-13046984D02*
X15065182Y-13037460D01*
X15065182Y-13037460D02*
X15055658Y-13018412D01*
X15055658Y-13018412D02*
X15055658Y-12846984D01*
X15246134Y-13046984D02*
X15246134Y-12942222D01*
X15246134Y-12942222D02*
X15236611Y-12923174D01*
X15236611Y-12923174D02*
X15217563Y-12913650D01*
X15217563Y-12913650D02*
X15179468Y-12913650D01*
X15179468Y-12913650D02*
X15160420Y-12923174D01*
X15246134Y-13037460D02*
X15227087Y-13046984D01*
X15227087Y-13046984D02*
X15179468Y-13046984D01*
X15179468Y-13046984D02*
X15160420Y-13037460D01*
X15160420Y-13037460D02*
X15150896Y-13018412D01*
X15150896Y-13018412D02*
X15150896Y-12999365D01*
X15150896Y-12999365D02*
X15160420Y-12980317D01*
X15160420Y-12980317D02*
X15179468Y-12970793D01*
X15179468Y-12970793D02*
X15227087Y-12970793D01*
X15227087Y-12970793D02*
X15246134Y-12961269D01*
X15312801Y-12913650D02*
X15388992Y-12913650D01*
X15341373Y-12846984D02*
X15341373Y-13018412D01*
X15341373Y-13018412D02*
X15350896Y-13037460D01*
X15350896Y-13037460D02*
X15369944Y-13046984D01*
X15369944Y-13046984D02*
X15388992Y-13046984D01*
X15531849Y-13037460D02*
X15512801Y-13046984D01*
X15512801Y-13046984D02*
X15474706Y-13046984D01*
X15474706Y-13046984D02*
X15455658Y-13037460D01*
X15455658Y-13037460D02*
X15446134Y-13018412D01*
X15446134Y-13018412D02*
X15446134Y-12942222D01*
X15446134Y-12942222D02*
X15455658Y-12923174D01*
X15455658Y-12923174D02*
X15474706Y-12913650D01*
X15474706Y-12913650D02*
X15512801Y-12913650D01*
X15512801Y-12913650D02*
X15531849Y-12923174D01*
X15531849Y-12923174D02*
X15541373Y-12942222D01*
X15541373Y-12942222D02*
X15541373Y-12961269D01*
X15541373Y-12961269D02*
X15446134Y-12980317D01*
X15712801Y-13046984D02*
X15712801Y-12846984D01*
X15712801Y-13037460D02*
X15693754Y-13046984D01*
X15693754Y-13046984D02*
X15655658Y-13046984D01*
X15655658Y-13046984D02*
X15636611Y-13037460D01*
X15636611Y-13037460D02*
X15627087Y-13027936D01*
X15627087Y-13027936D02*
X15617563Y-13008888D01*
X15617563Y-13008888D02*
X15617563Y-12951746D01*
X15617563Y-12951746D02*
X15627087Y-12932698D01*
X15627087Y-12932698D02*
X15636611Y-12923174D01*
X15636611Y-12923174D02*
X15655658Y-12913650D01*
X15655658Y-12913650D02*
X15693754Y-12913650D01*
X15693754Y-12913650D02*
X15712801Y-12923174D01*
X15788992Y-13123174D02*
X15798515Y-13113650D01*
X15798515Y-13113650D02*
X15817563Y-13085079D01*
X15817563Y-13085079D02*
X15827087Y-13066031D01*
X15827087Y-13066031D02*
X15836611Y-13037460D01*
X15836611Y-13037460D02*
X15846134Y-12989841D01*
X15846134Y-12989841D02*
X15846134Y-12951746D01*
X15846134Y-12951746D02*
X15836611Y-12904127D01*
X15836611Y-12904127D02*
X15827087Y-12875555D01*
X15827087Y-12875555D02*
X15817563Y-12856508D01*
X15817563Y-12856508D02*
X15798515Y-12827936D01*
X15798515Y-12827936D02*
X15788992Y-12818412D01*
X8642500Y-13175500D02*
X8842500Y-13375500D01*
X8842500Y-13175500D02*
X8642500Y-13375500D01*
X8842500Y-13275500D02*
G75*
G02*
X8642500Y-13275500I-100000J0D01*
G01*
X8642500Y-13275500D02*
G75*
G02*
X8842500Y-13275500I100000J0D01*
G01*
X9188991Y-13233650D02*
X9188991Y-13366984D01*
X9141372Y-13157460D02*
X9093753Y-13300317D01*
X9093753Y-13300317D02*
X9217563Y-13300317D01*
X9293753Y-13347936D02*
X9303277Y-13357460D01*
X9303277Y-13357460D02*
X9293753Y-13366984D01*
X9293753Y-13366984D02*
X9284229Y-13357460D01*
X9284229Y-13357460D02*
X9293753Y-13347936D01*
X9293753Y-13347936D02*
X9293753Y-13366984D01*
X9493753Y-13366984D02*
X9379467Y-13366984D01*
X9436610Y-13366984D02*
X9436610Y-13166984D01*
X9436610Y-13166984D02*
X9417563Y-13195555D01*
X9417563Y-13195555D02*
X9398515Y-13214603D01*
X9398515Y-13214603D02*
X9379467Y-13224127D01*
X9617563Y-13166984D02*
X9636610Y-13166984D01*
X9636610Y-13166984D02*
X9655658Y-13176508D01*
X9655658Y-13176508D02*
X9665182Y-13186031D01*
X9665182Y-13186031D02*
X9674705Y-13205079D01*
X9674705Y-13205079D02*
X9684229Y-13243174D01*
X9684229Y-13243174D02*
X9684229Y-13290793D01*
X9684229Y-13290793D02*
X9674705Y-13328888D01*
X9674705Y-13328888D02*
X9665182Y-13347936D01*
X9665182Y-13347936D02*
X9655658Y-13357460D01*
X9655658Y-13357460D02*
X9636610Y-13366984D01*
X9636610Y-13366984D02*
X9617563Y-13366984D01*
X9617563Y-13366984D02*
X9598515Y-13357460D01*
X9598515Y-13357460D02*
X9588991Y-13347936D01*
X9588991Y-13347936D02*
X9579467Y-13328888D01*
X9579467Y-13328888D02*
X9569944Y-13290793D01*
X9569944Y-13290793D02*
X9569944Y-13243174D01*
X9569944Y-13243174D02*
X9579467Y-13205079D01*
X9579467Y-13205079D02*
X9588991Y-13186031D01*
X9588991Y-13186031D02*
X9598515Y-13176508D01*
X9598515Y-13176508D02*
X9617563Y-13166984D01*
X9808039Y-13166984D02*
X9827086Y-13166984D01*
X9827086Y-13166984D02*
X9846134Y-13176508D01*
X9846134Y-13176508D02*
X9855658Y-13186031D01*
X9855658Y-13186031D02*
X9865182Y-13205079D01*
X9865182Y-13205079D02*
X9874705Y-13243174D01*
X9874705Y-13243174D02*
X9874705Y-13290793D01*
X9874705Y-13290793D02*
X9865182Y-13328888D01*
X9865182Y-13328888D02*
X9855658Y-13347936D01*
X9855658Y-13347936D02*
X9846134Y-13357460D01*
X9846134Y-13357460D02*
X9827086Y-13366984D01*
X9827086Y-13366984D02*
X9808039Y-13366984D01*
X9808039Y-13366984D02*
X9788991Y-13357460D01*
X9788991Y-13357460D02*
X9779467Y-13347936D01*
X9779467Y-13347936D02*
X9769944Y-13328888D01*
X9769944Y-13328888D02*
X9760420Y-13290793D01*
X9760420Y-13290793D02*
X9760420Y-13243174D01*
X9760420Y-13243174D02*
X9769944Y-13205079D01*
X9769944Y-13205079D02*
X9779467Y-13186031D01*
X9779467Y-13186031D02*
X9788991Y-13176508D01*
X9788991Y-13176508D02*
X9808039Y-13166984D01*
X9960420Y-13366984D02*
X9960420Y-13233650D01*
X9960420Y-13252698D02*
X9969944Y-13243174D01*
X9969944Y-13243174D02*
X9988991Y-13233650D01*
X9988991Y-13233650D02*
X10017563Y-13233650D01*
X10017563Y-13233650D02*
X10036610Y-13243174D01*
X10036610Y-13243174D02*
X10046134Y-13262222D01*
X10046134Y-13262222D02*
X10046134Y-13366984D01*
X10046134Y-13262222D02*
X10055658Y-13243174D01*
X10055658Y-13243174D02*
X10074705Y-13233650D01*
X10074705Y-13233650D02*
X10103277Y-13233650D01*
X10103277Y-13233650D02*
X10122325Y-13243174D01*
X10122325Y-13243174D02*
X10131848Y-13262222D01*
X10131848Y-13262222D02*
X10131848Y-13366984D01*
X10227086Y-13366984D02*
X10227086Y-13233650D01*
X10227086Y-13252698D02*
X10236610Y-13243174D01*
X10236610Y-13243174D02*
X10255658Y-13233650D01*
X10255658Y-13233650D02*
X10284229Y-13233650D01*
X10284229Y-13233650D02*
X10303277Y-13243174D01*
X10303277Y-13243174D02*
X10312801Y-13262222D01*
X10312801Y-13262222D02*
X10312801Y-13366984D01*
X10312801Y-13262222D02*
X10322325Y-13243174D01*
X10322325Y-13243174D02*
X10341372Y-13233650D01*
X10341372Y-13233650D02*
X10369944Y-13233650D01*
X10369944Y-13233650D02*
X10388991Y-13243174D01*
X10388991Y-13243174D02*
X10398515Y-13262222D01*
X10398515Y-13262222D02*
X10398515Y-13366984D01*
X10788991Y-13157460D02*
X10617563Y-13414603D01*
X11046134Y-13166984D02*
X11065182Y-13166984D01*
X11065182Y-13166984D02*
X11084229Y-13176508D01*
X11084229Y-13176508D02*
X11093753Y-13186031D01*
X11093753Y-13186031D02*
X11103277Y-13205079D01*
X11103277Y-13205079D02*
X11112801Y-13243174D01*
X11112801Y-13243174D02*
X11112801Y-13290793D01*
X11112801Y-13290793D02*
X11103277Y-13328888D01*
X11103277Y-13328888D02*
X11093753Y-13347936D01*
X11093753Y-13347936D02*
X11084229Y-13357460D01*
X11084229Y-13357460D02*
X11065182Y-13366984D01*
X11065182Y-13366984D02*
X11046134Y-13366984D01*
X11046134Y-13366984D02*
X11027087Y-13357460D01*
X11027087Y-13357460D02*
X11017563Y-13347936D01*
X11017563Y-13347936D02*
X11008039Y-13328888D01*
X11008039Y-13328888D02*
X10998515Y-13290793D01*
X10998515Y-13290793D02*
X10998515Y-13243174D01*
X10998515Y-13243174D02*
X11008039Y-13205079D01*
X11008039Y-13205079D02*
X11017563Y-13186031D01*
X11017563Y-13186031D02*
X11027087Y-13176508D01*
X11027087Y-13176508D02*
X11046134Y-13166984D01*
X11198515Y-13347936D02*
X11208039Y-13357460D01*
X11208039Y-13357460D02*
X11198515Y-13366984D01*
X11198515Y-13366984D02*
X11188991Y-13357460D01*
X11188991Y-13357460D02*
X11198515Y-13347936D01*
X11198515Y-13347936D02*
X11198515Y-13366984D01*
X11398515Y-13366984D02*
X11284229Y-13366984D01*
X11341372Y-13366984D02*
X11341372Y-13166984D01*
X11341372Y-13166984D02*
X11322325Y-13195555D01*
X11322325Y-13195555D02*
X11303277Y-13214603D01*
X11303277Y-13214603D02*
X11284229Y-13224127D01*
X11569944Y-13166984D02*
X11531848Y-13166984D01*
X11531848Y-13166984D02*
X11512801Y-13176508D01*
X11512801Y-13176508D02*
X11503277Y-13186031D01*
X11503277Y-13186031D02*
X11484229Y-13214603D01*
X11484229Y-13214603D02*
X11474706Y-13252698D01*
X11474706Y-13252698D02*
X11474706Y-13328888D01*
X11474706Y-13328888D02*
X11484229Y-13347936D01*
X11484229Y-13347936D02*
X11493753Y-13357460D01*
X11493753Y-13357460D02*
X11512801Y-13366984D01*
X11512801Y-13366984D02*
X11550896Y-13366984D01*
X11550896Y-13366984D02*
X11569944Y-13357460D01*
X11569944Y-13357460D02*
X11579467Y-13347936D01*
X11579467Y-13347936D02*
X11588991Y-13328888D01*
X11588991Y-13328888D02*
X11588991Y-13281269D01*
X11588991Y-13281269D02*
X11579467Y-13262222D01*
X11579467Y-13262222D02*
X11569944Y-13252698D01*
X11569944Y-13252698D02*
X11550896Y-13243174D01*
X11550896Y-13243174D02*
X11512801Y-13243174D01*
X11512801Y-13243174D02*
X11493753Y-13252698D01*
X11493753Y-13252698D02*
X11484229Y-13262222D01*
X11484229Y-13262222D02*
X11474706Y-13281269D01*
X11779467Y-13366984D02*
X11665182Y-13366984D01*
X11722325Y-13366984D02*
X11722325Y-13166984D01*
X11722325Y-13166984D02*
X11703277Y-13195555D01*
X11703277Y-13195555D02*
X11684229Y-13214603D01*
X11684229Y-13214603D02*
X11665182Y-13224127D01*
X11950896Y-13233650D02*
X11950896Y-13366984D01*
X11903277Y-13157460D02*
X11855658Y-13300317D01*
X11855658Y-13300317D02*
X11979467Y-13300317D01*
X12046134Y-13166984D02*
X12046134Y-13205079D01*
X12122325Y-13166984D02*
X12122325Y-13205079D01*
X12417563Y-13443174D02*
X12408039Y-13433650D01*
X12408039Y-13433650D02*
X12388991Y-13405079D01*
X12388991Y-13405079D02*
X12379468Y-13386031D01*
X12379468Y-13386031D02*
X12369944Y-13357460D01*
X12369944Y-13357460D02*
X12360420Y-13309841D01*
X12360420Y-13309841D02*
X12360420Y-13271746D01*
X12360420Y-13271746D02*
X12369944Y-13224127D01*
X12369944Y-13224127D02*
X12379468Y-13195555D01*
X12379468Y-13195555D02*
X12388991Y-13176508D01*
X12388991Y-13176508D02*
X12408039Y-13147936D01*
X12408039Y-13147936D02*
X12417563Y-13138412D01*
X12484229Y-13186031D02*
X12493753Y-13176508D01*
X12493753Y-13176508D02*
X12512801Y-13166984D01*
X12512801Y-13166984D02*
X12560420Y-13166984D01*
X12560420Y-13166984D02*
X12579468Y-13176508D01*
X12579468Y-13176508D02*
X12588991Y-13186031D01*
X12588991Y-13186031D02*
X12598515Y-13205079D01*
X12598515Y-13205079D02*
X12598515Y-13224127D01*
X12598515Y-13224127D02*
X12588991Y-13252698D01*
X12588991Y-13252698D02*
X12474706Y-13366984D01*
X12474706Y-13366984D02*
X12598515Y-13366984D01*
X12769944Y-13233650D02*
X12769944Y-13366984D01*
X12722325Y-13157460D02*
X12674706Y-13300317D01*
X12674706Y-13300317D02*
X12798515Y-13300317D01*
X13027087Y-13366984D02*
X13027087Y-13166984D01*
X13112801Y-13366984D02*
X13112801Y-13262222D01*
X13112801Y-13262222D02*
X13103277Y-13243174D01*
X13103277Y-13243174D02*
X13084230Y-13233650D01*
X13084230Y-13233650D02*
X13055658Y-13233650D01*
X13055658Y-13233650D02*
X13036610Y-13243174D01*
X13036610Y-13243174D02*
X13027087Y-13252698D01*
X13236610Y-13366984D02*
X13217563Y-13357460D01*
X13217563Y-13357460D02*
X13208039Y-13347936D01*
X13208039Y-13347936D02*
X13198515Y-13328888D01*
X13198515Y-13328888D02*
X13198515Y-13271746D01*
X13198515Y-13271746D02*
X13208039Y-13252698D01*
X13208039Y-13252698D02*
X13217563Y-13243174D01*
X13217563Y-13243174D02*
X13236610Y-13233650D01*
X13236610Y-13233650D02*
X13265182Y-13233650D01*
X13265182Y-13233650D02*
X13284230Y-13243174D01*
X13284230Y-13243174D02*
X13293753Y-13252698D01*
X13293753Y-13252698D02*
X13303277Y-13271746D01*
X13303277Y-13271746D02*
X13303277Y-13328888D01*
X13303277Y-13328888D02*
X13293753Y-13347936D01*
X13293753Y-13347936D02*
X13284230Y-13357460D01*
X13284230Y-13357460D02*
X13265182Y-13366984D01*
X13265182Y-13366984D02*
X13236610Y-13366984D01*
X13417563Y-13366984D02*
X13398515Y-13357460D01*
X13398515Y-13357460D02*
X13388991Y-13338412D01*
X13388991Y-13338412D02*
X13388991Y-13166984D01*
X13569944Y-13357460D02*
X13550896Y-13366984D01*
X13550896Y-13366984D02*
X13512801Y-13366984D01*
X13512801Y-13366984D02*
X13493753Y-13357460D01*
X13493753Y-13357460D02*
X13484230Y-13338412D01*
X13484230Y-13338412D02*
X13484230Y-13262222D01*
X13484230Y-13262222D02*
X13493753Y-13243174D01*
X13493753Y-13243174D02*
X13512801Y-13233650D01*
X13512801Y-13233650D02*
X13550896Y-13233650D01*
X13550896Y-13233650D02*
X13569944Y-13243174D01*
X13569944Y-13243174D02*
X13579468Y-13262222D01*
X13579468Y-13262222D02*
X13579468Y-13281269D01*
X13579468Y-13281269D02*
X13484230Y-13300317D01*
X13655658Y-13357460D02*
X13674706Y-13366984D01*
X13674706Y-13366984D02*
X13712801Y-13366984D01*
X13712801Y-13366984D02*
X13731849Y-13357460D01*
X13731849Y-13357460D02*
X13741372Y-13338412D01*
X13741372Y-13338412D02*
X13741372Y-13328888D01*
X13741372Y-13328888D02*
X13731849Y-13309841D01*
X13731849Y-13309841D02*
X13712801Y-13300317D01*
X13712801Y-13300317D02*
X13684230Y-13300317D01*
X13684230Y-13300317D02*
X13665182Y-13290793D01*
X13665182Y-13290793D02*
X13655658Y-13271746D01*
X13655658Y-13271746D02*
X13655658Y-13262222D01*
X13655658Y-13262222D02*
X13665182Y-13243174D01*
X13665182Y-13243174D02*
X13684230Y-13233650D01*
X13684230Y-13233650D02*
X13712801Y-13233650D01*
X13712801Y-13233650D02*
X13731849Y-13243174D01*
X13808039Y-13443174D02*
X13817563Y-13433650D01*
X13817563Y-13433650D02*
X13836611Y-13405079D01*
X13836611Y-13405079D02*
X13846134Y-13386031D01*
X13846134Y-13386031D02*
X13855658Y-13357460D01*
X13855658Y-13357460D02*
X13865182Y-13309841D01*
X13865182Y-13309841D02*
X13865182Y-13271746D01*
X13865182Y-13271746D02*
X13855658Y-13224127D01*
X13855658Y-13224127D02*
X13846134Y-13195555D01*
X13846134Y-13195555D02*
X13836611Y-13176508D01*
X13836611Y-13176508D02*
X13817563Y-13147936D01*
X13817563Y-13147936D02*
X13808039Y-13138412D01*
X14169944Y-13443174D02*
X14160420Y-13433650D01*
X14160420Y-13433650D02*
X14141372Y-13405079D01*
X14141372Y-13405079D02*
X14131849Y-13386031D01*
X14131849Y-13386031D02*
X14122325Y-13357460D01*
X14122325Y-13357460D02*
X14112801Y-13309841D01*
X14112801Y-13309841D02*
X14112801Y-13271746D01*
X14112801Y-13271746D02*
X14122325Y-13224127D01*
X14122325Y-13224127D02*
X14131849Y-13195555D01*
X14131849Y-13195555D02*
X14141372Y-13176508D01*
X14141372Y-13176508D02*
X14160420Y-13147936D01*
X14160420Y-13147936D02*
X14169944Y-13138412D01*
X14246134Y-13233650D02*
X14246134Y-13366984D01*
X14246134Y-13252698D02*
X14255658Y-13243174D01*
X14255658Y-13243174D02*
X14274706Y-13233650D01*
X14274706Y-13233650D02*
X14303277Y-13233650D01*
X14303277Y-13233650D02*
X14322325Y-13243174D01*
X14322325Y-13243174D02*
X14331849Y-13262222D01*
X14331849Y-13262222D02*
X14331849Y-13366984D01*
X14455658Y-13366984D02*
X14436611Y-13357460D01*
X14436611Y-13357460D02*
X14427087Y-13347936D01*
X14427087Y-13347936D02*
X14417563Y-13328888D01*
X14417563Y-13328888D02*
X14417563Y-13271746D01*
X14417563Y-13271746D02*
X14427087Y-13252698D01*
X14427087Y-13252698D02*
X14436611Y-13243174D01*
X14436611Y-13243174D02*
X14455658Y-13233650D01*
X14455658Y-13233650D02*
X14484230Y-13233650D01*
X14484230Y-13233650D02*
X14503277Y-13243174D01*
X14503277Y-13243174D02*
X14512801Y-13252698D01*
X14512801Y-13252698D02*
X14522325Y-13271746D01*
X14522325Y-13271746D02*
X14522325Y-13328888D01*
X14522325Y-13328888D02*
X14512801Y-13347936D01*
X14512801Y-13347936D02*
X14503277Y-13357460D01*
X14503277Y-13357460D02*
X14484230Y-13366984D01*
X14484230Y-13366984D02*
X14455658Y-13366984D01*
X14579468Y-13233650D02*
X14655658Y-13233650D01*
X14608039Y-13166984D02*
X14608039Y-13338412D01*
X14608039Y-13338412D02*
X14617563Y-13357460D01*
X14617563Y-13357460D02*
X14636611Y-13366984D01*
X14636611Y-13366984D02*
X14655658Y-13366984D01*
X14874706Y-13233650D02*
X14874706Y-13433650D01*
X14874706Y-13243174D02*
X14893753Y-13233650D01*
X14893753Y-13233650D02*
X14931849Y-13233650D01*
X14931849Y-13233650D02*
X14950896Y-13243174D01*
X14950896Y-13243174D02*
X14960420Y-13252698D01*
X14960420Y-13252698D02*
X14969944Y-13271746D01*
X14969944Y-13271746D02*
X14969944Y-13328888D01*
X14969944Y-13328888D02*
X14960420Y-13347936D01*
X14960420Y-13347936D02*
X14950896Y-13357460D01*
X14950896Y-13357460D02*
X14931849Y-13366984D01*
X14931849Y-13366984D02*
X14893753Y-13366984D01*
X14893753Y-13366984D02*
X14874706Y-13357460D01*
X15084230Y-13366984D02*
X15065182Y-13357460D01*
X15065182Y-13357460D02*
X15055658Y-13338412D01*
X15055658Y-13338412D02*
X15055658Y-13166984D01*
X15246134Y-13366984D02*
X15246134Y-13262222D01*
X15246134Y-13262222D02*
X15236611Y-13243174D01*
X15236611Y-13243174D02*
X15217563Y-13233650D01*
X15217563Y-13233650D02*
X15179468Y-13233650D01*
X15179468Y-13233650D02*
X15160420Y-13243174D01*
X15246134Y-13357460D02*
X15227087Y-13366984D01*
X15227087Y-13366984D02*
X15179468Y-13366984D01*
X15179468Y-13366984D02*
X15160420Y-13357460D01*
X15160420Y-13357460D02*
X15150896Y-13338412D01*
X15150896Y-13338412D02*
X15150896Y-13319365D01*
X15150896Y-13319365D02*
X15160420Y-13300317D01*
X15160420Y-13300317D02*
X15179468Y-13290793D01*
X15179468Y-13290793D02*
X15227087Y-13290793D01*
X15227087Y-13290793D02*
X15246134Y-13281269D01*
X15312801Y-13233650D02*
X15388992Y-13233650D01*
X15341373Y-13166984D02*
X15341373Y-13338412D01*
X15341373Y-13338412D02*
X15350896Y-13357460D01*
X15350896Y-13357460D02*
X15369944Y-13366984D01*
X15369944Y-13366984D02*
X15388992Y-13366984D01*
X15531849Y-13357460D02*
X15512801Y-13366984D01*
X15512801Y-13366984D02*
X15474706Y-13366984D01*
X15474706Y-13366984D02*
X15455658Y-13357460D01*
X15455658Y-13357460D02*
X15446134Y-13338412D01*
X15446134Y-13338412D02*
X15446134Y-13262222D01*
X15446134Y-13262222D02*
X15455658Y-13243174D01*
X15455658Y-13243174D02*
X15474706Y-13233650D01*
X15474706Y-13233650D02*
X15512801Y-13233650D01*
X15512801Y-13233650D02*
X15531849Y-13243174D01*
X15531849Y-13243174D02*
X15541373Y-13262222D01*
X15541373Y-13262222D02*
X15541373Y-13281269D01*
X15541373Y-13281269D02*
X15446134Y-13300317D01*
X15712801Y-13366984D02*
X15712801Y-13166984D01*
X15712801Y-13357460D02*
X15693754Y-13366984D01*
X15693754Y-13366984D02*
X15655658Y-13366984D01*
X15655658Y-13366984D02*
X15636611Y-13357460D01*
X15636611Y-13357460D02*
X15627087Y-13347936D01*
X15627087Y-13347936D02*
X15617563Y-13328888D01*
X15617563Y-13328888D02*
X15617563Y-13271746D01*
X15617563Y-13271746D02*
X15627087Y-13252698D01*
X15627087Y-13252698D02*
X15636611Y-13243174D01*
X15636611Y-13243174D02*
X15655658Y-13233650D01*
X15655658Y-13233650D02*
X15693754Y-13233650D01*
X15693754Y-13233650D02*
X15712801Y-13243174D01*
X15788992Y-13443174D02*
X15798515Y-13433650D01*
X15798515Y-13433650D02*
X15817563Y-13405079D01*
X15817563Y-13405079D02*
X15827087Y-13386031D01*
X15827087Y-13386031D02*
X15836611Y-13357460D01*
X15836611Y-13357460D02*
X15846134Y-13309841D01*
X15846134Y-13309841D02*
X15846134Y-13271746D01*
X15846134Y-13271746D02*
X15836611Y-13224127D01*
X15836611Y-13224127D02*
X15827087Y-13195555D01*
X15827087Y-13195555D02*
X15817563Y-13176508D01*
X15817563Y-13176508D02*
X15798515Y-13147936D01*
X15798515Y-13147936D02*
X15788992Y-13138412D01*
M02*
