M48
; DRILL file {KiCad 8.0.6+1} date 2024-11-11T16:02:32+0000
; FORMAT={-:-/ absolute / metric / decimal}
; #@! TF.CreationDate,2024-11-11T16:02:32+00:00
; #@! TF.GenerationSoftware,Kicad,Pcbnew,8.0.6+1
; #@! TF.FileFunction,Plated,1,2,PTH
FMAT,2
METRIC
; #@! TA.AperFunction,Plated,PTH,ViaDrill
T1C0.300
; #@! TA.AperFunction,Plated,PTH,ComponentDrill
T2C0.750
; #@! TA.AperFunction,Plated,PTH,ComponentDrill
T3C1.000
%
G90
G05
T1
X92.933Y-74.705
X110.45Y-65.559
X124.597Y-32.805
X125.337Y-65.559
X126.593Y-46.622
X128.511Y-83.6
X129.178Y-44.617
X141.941Y-65.559
X145.004Y-83.6
X149.915Y-46.944
X150.235Y-83.6
X164.454Y-63.373
X166.707Y-47.736
X169.631Y-63.373
X182.637Y-83.6
X183.1Y-63.36
X183.735Y-48.439
X188.442Y-63.36
X188.442Y-83.6
T2
X109.5Y-69.5
X109.5Y-71.5
T3
X92.6Y-34.38
X92.6Y-49.62
X95.14Y-34.38
X95.14Y-49.62
X97.68Y-34.38
X97.68Y-49.62
X100.22Y-34.38
X100.22Y-49.62
X102.76Y-34.38
X102.76Y-49.62
X105.3Y-34.38
X105.3Y-49.62
X107.84Y-34.38
X107.84Y-49.62
X110.38Y-34.38
X110.38Y-49.62
X112.92Y-34.38
X112.92Y-49.62
X115.46Y-34.38
X115.46Y-49.62
X118.0Y-34.38
X118.0Y-49.62
X120.54Y-34.38
X120.54Y-49.62
M30
