M48
; DRILL file {KiCad 8.0.6+1} date 2024-11-11T16:29:40+0000
; FORMAT={-:-/ absolute / metric / decimal}
; #@! TF.CreationDate,2024-11-11T16:29:40+00:00
; #@! TF.GenerationSoftware,Kicad,Pcbnew,8.0.6+1
; #@! TF.FileFunction,Plated,1,2,PTH
FMAT,2
METRIC
; #@! TA.AperFunction,Plated,PTH,ViaDrill
T1C0.300
; #@! TA.AperFunction,Plated,PTH,ComponentDrill
T2C0.750
; #@! TA.AperFunction,Plated,PTH,ComponentDrill
T3C1.000
%
G90
G05
T1
X98.798Y-51.141
X105.169Y-52.16
X110.706Y-83.637
X111.915Y-52.253
X116.316Y-45.258
X123.617Y-83.637
X128.292Y-56.648
X134.636Y-44.962
X146.022Y-60.751
X149.915Y-47.089
X162.647Y-48.027
X164.216Y-83.6
X165.233Y-62.588
X169.535Y-63.277
X179.83Y-83.6
X183.141Y-49.032
X201.148Y-64.6
T2
X109.5Y-69.5
X109.5Y-71.5
T3
X92.6Y-34.38
X92.6Y-49.62
X95.14Y-34.38
X95.14Y-49.62
X97.68Y-34.38
X97.68Y-49.62
X100.22Y-34.38
X100.22Y-49.62
X102.76Y-34.38
X102.76Y-49.62
X105.3Y-34.38
X105.3Y-49.62
X107.84Y-34.38
X107.84Y-49.62
X110.38Y-34.38
X110.38Y-49.62
X112.92Y-34.38
X112.92Y-49.62
X115.46Y-34.38
X115.46Y-49.62
X118.0Y-34.38
X118.0Y-49.62
X120.54Y-34.38
X120.54Y-49.62
M30
