G04 #@! TF.GenerationSoftware,KiCad,Pcbnew,8.0.6+1*
G04 #@! TF.CreationDate,2024-11-11T16:29:40+00:00*
G04 #@! TF.ProjectId,not_about_money_autorouted,6e6f745f-6162-46f7-9574-5f6d6f6e6579,v1.0.0*
G04 #@! TF.SameCoordinates,Original*
G04 #@! TF.FileFunction,Copper,L1,Top*
G04 #@! TF.FilePolarity,Positive*
%FSLAX46Y46*%
G04 Gerber Fmt 4.6, Leading zero omitted, Abs format (unit mm)*
G04 Created by KiCad (PCBNEW 8.0.6+1) date 2024-11-11 16:29:40*
%MOMM*%
%LPD*%
G01*
G04 APERTURE LIST*
G04 #@! TA.AperFunction,ComponentPad*
%ADD10O,1.750000X1.200000*%
G04 #@! TD*
G04 #@! TA.AperFunction,ComponentPad*
%ADD11C,1.700000*%
G04 #@! TD*
G04 #@! TA.AperFunction,ViaPad*
%ADD12C,0.600000*%
G04 #@! TD*
G04 #@! TA.AperFunction,Conductor*
%ADD13C,0.200000*%
G04 #@! TD*
G04 APERTURE END LIST*
G04 #@! TA.AperFunction,ComponentPad*
G36*
G01*
X110135000Y-70100000D02*
X108865000Y-70100000D01*
G75*
G02*
X108625000Y-69860000I0J240000D01*
G01*
X108625000Y-69140000D01*
G75*
G02*
X108865000Y-68900000I240000J0D01*
G01*
X110135000Y-68900000D01*
G75*
G02*
X110375000Y-69140000I0J-240000D01*
G01*
X110375000Y-69860000D01*
G75*
G02*
X110135000Y-70100000I-240000J0D01*
G01*
G37*
G04 #@! TD.AperFunction*
D10*
X109500000Y-71500000D03*
D11*
X92600000Y-34380000D03*
X95140000Y-34380000D03*
X97680000Y-34380000D03*
X100220000Y-34380000D03*
X102760000Y-34380000D03*
X105300000Y-34380000D03*
X107840000Y-34380000D03*
X110380000Y-34380000D03*
X112920000Y-34380000D03*
X115460000Y-34380000D03*
X118000000Y-34380000D03*
X120540000Y-34380000D03*
X120540000Y-49620000D03*
X118000000Y-49620000D03*
X115460000Y-49620000D03*
X112920000Y-49620000D03*
X110380000Y-49620000D03*
X107840000Y-49620000D03*
X105300000Y-49620000D03*
X102760000Y-49620000D03*
X100220000Y-49620000D03*
X97680000Y-49620000D03*
X95140000Y-49620000D03*
X92600000Y-49620000D03*
D12*
X98797800Y-51140600D03*
X111915000Y-52252900D03*
X149915000Y-47088900D03*
X162646700Y-48026600D03*
X183141400Y-49032500D03*
X134636400Y-44962000D03*
X164216200Y-83600200D03*
X110706000Y-83637200D03*
X123617500Y-83637200D03*
X179830000Y-83600200D03*
X128292500Y-56647600D03*
X169535200Y-63277300D03*
X146022500Y-60751400D03*
X201147700Y-64600200D03*
X165233400Y-62588400D03*
X105169400Y-52160100D03*
X116316300Y-45258100D03*
D13*
X102760000Y-49620000D02*
X101239400Y-51140600D01*
X101239400Y-51140600D02*
X98797800Y-51140600D01*
X105300000Y-49620000D02*
X107932900Y-52252900D01*
X107932900Y-52252900D02*
X111915000Y-52252900D01*
X110380000Y-49620000D02*
X112911100Y-47088900D01*
X112911100Y-47088900D02*
X149915000Y-47088900D01*
X114513400Y-48026600D02*
X112920000Y-49620000D01*
X162646700Y-48026600D02*
X114513400Y-48026600D01*
X145734500Y-48426700D02*
X146340300Y-49032500D01*
X146340300Y-49032500D02*
X183141400Y-49032500D01*
X115460000Y-49620000D02*
X116653300Y-48426700D01*
X116653300Y-48426700D02*
X145734500Y-48426700D01*
X132282000Y-44962000D02*
X134636400Y-44962000D01*
X127839400Y-40519400D02*
X132282000Y-44962000D01*
X118000000Y-37356700D02*
X121162700Y-40519400D01*
X121162700Y-40519400D02*
X127839400Y-40519400D01*
X118000000Y-34380000D02*
X118000000Y-37356700D01*
X110706000Y-83637200D02*
X123617500Y-83637200D01*
X123654500Y-83600200D02*
X123617500Y-83637200D01*
X164216200Y-83600200D02*
X123654500Y-83600200D01*
X179830000Y-83600200D02*
X164216200Y-83600200D01*
X128292500Y-56647600D02*
X136324800Y-56647600D01*
X169535200Y-63277300D02*
X168846300Y-62588400D01*
X168846300Y-62588400D02*
X165233400Y-62588400D01*
X145560300Y-60289200D02*
X146022500Y-60751400D01*
X169535200Y-63277300D02*
X170858100Y-64600200D01*
X170858100Y-64600200D02*
X201147700Y-64600200D01*
X139966400Y-60289200D02*
X145560300Y-60289200D01*
X136324800Y-56647600D02*
X139966400Y-60289200D01*
X97680100Y-52160100D02*
X105169400Y-52160100D01*
X95140000Y-49620000D02*
X97680100Y-52160100D01*
X100220000Y-34380000D02*
X97680000Y-34380000D01*
X102041900Y-45258100D02*
X97680000Y-49620000D01*
X116316300Y-45258100D02*
X102041900Y-45258100D01*
M02*
